<svg id="_0" data-name="0" xmlns="http://www.w3.org/2000/svg" xmlns:xlink="http://www.w3.org/1999/xlink" viewBox="0 0 102.42 54.97"><defs><style>.cls-1{fill:#2c282c;}.cls-2{fill:#3b353c;}.cls-3{isolation:isolate;}.cls-4{fill:#ece9e3;}.cls-5{fill:#cecac0;}.cls-6{fill:#e2ddd4;}.cls-7{fill:url(#鍊踑臇蜸馯鳺艜_2);}.cls-8{fill:url(#鍊踑臇蜸馯鳺艜_2-2);}.cls-9{fill:url(#鍊踑臇蜸馯鳺艜_2-3);}.cls-10{fill:url(#鍊踑臇蜸馯鳺艜_2-4);}.cls-11{fill:url(#鍊踑臇蜸馯鳺艜_2-5);}.cls-12{fill:url(#鍊踑臇蜸馯鳺艜_2-6);}.cls-13{fill:url(#鍊踑臇蜸馯鳺艜_2-7);}.cls-14{fill:url(#鍊踑臇蜸馯鳺艜_2-8);}.cls-15{fill:url(#鍊踑臇蜸馯鳺艜_2-9);}.cls-16{fill:url(#鍊踑臇蜸馯鳺艜_2-10);}.cls-17{fill:url(#鍊踑臇蜸馯鳺艜_2-11);}.cls-18{fill:url(#鍊踑臇蜸馯鳺艜_2-12);}.cls-19{fill:url(#鍊踑臇蜸馯鳺艜_2-13);}.cls-20{fill:url(#鍊踑臇蜸馯鳺艜_2-14);}.cls-21{fill:url(#鍊踑臇蜸馯鳺艜_2-15);}.cls-22{fill:url(#鍊踑臇蜸馯鳺艜_2-16);}.cls-23{fill:url(#鍊踑臇蜸馯鳺艜_2-17);}.cls-24{fill:url(#鍊踑臇蜸馯鳺艜_2-18);}.cls-25{fill:url(#鍊踑臇蜸馯鳺艜_2-19);}.cls-26{fill:url(#鍊踑臇蜸馯鳺艜_2-20);}.cls-27{fill:url(#鍊踑臇蜸馯鳺艜_2-21);}.cls-28{fill:url(#鍊踑臇蜸馯鳺艜_2-22);}.cls-29{fill:url(#鍊踑臇蜸馯鳺艜_2-23);}.cls-30{fill:url(#鍊踑臇蜸馯鳺艜_2-24);}.cls-31{fill:url(#鍊踑臇蜸馯鳺艜_2-25);}.cls-32{fill:url(#鍊踑臇蜸馯鳺艜_2-26);}.cls-33{fill:url(#鍊踑臇蜸馯鳺艜_2-27);}.cls-34{fill:url(#鍊踑臇蜸馯鳺艜_2-28);}.cls-35{fill:url(#鍊踑臇蜸馯鳺艜_2-29);}.cls-36{fill:url(#鍊踑臇蜸馯鳺艜_2-30);}.cls-37{fill:url(#鍊踑臇蜸馯鳺艜_2-31);}.cls-38{fill:url(#鍊踑臇蜸馯鳺艜_2-32);}.cls-39{fill:url(#鍊踑臇蜸馯鳺艜_2-33);}.cls-40{fill:url(#鍊踑臇蜸馯鳺艜_2-34);}.cls-41{fill:url(#鍊踑臇蜸馯鳺艜_2-35);}.cls-42{fill:url(#鍊踑臇蜸馯鳺艜_2-36);}.cls-43{fill:url(#鍊踑臇蜸馯鳺艜_2-37);}.cls-44{fill:url(#鍊踑臇蜸馯鳺艜_2-38);}.cls-45{fill:#464047;}.cls-46{fill:#3c373d;opacity:0.4;}.cls-47{fill:url(#鍊踑臇蜸馯鳺艜_552);}.cls-48{fill:url(#鍊踑臇蜸馯鳺艜_552-2);}.cls-49{fill:url(#鍊踑臇蜸馯鳺艜_552-3);}.cls-50{fill:url(#鍊踑臇蜸馯鳺艜_552-4);}</style><linearGradient id="鍊踑臇蜸馯鳺艜_2" x1="-745.99" y1="35.82" x2="-742.4" y2="42.03" gradientTransform="matrix(-1, 0, 0, 1, -719.73, 0)" gradientUnits="userSpaceOnUse"><stop offset="0" stop-color="#e2ddd4"/><stop offset="0.19" stop-color="#dfdad1"/><stop offset="0.34" stop-color="#d5d1c7"/><stop offset="0.41" stop-color="#cecac0"/><stop offset="0.55" stop-color="#d0ccc2"/><stop offset="0.6" stop-color="#d5d2c9"/><stop offset="0.63" stop-color="#e0dcd4"/><stop offset="0.66" stop-color="#ece9e3"/></linearGradient><linearGradient id="鍊踑臇蜸馯鳺艜_2-2" x1="-744.79" y1="35.13" x2="-741.21" y2="41.33" xlink:href="#鍊踑臇蜸馯鳺艜_2"/><linearGradient id="鍊踑臇蜸馯鳺艜_2-3" x1="-743.59" y1="34.43" x2="-740.01" y2="40.64" xlink:href="#鍊踑臇蜸馯鳺艜_2"/><linearGradient id="鍊踑臇蜸馯鳺艜_2-4" x1="-742.39" y1="33.74" x2="-738.81" y2="39.95" xlink:href="#鍊踑臇蜸馯鳺艜_2"/><linearGradient id="鍊踑臇蜸馯鳺艜_2-5" x1="-741.2" y1="33.05" x2="-737.61" y2="39.26" xlink:href="#鍊踑臇蜸馯鳺艜_2"/><linearGradient id="鍊踑臇蜸馯鳺艜_2-6" x1="-740" y1="32.36" x2="-736.41" y2="38.57" xlink:href="#鍊踑臇蜸馯鳺艜_2"/><linearGradient id="鍊踑臇蜸馯鳺艜_2-7" x1="-738.8" y1="31.67" x2="-735.22" y2="37.88" xlink:href="#鍊踑臇蜸馯鳺艜_2"/><linearGradient id="鍊踑臇蜸馯鳺艜_2-8" x1="-737.6" y1="30.97" x2="-734.02" y2="37.18" xlink:href="#鍊踑臇蜸馯鳺艜_2"/><linearGradient id="鍊踑臇蜸馯鳺艜_2-9" x1="-736.4" y1="30.28" x2="-732.82" y2="36.49" xlink:href="#鍊踑臇蜸馯鳺艜_2"/><linearGradient id="鍊踑臇蜸馯鳺艜_2-10" x1="-735.21" y1="29.59" x2="-731.62" y2="35.8" xlink:href="#鍊踑臇蜸馯鳺艜_2"/><linearGradient id="鍊踑臇蜸馯鳺艜_2-11" x1="-734.01" y1="28.9" x2="-730.42" y2="35.11" xlink:href="#鍊踑臇蜸馯鳺艜_2"/><linearGradient id="鍊踑臇蜸馯鳺艜_2-12" x1="-732.81" y1="28.21" x2="-729.23" y2="34.42" xlink:href="#鍊踑臇蜸馯鳺艜_2"/><linearGradient id="鍊踑臇蜸馯鳺艜_2-13" x1="-731.61" y1="27.52" x2="-728.03" y2="33.72" xlink:href="#鍊踑臇蜸馯鳺艜_2"/><linearGradient id="鍊踑臇蜸馯鳺艜_2-14" x1="-730.41" y1="26.82" x2="-726.83" y2="33.03" xlink:href="#鍊踑臇蜸馯鳺艜_2"/><linearGradient id="鍊踑臇蜸馯鳺艜_2-15" x1="-729.22" y1="26.13" x2="-725.63" y2="32.34" xlink:href="#鍊踑臇蜸馯鳺艜_2"/><linearGradient id="鍊踑臇蜸馯鳺艜_2-16" x1="-728.02" y1="25.44" x2="-724.43" y2="31.65" xlink:href="#鍊踑臇蜸馯鳺艜_2"/><linearGradient id="鍊踑臇蜸馯鳺艜_2-17" x1="-726.82" y1="24.75" x2="-723.23" y2="30.96" xlink:href="#鍊踑臇蜸馯鳺艜_2"/><linearGradient id="鍊踑臇蜸馯鳺艜_2-18" x1="-725.62" y1="24.06" x2="-722.04" y2="30.27" xlink:href="#鍊踑臇蜸馯鳺艜_2"/><linearGradient id="鍊踑臇蜸馯鳺艜_2-19" x1="-724.42" y1="23.37" x2="-720.84" y2="29.57" xlink:href="#鍊踑臇蜸馯鳺艜_2"/><linearGradient id="鍊踑臇蜸馯鳺艜_2-20" x1="-768.77" y1="48.97" x2="-765.19" y2="55.18" xlink:href="#鍊踑臇蜸馯鳺艜_2"/><linearGradient id="鍊踑臇蜸馯鳺艜_2-21" x1="-767.57" y1="48.28" x2="-763.99" y2="54.49" xlink:href="#鍊踑臇蜸馯鳺艜_2"/><linearGradient id="鍊踑臇蜸馯鳺艜_2-22" x1="-766.38" y1="47.59" x2="-762.79" y2="53.8" xlink:href="#鍊踑臇蜸馯鳺艜_2"/><linearGradient id="鍊踑臇蜸馯鳺艜_2-23" x1="-765.18" y1="46.9" x2="-761.59" y2="53.1" xlink:href="#鍊踑臇蜸馯鳺艜_2"/><linearGradient id="鍊踑臇蜸馯鳺艜_2-24" x1="-763.98" y1="46.2" x2="-760.4" y2="52.41" xlink:href="#鍊踑臇蜸馯鳺艜_2"/><linearGradient id="鍊踑臇蜸馯鳺艜_2-25" x1="-762.78" y1="45.51" x2="-759.2" y2="51.72" xlink:href="#鍊踑臇蜸馯鳺艜_2"/><linearGradient id="鍊踑臇蜸馯鳺艜_2-26" x1="-761.58" y1="44.82" x2="-758" y2="51.03" xlink:href="#鍊踑臇蜸馯鳺艜_2"/><linearGradient id="鍊踑臇蜸馯鳺艜_2-27" x1="-760.39" y1="44.13" x2="-756.8" y2="50.34" xlink:href="#鍊踑臇蜸馯鳺艜_2"/><linearGradient id="鍊踑臇蜸馯鳺艜_2-28" x1="-759.19" y1="43.44" x2="-755.6" y2="49.65" xlink:href="#鍊踑臇蜸馯鳺艜_2"/><linearGradient id="鍊踑臇蜸馯鳺艜_2-29" x1="-757.99" y1="42.75" x2="-754.4" y2="48.95" xlink:href="#鍊踑臇蜸馯鳺艜_2"/><linearGradient id="鍊踑臇蜸馯鳺艜_2-30" x1="-756.79" y1="42.05" x2="-753.21" y2="48.26" xlink:href="#鍊踑臇蜸馯鳺艜_2"/><linearGradient id="鍊踑臇蜸馯鳺艜_2-31" x1="-755.59" y1="41.36" x2="-752.01" y2="47.57" xlink:href="#鍊踑臇蜸馯鳺艜_2"/><linearGradient id="鍊踑臇蜸馯鳺艜_2-32" x1="-754.39" y1="40.67" x2="-750.81" y2="46.88" xlink:href="#鍊踑臇蜸馯鳺艜_2"/><linearGradient id="鍊踑臇蜸馯鳺艜_2-33" x1="-753.2" y1="39.98" x2="-749.61" y2="46.19" xlink:href="#鍊踑臇蜸馯鳺艜_2"/><linearGradient id="鍊踑臇蜸馯鳺艜_2-34" x1="-752" y1="39.29" x2="-748.41" y2="45.5" xlink:href="#鍊踑臇蜸馯鳺艜_2"/><linearGradient id="鍊踑臇蜸馯鳺艜_2-35" x1="-750.8" y1="38.59" x2="-747.22" y2="44.8" xlink:href="#鍊踑臇蜸馯鳺艜_2"/><linearGradient id="鍊踑臇蜸馯鳺艜_2-36" x1="-749.6" y1="37.9" x2="-746.02" y2="44.11" xlink:href="#鍊踑臇蜸馯鳺艜_2"/><linearGradient id="鍊踑臇蜸馯鳺艜_2-37" x1="-748.4" y1="37.21" x2="-744.82" y2="43.42" xlink:href="#鍊踑臇蜸馯鳺艜_2"/><linearGradient id="鍊踑臇蜸馯鳺艜_2-38" x1="-747.21" y1="36.52" x2="-743.62" y2="42.73" xlink:href="#鍊踑臇蜸馯鳺艜_2"/><linearGradient id="鍊踑臇蜸馯鳺艜_552" x1="77.05" y1="21.39" x2="72.9" y2="28.57" gradientUnits="userSpaceOnUse"><stop offset="0" stop-color="#e2ddd4"/><stop offset="0.11" stop-color="#ded9d0"/><stop offset="0.22" stop-color="#d3cfc5"/><stop offset="0.25" stop-color="#cecac0"/><stop offset="0.43" stop-color="#cecac0"/><stop offset="0.45" stop-color="#cecac0"/><stop offset="0.55" stop-color="#d0ccc2"/><stop offset="0.59" stop-color="#d5d2c9"/><stop offset="0.62" stop-color="#e0dcd4"/><stop offset="0.64" stop-color="#ece9e3"/></linearGradient><linearGradient id="鍊踑臇蜸馯鳺艜_552-2" x1="84.36" y1="25.61" x2="80.21" y2="32.79" xlink:href="#鍊踑臇蜸馯鳺艜_552"/><linearGradient id="鍊踑臇蜸馯鳺艜_552-3" x1="69.74" y1="17.17" x2="65.59" y2="24.35" xlink:href="#鍊踑臇蜸馯鳺艜_552"/><linearGradient id="鍊踑臇蜸馯鳺艜_552-4" x1="62.43" y1="12.95" x2="58.29" y2="20.13" xlink:href="#鍊踑臇蜸馯鳺艜_552"/></defs><title>prod-icon-4</title><g id="_3" data-name="3"><g id="Axonometric_Cube" data-name="Axonometric Cube"><polygon id="Cube_face_-_top" data-name="Cube face - top" class="cls-1" points="72.91 37.26 27.13 10.83 3.83 24.29 49.61 50.71 67.42 41.13 72.91 37.26"/><polygon id="Cube_face_-_left" data-name="Cube face - left" class="cls-1" points="49.61 52.32 3.83 25.89 3.83 24.29 50.85 50 49.61 52.32"/><polygon id="Cube_face_-_right" data-name="Cube face - right" class="cls-2" points="72.91 38.87 49.61 52.32 49.61 50.71 72.91 37.26 72.91 38.87"/></g><g class="cls-3"><path class="cls-4" d="M31.72,9.63l-1.51.87a.91.91,0,0,1-.9.1l.53.3a.88.88,0,0,0,.9-.09l1.52-.87Z"/><path class="cls-5" d="M29.58,10.88l-.45-.52a.43.43,0,0,0-.16-.14l-.53-.31a.52.52,0,0,1,.16.14l.45.53a.65.65,0,0,0,.18.15l.53.31A.55.55,0,0,1,29.58,10.88Z"/><path class="cls-6" d="M32.26,9.94l-1.52.87a.78.78,0,0,1-1.07-.05l-.44-.53a.88.88,0,0,0-1.16-.06L27,10.8v.14l1.1-.63c.43-.25.83-.24,1.06,0l.45.52c.26.32.69.34,1.16.06l1.52-.87Z"/><polygon class="cls-5" points="26.97 10.8 26.44 10.49 26.44 10.63 26.97 10.94 26.97 10.8"/><path class="cls-4" d="M28.52,9.77a1,1,0,0,0-1,.09l-1.09.63.53.31,1.1-.63a1,1,0,0,1,1-.09Z"/></g><g class="cls-3"><path class="cls-4" d="M32.85,10.28l-1.52.87a.88.88,0,0,1-.9.09l.53.31a.88.88,0,0,0,.9-.09l1.52-.87Z"/><path class="cls-5" d="M30.7,11.53,30.25,11a.54.54,0,0,0-.16-.14l-.53-.31a1.07,1.07,0,0,1,.16.14l.45.53a.55.55,0,0,0,.18.16l.53.31A.67.67,0,0,1,30.7,11.53Z"/><path class="cls-6" d="M33.38,10.59l-1.52.87a.8.8,0,0,1-1.07-.05l-.44-.53a.87.87,0,0,0-1.16-.06l-1.1.63v.14l1.1-.64c.43-.25.83-.23,1.06.05l.45.53a.87.87,0,0,0,1.16.06l1.52-.87Z"/><polygon class="cls-5" points="28.09 11.45 27.56 11.14 27.56 11.28 28.09 11.59 28.09 11.45"/><path class="cls-4" d="M29.64,10.41a1,1,0,0,0-1,.1l-1.1.63.53.31,1.1-.63a1,1,0,0,1,1-.1Z"/></g><g class="cls-3"><path class="cls-4" d="M34,10.93l-1.52.87a.88.88,0,0,1-.9.09l.53.31a.9.9,0,0,0,.91-.09l1.51-.88Z"/><path class="cls-5" d="M31.82,12.18l-.44-.53a.75.75,0,0,0-.17-.14l-.53-.31a.7.7,0,0,1,.16.14l.45.53a.69.69,0,0,0,.18.16l.53.31A.9.9,0,0,1,31.82,12.18Z"/><path class="cls-6" d="M34.5,11.23,33,12.11a.82.82,0,0,1-1.08,0l-.44-.54a.87.87,0,0,0-1.16,0l-1.1.63v.13l1.1-.63a.8.8,0,0,1,1.07.05l.44.53c.26.31.69.33,1.17.06l1.51-.88Z"/><polygon class="cls-5" points="29.21 12.1 28.68 11.79 28.68 11.92 29.21 12.23 29.21 12.1"/><path class="cls-4" d="M30.76,11.06a1,1,0,0,0-1,.1l-1.1.63.53.31,1.1-.63a1,1,0,0,1,1-.1Z"/></g><g class="cls-3"><path class="cls-4" d="M35.09,11.57l-1.52.88a.88.88,0,0,1-.9.09l.53.31a.93.93,0,0,0,.91-.09l1.51-.88Z"/><path class="cls-5" d="M32.94,12.83l-.44-.53a.55.55,0,0,0-.17-.14l-.53-.31A.43.43,0,0,1,32,12l.45.53a.65.65,0,0,0,.18.15l.54.31A.9.9,0,0,1,32.94,12.83Z"/><path class="cls-6" d="M35.62,11.88l-1.51.88c-.44.25-.84.23-1.08-.06l-.44-.53a.87.87,0,0,0-1.16-.06l-1.1.64v.13l1.09-.63a.8.8,0,0,1,1.07.05l.44.53c.26.31.69.33,1.17.05L35.62,12Z"/><polygon class="cls-5" points="30.34 12.74 29.8 12.44 29.8 12.57 30.34 12.88 30.34 12.74"/><path class="cls-4" d="M31.88,11.71a1,1,0,0,0-1,.09l-1.1.64.53.31,1.1-.64a1,1,0,0,1,1-.09Z"/></g><g class="cls-3"><path class="cls-4" d="M36.21,12.22l-1.52.87a.88.88,0,0,1-.9.09l.53.31a.9.9,0,0,0,.91-.09l1.51-.87Z"/><path class="cls-5" d="M34.06,13.47l-.44-.53-.17-.14-.53-.31a.57.57,0,0,1,.16.15l.45.52a.67.67,0,0,0,.18.16l.54.31A.7.7,0,0,1,34.06,13.47Z"/><path class="cls-6" d="M36.74,12.53l-1.51.87a.8.8,0,0,1-1.08-.05l-.43-.53a.88.88,0,0,0-1.17-.06l-1.09.63v.14l1.09-.64a.82.82,0,0,1,1.07,0l.44.53c.26.31.69.33,1.17.06l1.51-.87Z"/><polygon class="cls-5" points="31.46 13.39 30.92 13.08 30.92 13.22 31.46 13.53 31.46 13.39"/><path class="cls-4" d="M33,12.36a1,1,0,0,0-1,.09l-1.1.63.54.31,1.09-.63a1,1,0,0,1,1-.09Z"/></g><g class="cls-3"><path class="cls-4" d="M37.33,12.87l-1.51.87a.9.9,0,0,1-.91.09l.54.31a.89.89,0,0,0,.9-.09l1.51-.87Z"/><path class="cls-5" d="M35.18,14.12l-.44-.53a.75.75,0,0,0-.17-.14L34,13.14a.75.75,0,0,1,.17.14l.44.53a.86.86,0,0,0,.18.16l.54.31A.7.7,0,0,1,35.18,14.12Z"/><path class="cls-6" d="M37.86,13.18l-1.51.87c-.44.25-.83.23-1.07-.05l-.44-.54a.88.88,0,0,0-1.17-.05L32.58,14v.13l1.09-.63a.8.8,0,0,1,1.07.05l.44.53c.26.31.69.33,1.17.06l1.51-.88Z"/><polygon class="cls-5" points="32.58 14.04 32.04 13.73 32.05 13.87 32.58 14.17 32.58 14.04"/><path class="cls-4" d="M34.12,13a1,1,0,0,0-1,.1l-1.1.63.54.31,1.09-.63a1,1,0,0,1,1-.1Z"/></g><g class="cls-3"><path class="cls-4" d="M38.45,13.51l-1.51.88a.9.9,0,0,1-.91.09l.54.31a.89.89,0,0,0,.9-.09L39,13.82Z"/><path class="cls-5" d="M36.3,14.77l-.44-.53a.46.46,0,0,0-.17-.14l-.53-.31a.55.55,0,0,1,.17.14l.44.53a.66.66,0,0,0,.19.15l.53.31A.9.9,0,0,1,36.3,14.77Z"/><path class="cls-6" d="M39,13.82l-1.51.88c-.44.25-.83.23-1.07-.06L36,14.11a.89.89,0,0,0-1.17-.06l-1.09.64v.13l1.09-.63a.8.8,0,0,1,1.07.05l.44.53a.87.87,0,0,0,1.17.05L39,14Z"/><polygon class="cls-5" points="33.7 14.69 33.16 14.38 33.17 14.51 33.7 14.82 33.7 14.69"/><path class="cls-4" d="M35.24,13.65a1,1,0,0,0-1,.1l-1.09.63.53.31,1.09-.64a1,1,0,0,1,1-.09Z"/></g><g class="cls-3"><path class="cls-4" d="M39.57,14.16,38.06,15a.93.93,0,0,1-.9.09l.53.31a.91.91,0,0,0,.9-.1l1.51-.87Z"/><path class="cls-5" d="M37.43,15.42,37,14.89a.52.52,0,0,0-.16-.14l-.54-.31a.55.55,0,0,1,.17.14l.44.53a.9.9,0,0,0,.19.15l.53.31A.65.65,0,0,1,37.43,15.42Z"/><path class="cls-6" d="M40.1,14.47l-1.51.87c-.44.26-.83.24-1.07-.05l-.44-.53a.89.89,0,0,0-1.17-.06l-1.09.63v.14l1.09-.63c.43-.25.84-.24,1.07.05l.45.53c.26.31.69.33,1.16.05l1.51-.87Z"/><polygon class="cls-5" points="34.82 15.33 34.29 15.03 34.29 15.16 34.82 15.47 34.82 15.33"/><path class="cls-4" d="M36.37,14.3a1,1,0,0,0-1,.09L34.29,15l.53.31,1.09-.63a1,1,0,0,1,1-.09Z"/></g><g class="cls-3"><path class="cls-4" d="M40.69,14.81l-1.51.87a.89.89,0,0,1-.9.09l.53.31a.88.88,0,0,0,.9-.09l1.51-.87Z"/><path class="cls-5" d="M38.55,16.06l-.45-.53a1.07,1.07,0,0,0-.16-.14l-.54-.31a.79.79,0,0,1,.17.14l.44.53a.7.7,0,0,0,.19.16l.53.31A.55.55,0,0,1,38.55,16.06Z"/><path class="cls-6" d="M41.22,15.12,39.71,16c-.44.25-.83.23-1.07-.05l-.44-.53A.87.87,0,0,0,37,15.35l-1.1.63v.14l1.1-.64c.43-.25.83-.23,1.06,0l.45.53a.87.87,0,0,0,1.16.06l1.52-.87Z"/><polygon class="cls-5" points="35.94 15.98 35.41 15.67 35.41 15.81 35.94 16.12 35.94 15.98"/><path class="cls-4" d="M37.49,14.94a1,1,0,0,0-1,.1l-1.09.63.53.31,1.1-.63a1,1,0,0,1,1-.1Z"/></g><g class="cls-3"><path class="cls-4" d="M41.81,15.46l-1.51.87a.88.88,0,0,1-.9.09l.53.31a.88.88,0,0,0,.9-.09l1.52-.87Z"/><path class="cls-5" d="M39.67,16.71l-.45-.53a.7.7,0,0,0-.16-.14l-.53-.31a.7.7,0,0,1,.16.14l.45.53a.55.55,0,0,0,.18.16l.53.31A.69.69,0,0,1,39.67,16.71Z"/><path class="cls-6" d="M42.35,15.77l-1.52.87a.8.8,0,0,1-1.07-.05l-.44-.54A.87.87,0,0,0,38.16,16l-1.1.63v.13l1.1-.63c.43-.25.83-.23,1.06.05l.45.53a.87.87,0,0,0,1.16.06l1.52-.88Z"/><polygon class="cls-5" points="37.06 16.63 36.53 16.32 36.53 16.45 37.06 16.76 37.06 16.63"/><path class="cls-4" d="M38.61,15.59a1,1,0,0,0-1,.1l-1.09.63.53.31,1.1-.63a1,1,0,0,1,1-.1Z"/></g><g class="cls-3"><path class="cls-4" d="M42.93,16.1,41.42,17a.88.88,0,0,1-.9.09l.53.31a.88.88,0,0,0,.9-.09l1.52-.88Z"/><path class="cls-5" d="M40.79,17.36l-.45-.53a.43.43,0,0,0-.16-.14l-.53-.31a.52.52,0,0,1,.16.14l.45.53a.65.65,0,0,0,.18.15l.53.31A.65.65,0,0,1,40.79,17.36Z"/><path class="cls-6" d="M43.47,16.41,42,17.29a.79.79,0,0,1-1.07-.06l-.44-.53a.88.88,0,0,0-1.16-.06l-1.1.64v.13l1.1-.63c.43-.25.83-.23,1.06,0l.45.53c.26.31.69.33,1.16.05l1.52-.87Z"/><polygon class="cls-5" points="38.18 17.28 37.65 16.97 37.65 17.1 38.18 17.41 38.18 17.28"/><path class="cls-4" d="M39.73,16.24a1,1,0,0,0-1,.09L37.65,17l.53.31,1.1-.64a1,1,0,0,1,1-.09Z"/></g><g class="cls-3"><path class="cls-4" d="M44.06,16.75l-1.52.87a.88.88,0,0,1-.9.09l.53.31a.88.88,0,0,0,.9-.09l1.52-.87Z"/><path class="cls-5" d="M41.91,18l-.45-.52a.57.57,0,0,0-.16-.15l-.53-.3a.52.52,0,0,1,.16.14l.45.52a.55.55,0,0,0,.18.16l.53.31A.67.67,0,0,1,41.91,18Z"/><path class="cls-6" d="M44.59,17.06l-1.52.87A.78.78,0,0,1,42,17.88l-.44-.53a.87.87,0,0,0-1.16-.06l-1.1.63v.14l1.1-.63c.43-.25.83-.24,1.06.05l.45.52a.87.87,0,0,0,1.16.06l1.52-.87Z"/><polygon class="cls-5" points="39.3 17.92 38.77 17.61 38.77 17.75 39.3 18.06 39.3 17.92"/><path class="cls-4" d="M40.85,16.89a1,1,0,0,0-1,.09l-1.1.63.53.31,1.1-.63a1,1,0,0,1,1-.09Z"/></g><g class="cls-3"><path class="cls-4" d="M45.18,17.4l-1.52.87a.88.88,0,0,1-.9.09l.53.31a.9.9,0,0,0,.91-.09l1.51-.87Z"/><path class="cls-5" d="M43,18.65l-.44-.53a.75.75,0,0,0-.17-.14l-.53-.31a.7.7,0,0,1,.16.14l.45.53a.55.55,0,0,0,.18.16l.53.31A.86.86,0,0,1,43,18.65Z"/><path class="cls-6" d="M45.71,17.71l-1.51.87a.82.82,0,0,1-1.08,0L42.68,18a.87.87,0,0,0-1.16,0l-1.1.63v.13l1.1-.63a.8.8,0,0,1,1.07.05l.44.53c.26.31.69.33,1.17.06l1.51-.88Z"/><polygon class="cls-5" points="40.42 18.57 39.89 18.26 39.89 18.39 40.42 18.7 40.42 18.57"/><path class="cls-4" d="M42,17.53a1,1,0,0,0-1,.1l-1.1.63.53.31,1.1-.63a1,1,0,0,1,1-.1Z"/></g><g class="cls-3"><path class="cls-4" d="M46.3,18.05l-1.52.87a.88.88,0,0,1-.9.09l.53.31a.9.9,0,0,0,.91-.09l1.51-.88Z"/><path class="cls-5" d="M44.15,19.3l-.44-.53a.55.55,0,0,0-.17-.14L43,18.32a.54.54,0,0,1,.16.14l.45.53a.9.9,0,0,0,.18.16l.54.3A.66.66,0,0,1,44.15,19.3Z"/><path class="cls-6" d="M46.83,18.35l-1.51.88a.81.81,0,0,1-1.08-.06l-.44-.53a.86.86,0,0,0-1.16-.05l-1.1.63v.13l1.09-.63a.8.8,0,0,1,1.07.05l.44.53c.26.31.69.33,1.17.06l1.51-.88Z"/><polygon class="cls-5" points="41.55 19.22 41.01 18.91 41.01 19.04 41.55 19.35 41.55 19.22"/><path class="cls-4" d="M43.09,18.18a1,1,0,0,0-1,.1l-1.1.63.53.31,1.1-.63a1,1,0,0,1,1-.1Z"/></g><g class="cls-3"><path class="cls-4" d="M47.42,18.69l-1.52.88a.91.91,0,0,1-.9.09l.54.31a.91.91,0,0,0,.9-.09L48,19Z"/><path class="cls-5" d="M45.27,20l-.44-.53a.55.55,0,0,0-.17-.14L44.13,19a.55.55,0,0,1,.17.14l.44.53a.84.84,0,0,0,.18.15l.54.31A.9.9,0,0,1,45.27,20Z"/><path class="cls-6" d="M48,19l-1.51.88c-.44.25-.83.23-1.07-.06l-.44-.53a.89.89,0,0,0-1.17-.06l-1.09.63V20l1.09-.63c.43-.25.83-.24,1.07.05l.44.53c.26.31.69.33,1.17.05L48,19.13Z"/><polygon class="cls-5" points="42.67 19.86 42.13 19.55 42.13 19.69 42.67 20 42.67 19.86"/><path class="cls-4" d="M44.21,18.83a1,1,0,0,0-1,.09l-1.1.64.54.3,1.09-.63a1,1,0,0,1,1-.09Z"/></g><g class="cls-3"><path class="cls-4" d="M48.54,19.34,47,20.21a.9.9,0,0,1-.91.09l.54.31a.89.89,0,0,0,.9-.09l1.51-.87Z"/><path class="cls-5" d="M46.39,20.59,46,20.06a.79.79,0,0,0-.17-.14l-.53-.31.17.14.44.53a.86.86,0,0,0,.18.16l.54.31A.7.7,0,0,1,46.39,20.59Z"/><path class="cls-6" d="M49.07,19.65l-1.51.87c-.44.25-.83.23-1.07-.05l-.44-.53c-.26-.31-.69-.33-1.17-.06l-1.09.63v.14L44.88,20a.82.82,0,0,1,1.07,0l.44.53a.88.88,0,0,0,1.17.06l1.51-.87Z"/><polygon class="cls-5" points="43.79 20.51 43.25 20.2 43.26 20.34 43.79 20.65 43.79 20.51"/><path class="cls-4" d="M45.33,19.48a1,1,0,0,0-1,.09l-1.1.63.54.31,1.09-.63a1,1,0,0,1,1-.1Z"/></g><g class="cls-3"><path class="cls-4" d="M49.66,20l-1.51.87a.9.9,0,0,1-.91.09l.54.31a.89.89,0,0,0,.9-.09l1.51-.87Z"/><path class="cls-5" d="M47.52,21.24l-.45-.53a.58.58,0,0,0-.17-.14l-.53-.31a.75.75,0,0,1,.17.14l.44.53a.7.7,0,0,0,.19.16l.53.31A.55.55,0,0,1,47.52,21.24Z"/><path class="cls-6" d="M50.19,20.3l-1.51.87c-.44.25-.83.23-1.07-.05l-.44-.54a.88.88,0,0,0-1.17,0l-1.09.63v.13L46,20.66a.8.8,0,0,1,1.07.05l.45.53c.25.31.69.33,1.16.06l1.51-.88Z"/><polygon class="cls-5" points="44.91 21.16 44.38 20.85 44.38 20.98 44.91 21.29 44.91 21.16"/><path class="cls-4" d="M46.45,20.12a1,1,0,0,0-1,.1l-1.09.63.53.31L46,20.53a1,1,0,0,1,1-.1Z"/></g><g class="cls-3"><path class="cls-4" d="M50.78,20.63l-1.51.88a.89.89,0,0,1-.9.09l.53.31a.88.88,0,0,0,.9-.09l1.51-.88Z"/><path class="cls-5" d="M48.64,21.89l-.45-.53a.52.52,0,0,0-.16-.14l-.54-.31a.55.55,0,0,1,.17.14l.44.53a.9.9,0,0,0,.19.15l.53.31A.65.65,0,0,1,48.64,21.89Z"/><path class="cls-6" d="M51.31,20.94l-1.51.88c-.44.25-.83.23-1.07-.06l-.44-.53a.89.89,0,0,0-1.17-.06L46,21.81v.13l1.09-.63c.44-.25.84-.23,1.07.05l.45.53c.26.31.69.33,1.16.05l1.51-.87Z"/><polygon class="cls-5" points="46.03 21.81 45.5 21.5 45.5 21.63 46.03 21.94 46.03 21.81"/><path class="cls-4" d="M47.58,20.77a1,1,0,0,0-1,.09l-1.09.64.53.31,1.09-.64a1,1,0,0,1,1-.09Z"/></g><g class="cls-3"><path class="cls-4" d="M51.9,21.28l-1.51.87a.91.91,0,0,1-.9.1l.53.3a.88.88,0,0,0,.9-.09l1.52-.87Z"/><path class="cls-5" d="M49.76,22.53,49.31,22a.52.52,0,0,0-.16-.14l-.54-.31a.46.46,0,0,1,.17.14l.44.53a.9.9,0,0,0,.19.15l.53.31A.55.55,0,0,1,49.76,22.53Z"/><path class="cls-6" d="M52.44,21.59l-1.52.87c-.44.26-.83.24-1.07-.05l-.44-.53a.88.88,0,0,0-1.16-.06l-1.1.63v.14l1.1-.63c.43-.25.83-.24,1.06.05l.45.52c.26.32.69.34,1.16.06l1.52-.87Z"/><polygon class="cls-5" points="47.15 22.45 46.62 22.14 46.62 22.28 47.15 22.59 47.15 22.45"/><path class="cls-4" d="M48.7,21.42a1,1,0,0,0-1,.09l-1.09.63.53.31,1.1-.63a1,1,0,0,1,1-.09Z"/></g><g class="cls-3"><path class="cls-4" d="M53,21.93l-1.51.87a.88.88,0,0,1-.9.09l.53.31a.88.88,0,0,0,.9-.09l1.52-.87Z"/><path class="cls-5" d="M50.88,23.18l-.45-.53a.7.7,0,0,0-.16-.14l-.53-.31a1.07,1.07,0,0,1,.16.14l.45.53a.55.55,0,0,0,.18.16l.53.31A.55.55,0,0,1,50.88,23.18Z"/><path class="cls-6" d="M53.56,22.24,52,23.11A.8.8,0,0,1,51,23.06l-.44-.53a.87.87,0,0,0-1.16-.06l-1.1.63v.14l1.1-.64c.43-.25.83-.23,1.06,0l.45.53a.87.87,0,0,0,1.16.06l1.52-.88Z"/><polygon class="cls-5" points="48.27 23.1 47.74 22.79 47.74 22.93 48.27 23.23 48.27 23.1"/><path class="cls-4" d="M49.82,22.06a1,1,0,0,0-1,.1l-1.09.63.53.31,1.1-.63a1,1,0,0,1,1-.1Z"/></g><g class="cls-3"><path class="cls-4" d="M54.14,22.58l-1.51.87a.88.88,0,0,1-.9.09l.53.31a.88.88,0,0,0,.9-.09l1.52-.88Z"/><path class="cls-5" d="M52,23.83l-.45-.53a.54.54,0,0,0-.16-.14l-.53-.31A.7.7,0,0,1,51,23l.45.53a.69.69,0,0,0,.18.16l.53.31A.69.69,0,0,1,52,23.83Z"/><path class="cls-6" d="M54.68,22.88l-1.52.88a.8.8,0,0,1-1.07-.05l-.44-.54a.87.87,0,0,0-1.16-.05l-1.1.63v.13l1.1-.63c.43-.25.83-.23,1.06.05l.45.53a.87.87,0,0,0,1.16.06L54.68,23Z"/><polygon class="cls-5" points="49.39 23.75 48.86 23.44 48.86 23.57 49.39 23.88 49.39 23.75"/><path class="cls-4" d="M50.94,22.71a1,1,0,0,0-1,.1l-1.09.63.53.31,1.1-.63a1,1,0,0,1,1-.1Z"/></g><g class="cls-3"><path class="cls-4" d="M54.51,22.78,53,23.66a.88.88,0,0,1-.9.09l.53.31a.9.9,0,0,0,.91-.09L55,23.09Z"/><path class="cls-5" d="M52.36,24l-.44-.53a.55.55,0,0,0-.17-.14l-.53-.31a.54.54,0,0,1,.16.14l.45.53a.9.9,0,0,0,.18.16l.54.3A.66.66,0,0,1,52.36,24Z"/><path class="cls-6" d="M55,23.09,53.53,24a.81.81,0,0,1-1.08-.06L52,23.38a.86.86,0,0,0-1.16-.05l-1.1.63v.13l1.09-.63a.8.8,0,0,1,1.07.05l.44.53c.26.31.69.33,1.17.06L55,23.22Z"/><polygon class="cls-5" points="49.76 23.96 49.22 23.65 49.22 23.78 49.76 24.09 49.76 23.96"/><path class="cls-4" d="M51.3,22.92a1,1,0,0,0-1,.1l-1.1.63.53.31,1.1-.63a1,1,0,0,1,1-.1Z"/></g><g class="cls-3"><path class="cls-4" d="M55.63,23.43l-1.52.88a.91.91,0,0,1-.9.09l.54.31a.91.91,0,0,0,.9-.09l1.51-.88Z"/><path class="cls-5" d="M53.48,24.69,53,24.16a.55.55,0,0,0-.17-.14l-.53-.31a.55.55,0,0,1,.17.14l.44.53a.84.84,0,0,0,.18.15l.54.31A.9.9,0,0,1,53.48,24.69Z"/><path class="cls-6" d="M56.16,23.74l-1.51.88c-.44.25-.83.23-1.07-.06L53.14,24A.89.89,0,0,0,52,24l-1.09.63v.14L52,24.11c.43-.25.83-.24,1.07.05l.44.53c.26.31.69.33,1.17,0l1.51-.87Z"/><polygon class="cls-5" points="50.88 24.61 50.34 24.3 50.34 24.43 50.88 24.74 50.88 24.61"/><path class="cls-4" d="M52.42,23.57a1,1,0,0,0-1,.09l-1.1.64.54.3L52,24a1,1,0,0,1,1-.09Z"/></g><g class="cls-3"><path class="cls-4" d="M56.75,24.08,55.24,25a.9.9,0,0,1-.91.09l.54.31a.89.89,0,0,0,.9-.09l1.51-.87Z"/><path class="cls-5" d="M54.6,25.33l-.44-.53a.79.79,0,0,0-.17-.14l-.53-.31.17.14.44.53a.86.86,0,0,0,.18.16l.54.31A.7.7,0,0,1,54.6,25.33Z"/><path class="cls-6" d="M57.28,24.39l-1.51.87c-.44.25-.83.23-1.07-.05l-.44-.53c-.26-.31-.69-.33-1.17-.06L52,25.25v.14l1.09-.64a.82.82,0,0,1,1.07.05l.44.53a.88.88,0,0,0,1.17.06l1.51-.87Z"/><polygon class="cls-5" points="52 25.25 51.46 24.94 51.47 25.08 52 25.39 52 25.25"/><path class="cls-4" d="M53.54,24.22a1,1,0,0,0-1,.09l-1.1.63.54.31,1.09-.63a1,1,0,0,1,1-.1Z"/></g><g class="cls-3"><path class="cls-4" d="M57.87,24.73l-1.51.87a.9.9,0,0,1-.91.09L56,26a.89.89,0,0,0,.9-.09L58.4,25Z"/><path class="cls-5" d="M55.73,26l-.45-.53a.58.58,0,0,0-.17-.14L54.58,25a.75.75,0,0,1,.17.14l.44.53a.7.7,0,0,0,.19.16l.53.31A.55.55,0,0,1,55.73,26Z"/><path class="cls-6" d="M58.4,25l-1.51.87c-.44.25-.83.23-1.07-.05l-.44-.54a.88.88,0,0,0-1.17-.05l-1.09.63V26l1.09-.63a.8.8,0,0,1,1.07.05l.45.53c.25.31.69.33,1.16.06l1.51-.88Z"/><polygon class="cls-5" points="53.12 25.9 52.59 25.59 52.59 25.72 53.12 26.03 53.12 25.9"/><path class="cls-4" d="M54.66,24.86a1,1,0,0,0-1,.1l-1.09.63.53.31,1.09-.63a1,1,0,0,1,1-.1Z"/></g><g class="cls-3"><path class="cls-4" d="M59,25.37l-1.51.88a.89.89,0,0,1-.9.09l.53.31a.88.88,0,0,0,.9-.09l1.51-.88Z"/><path class="cls-5" d="M56.85,26.63l-.45-.53a.52.52,0,0,0-.16-.14l-.54-.31a.55.55,0,0,1,.17.14l.44.53a.9.9,0,0,0,.19.15l.53.31A.65.65,0,0,1,56.85,26.63Z"/><path class="cls-6" d="M59.52,25.68,58,26.56c-.44.25-.83.23-1.07-.06L56.5,26a.89.89,0,0,0-1.17-.06l-1.09.64v.13l1.09-.63c.44-.25.84-.23,1.07.05l.45.53c.26.31.69.33,1.16.05l1.51-.87Z"/><polygon class="cls-5" points="54.24 26.55 53.71 26.24 53.71 26.37 54.24 26.68 54.24 26.55"/><path class="cls-4" d="M55.79,25.51a1,1,0,0,0-1,.09l-1.09.64.53.31,1.09-.64a1,1,0,0,1,1-.09Z"/></g><g class="cls-3"><path class="cls-4" d="M60.11,26l-1.51.87a.91.91,0,0,1-.9.1l.53.31a.91.91,0,0,0,.9-.1l1.52-.87Z"/><path class="cls-5" d="M58,27.27l-.45-.52a.52.52,0,0,0-.16-.14l-.54-.31a.46.46,0,0,1,.17.14l.44.53a.9.9,0,0,0,.19.15l.53.31A.55.55,0,0,1,58,27.27Z"/><path class="cls-6" d="M60.65,26.33l-1.52.87c-.44.26-.83.24-1.07-.05l-.44-.53a.88.88,0,0,0-1.16-.06l-1.1.63v.14l1.1-.63c.43-.25.83-.24,1.06.05l.45.52c.26.32.69.34,1.16.06l1.52-.87Z"/><polygon class="cls-5" points="55.36 27.19 54.83 26.88 54.83 27.02 55.36 27.33 55.36 27.19"/><path class="cls-4" d="M56.91,26.16a1,1,0,0,0-1,.09l-1.09.63.53.31,1.1-.63a1,1,0,0,1,1-.09Z"/></g><g class="cls-3"><path class="cls-4" d="M61.23,26.67l-1.51.87a.88.88,0,0,1-.9.09l.53.31a.88.88,0,0,0,.9-.09L61.77,27Z"/><path class="cls-5" d="M59.09,27.92l-.45-.53a1.07,1.07,0,0,0-.16-.14L58,26.94a1.07,1.07,0,0,1,.16.14l.45.53a.55.55,0,0,0,.18.16l.53.31A.55.55,0,0,1,59.09,27.92Z"/><path class="cls-6" d="M61.77,27l-1.52.87a.8.8,0,0,1-1.07-.05l-.44-.53a.87.87,0,0,0-1.16-.06l-1.1.63V28l1.1-.64c.43-.25.83-.23,1.06.05l.45.53a.87.87,0,0,0,1.16.06l1.52-.87Z"/><polygon class="cls-5" points="56.48 27.84 55.95 27.53 55.95 27.67 56.48 27.98 56.48 27.84"/><path class="cls-4" d="M58,26.8a1,1,0,0,0-1,.1L56,27.53l.53.31,1.1-.63a1,1,0,0,1,1-.1Z"/></g><g class="cls-3"><path class="cls-4" d="M62.35,27.32l-1.51.87a.88.88,0,0,1-.9.09l.53.31a.88.88,0,0,0,.9-.09l1.52-.87Z"/><path class="cls-5" d="M60.21,28.57,59.76,28a.54.54,0,0,0-.16-.14l-.53-.31a.7.7,0,0,1,.16.14l.45.53a.69.69,0,0,0,.18.16l.53.31A.69.69,0,0,1,60.21,28.57Z"/><path class="cls-6" d="M62.89,27.63l-1.52.87a.8.8,0,0,1-1.07-.05l-.44-.54a.87.87,0,0,0-1.16-.05l-1.1.63v.13L58.7,28c.43-.25.83-.23,1.06.05l.45.53a.87.87,0,0,0,1.16.06l1.52-.88Z"/><polygon class="cls-5" points="57.6 28.49 57.07 28.18 57.07 28.31 57.6 28.62 57.6 28.49"/><path class="cls-4" d="M59.15,27.45a1,1,0,0,0-1,.1l-1.09.63.53.31,1.1-.63a1,1,0,0,1,1-.1Z"/></g><g class="cls-3"><path class="cls-4" d="M63.48,28,62,28.84a.88.88,0,0,1-.9.09l.53.31a.91.91,0,0,0,.9-.09L64,28.27Z"/><path class="cls-5" d="M61.33,29.22l-.45-.53a.43.43,0,0,0-.16-.14l-.53-.31a.52.52,0,0,1,.16.14l.45.53a.65.65,0,0,0,.18.15l.53.31A.84.84,0,0,1,61.33,29.22Z"/><path class="cls-6" d="M64,28.27l-1.52.88a.79.79,0,0,1-1.07-.06L61,28.56a.88.88,0,0,0-1.16-.06l-1.1.64v.13l1.1-.63c.43-.25.83-.23,1.06.05l.45.53c.26.31.69.33,1.17.05L64,28.4Z"/><polygon class="cls-5" points="58.72 29.14 58.19 28.83 58.19 28.96 58.72 29.27 58.72 29.14"/><path class="cls-4" d="M60.27,28.1a1,1,0,0,0-1,.09l-1.1.64.53.31,1.1-.64a1,1,0,0,1,1-.09Z"/></g><g class="cls-3"><path class="cls-4" d="M64.6,28.61l-1.52.87a.88.88,0,0,1-.9.09l.53.31a.9.9,0,0,0,.91-.09l1.51-.87Z"/><path class="cls-5" d="M62.45,29.86,62,29.33l-.17-.14-.53-.31a.57.57,0,0,1,.16.15l.45.52a.55.55,0,0,0,.18.16l.53.31A.86.86,0,0,1,62.45,29.86Z"/><path class="cls-6" d="M65.13,28.92l-1.51.87c-.44.26-.84.24-1.08-.05l-.44-.53a.87.87,0,0,0-1.16-.06l-1.1.63v.14l1.1-.64a.82.82,0,0,1,1.07,0l.44.53c.26.31.69.33,1.17.06l1.51-.87Z"/><polygon class="cls-5" points="59.84 29.78 59.31 29.47 59.31 29.61 59.84 29.92 59.84 29.78"/><path class="cls-4" d="M61.39,28.75a1,1,0,0,0-1,.09l-1.1.63.53.31,1.1-.63a1,1,0,0,1,1-.09Z"/></g><g class="cls-3"><path class="cls-4" d="M65.72,29.26l-1.52.87a.88.88,0,0,1-.9.09l.53.31a.9.9,0,0,0,.91-.09l1.51-.87Z"/><path class="cls-5" d="M63.57,30.51,63.13,30a.75.75,0,0,0-.17-.14l-.53-.31a.54.54,0,0,1,.16.14l.45.53a.67.67,0,0,0,.18.16l.54.31A.7.7,0,0,1,63.57,30.51Z"/><path class="cls-6" d="M66.25,29.57l-1.51.87a.82.82,0,0,1-1.08-.05l-.43-.54a.88.88,0,0,0-1.17-.05L61,30.43v.13l1.09-.63a.8.8,0,0,1,1.07.05l.44.53c.26.31.69.33,1.17.06l1.51-.88Z"/><polygon class="cls-5" points="60.97 30.43 60.43 30.12 60.43 30.25 60.97 30.56 60.97 30.43"/><path class="cls-4" d="M62.51,29.39a1,1,0,0,0-1,.1l-1.1.63.54.31,1.09-.63a1,1,0,0,1,1-.1Z"/></g><g class="cls-3"><path class="cls-4" d="M66.84,29.9l-1.51.88a.9.9,0,0,1-.91.09l.54.31a.89.89,0,0,0,.9-.09l1.51-.88Z"/><path class="cls-5" d="M64.69,31.16l-.44-.53a.55.55,0,0,0-.17-.14l-.53-.31a.55.55,0,0,1,.17.14l.44.53a.63.63,0,0,0,.18.15l.54.31A.9.9,0,0,1,64.69,31.16Z"/><path class="cls-6" d="M67.37,30.21l-1.51.88c-.44.25-.83.23-1.07-.06l-.44-.53a.89.89,0,0,0-1.17-.06l-1.09.64v.13l1.09-.63a.8.8,0,0,1,1.07.05l.44.53c.26.31.69.33,1.17.06l1.51-.88Z"/><polygon class="cls-5" points="62.09 31.08 61.55 30.77 61.55 30.9 62.09 31.21 62.09 31.08"/><path class="cls-4" d="M63.63,30a1,1,0,0,0-1,.1l-1.1.63.54.31,1.09-.64a1,1,0,0,1,1-.09Z"/></g><g class="cls-3"><path class="cls-4" d="M68,30.55l-1.51.88a.93.93,0,0,1-.91.09l.54.31a.91.91,0,0,0,.9-.1l1.51-.87Z"/><path class="cls-5" d="M65.81,31.81l-.44-.53a.46.46,0,0,0-.17-.14l-.53-.31a.55.55,0,0,1,.17.14l.44.53a.9.9,0,0,0,.19.15L66,32A.9.9,0,0,1,65.81,31.81Z"/><path class="cls-6" d="M68.49,30.86,67,31.73c-.44.26-.83.24-1.07-.05l-.44-.53a.89.89,0,0,0-1.17-.06l-1.09.63v.14l1.09-.63c.43-.25.83-.24,1.07.05l.44.53a.87.87,0,0,0,1.17.05L68.49,31Z"/><polygon class="cls-5" points="63.21 31.72 62.67 31.41 62.67 31.55 63.21 31.86 63.21 31.72"/><path class="cls-4" d="M64.75,30.69a1,1,0,0,0-1,.09l-1.1.63.54.31,1.09-.63a1,1,0,0,1,1-.09Z"/></g><g class="cls-3"><path class="cls-4" d="M69.08,31.2l-1.51.87a.9.9,0,0,1-.91.09l.54.31a.88.88,0,0,0,.9-.09l1.51-.87Z"/><path class="cls-5" d="M66.94,32.45l-.45-.53a1.07,1.07,0,0,0-.16-.14l-.54-.31.17.14.44.53a.7.7,0,0,0,.19.16l.53.31A.55.55,0,0,1,66.94,32.45Z"/><path class="cls-6" d="M69.61,31.51l-1.51.87c-.44.25-.83.23-1.07-.05l-.44-.53c-.26-.31-.69-.33-1.17-.06l-1.09.63v.14l1.09-.64a.8.8,0,0,1,1.07.05l.45.53c.25.31.69.33,1.16.06l1.51-.87Z"/><polygon class="cls-5" points="64.33 32.37 63.8 32.06 63.8 32.2 64.33 32.51 64.33 32.37"/><path class="cls-4" d="M65.88,31.33a1,1,0,0,0-1,.1l-1.09.63.53.31,1.09-.63a1,1,0,0,1,1-.1Z"/></g><g class="cls-3"><path class="cls-4" d="M70.2,31.85l-1.51.87a.89.89,0,0,1-.9.09l.53.31a.88.88,0,0,0,.9-.09l1.51-.87Z"/><path class="cls-5" d="M68.06,33.1l-.45-.53a.7.7,0,0,0-.16-.14l-.54-.31a.75.75,0,0,1,.17.14l.44.53a.7.7,0,0,0,.19.16l.53.31A.69.69,0,0,1,68.06,33.1Z"/><path class="cls-6" d="M70.73,32.16,69.22,33c-.44.25-.83.23-1.07-.05l-.44-.54a.88.88,0,0,0-1.17,0L65.45,33v.13l1.09-.63c.44-.25.84-.23,1.07,0l.45.53a.87.87,0,0,0,1.16.06l1.51-.88Z"/><polygon class="cls-5" points="65.45 33.02 64.92 32.71 64.92 32.84 65.45 33.15 65.45 33.02"/><path class="cls-4" d="M67,32a1,1,0,0,0-1,.1l-1.09.63.53.31,1.09-.63a1,1,0,0,1,1-.1Z"/></g><g class="cls-3"><path class="cls-4" d="M71.32,32.49l-1.51.88a.89.89,0,0,1-.9.09l.53.31a.88.88,0,0,0,.9-.09l1.52-.88Z"/><path class="cls-5" d="M69.18,33.75l-.45-.53a.52.52,0,0,0-.16-.14L68,32.77a.46.46,0,0,1,.17.14l.44.53a.9.9,0,0,0,.19.15l.53.31A.65.65,0,0,1,69.18,33.75Z"/><path class="cls-6" d="M71.86,32.8l-1.52.88a.79.79,0,0,1-1.07-.06l-.44-.53A.88.88,0,0,0,67.67,33l-1.1.64v.13l1.1-.63c.43-.25.83-.23,1.06,0l.45.53c.26.31.69.33,1.16,0l1.52-.87Z"/><polygon class="cls-5" points="66.57 33.67 66.04 33.36 66.04 33.49 66.57 33.8 66.57 33.67"/><path class="cls-4" d="M68.12,32.63a1,1,0,0,0-1,.09L66,33.36l.53.31,1.1-.64a1,1,0,0,1,1-.09Z"/></g><g class="cls-3"><path class="cls-4" d="M72.44,33.14,70.93,34a.88.88,0,0,1-.9.09l.53.31a.88.88,0,0,0,.9-.09L73,33.45Z"/><path class="cls-5" d="M70.3,34.39l-.45-.52a.75.75,0,0,0-.16-.15l-.53-.3a.52.52,0,0,1,.16.14l.45.52a.55.55,0,0,0,.18.16l.53.31A.55.55,0,0,1,70.3,34.39Z"/><path class="cls-6" d="M73,33.45l-1.52.87a.78.78,0,0,1-1.07,0L70,33.74a.87.87,0,0,0-1.16-.06l-1.1.63v.14l1.1-.63c.43-.25.83-.24,1.06,0l.45.52a.87.87,0,0,0,1.16.06L73,33.58Z"/><polygon class="cls-5" points="67.69 34.31 67.16 34 67.16 34.14 67.69 34.45 67.69 34.31"/><path class="cls-4" d="M69.24,33.28a1,1,0,0,0-1,.09L67.16,34l.53.31,1.1-.63a1,1,0,0,1,1-.09Z"/></g><g class="cls-3"><path class="cls-4" d="M73.56,33.79l-1.51.87a.88.88,0,0,1-.9.09l.53.31a.88.88,0,0,0,.9-.09l1.52-.87Z"/><path class="cls-5" d="M71.42,35,71,34.51a.54.54,0,0,0-.16-.14l-.53-.31a.7.7,0,0,1,.16.14l.45.53a.55.55,0,0,0,.18.16l.53.31A.67.67,0,0,1,71.42,35Z"/><path class="cls-6" d="M74.1,34.1,72.58,35a.8.8,0,0,1-1.07,0l-.44-.54a.87.87,0,0,0-1.16-.05l-1.1.63v.13l1.1-.63c.43-.25.83-.23,1.06,0l.45.53a.87.87,0,0,0,1.16.06l1.52-.88Z"/><polygon class="cls-5" points="68.81 34.96 68.28 34.65 68.28 34.78 68.81 35.09 68.81 34.96"/><path class="cls-4" d="M70.36,33.92a1,1,0,0,0-1,.1l-1.09.63.53.31,1.1-.63a1,1,0,0,1,1-.1Z"/></g><g class="cls-3"><path class="cls-4" d="M74.69,34.43l-1.52.88a.88.88,0,0,1-.9.09l.53.31a.88.88,0,0,0,.9-.09l1.52-.88Z"/><path class="cls-5" d="M72.54,35.69l-.44-.53a.55.55,0,0,0-.17-.14l-.53-.31a.7.7,0,0,1,.16.14l.45.53a.69.69,0,0,0,.18.16l.53.3A.63.63,0,0,1,72.54,35.69Z"/><path class="cls-6" d="M75.22,34.74l-1.52.88a.79.79,0,0,1-1.07-.06L72.19,35A.87.87,0,0,0,71,35l-1.1.63v.13l1.1-.63a.8.8,0,0,1,1.07,0l.44.53c.26.31.69.33,1.17.06l1.51-.88Z"/><polygon class="cls-5" points="69.93 35.61 69.4 35.3 69.4 35.43 69.93 35.74 69.93 35.61"/><path class="cls-4" d="M71.48,34.57a1,1,0,0,0-1,.1l-1.1.63.53.31L71,35a1,1,0,0,1,1-.1Z"/></g><g class="cls-3"><path class="cls-4" d="M75.81,35.08,74.29,36a.91.91,0,0,1-.9.09l.53.31a.93.93,0,0,0,.91-.09l1.51-.88Z"/><path class="cls-5" d="M73.66,36.34l-.44-.53a.55.55,0,0,0-.17-.14l-.53-.31a.43.43,0,0,1,.16.14l.45.53a.65.65,0,0,0,.18.15l.53.31Z"/><path class="cls-6" d="M76.34,35.39l-1.51.88c-.44.25-.84.23-1.08-.06l-.44-.53a.88.88,0,0,0-1.16-.06l-1.1.63v.14l1.1-.63c.43-.25.83-.24,1.07.05l.44.53c.26.31.69.33,1.17,0l1.51-.87Z"/><polygon class="cls-5" points="71.05 36.26 70.52 35.95 70.52 36.08 71.06 36.39 71.05 36.26"/><path class="cls-4" d="M72.6,35.22a1,1,0,0,0-1,.09l-1.1.64.53.3,1.1-.63a1,1,0,0,1,1-.09Z"/></g><g class="cls-3"><path class="cls-4" d="M76.93,35.73l-1.52.87a.88.88,0,0,1-.9.09L75,37a.9.9,0,0,0,.91-.09L77.46,36Z"/><path class="cls-5" d="M74.78,37l-.44-.53-.17-.14L73.64,36a.73.73,0,0,1,.16.14l.45.53a.67.67,0,0,0,.18.16l.54.31A.7.7,0,0,1,74.78,37Z"/><path class="cls-6" d="M77.46,36,76,36.91a.82.82,0,0,1-1.08,0l-.43-.53a.88.88,0,0,0-1.17-.06l-1.09.63V37l1.09-.64a.82.82,0,0,1,1.07.05l.44.53c.26.31.69.33,1.17.06l1.51-.87Z"/><polygon class="cls-5" points="72.17 36.9 71.64 36.59 71.64 36.73 72.18 37.04 72.17 36.9"/><path class="cls-4" d="M73.72,35.87a1,1,0,0,0-1,.09l-1.1.63.54.31,1.09-.63a.94.94,0,0,1,1-.09Z"/></g><g class="cls-3"><polygon class="cls-5" points="22.1 41.69 22.1 41.82 21.57 41.51 21.57 41.38 22.1 41.69"/><path class="cls-7" d="M23.09,40.51a2.64,2.64,0,0,0,.55-.47,3.37,3.37,0,0,0,.49-.77l0-.05.44-1,0-.06a3.56,3.56,0,0,1,.53-.83,2.55,2.55,0,0,1,.6-.51l1.1-.63.53.31-1.09.63a2.36,2.36,0,0,0-.6.51,3.26,3.26,0,0,0-.53.83l0,.06-.44,1,0,0a3.37,3.37,0,0,1-.49.77,2.32,2.32,0,0,1-.55.46l-1.52.88-.53-.31Z"/><path class="cls-6" d="M26.28,37.09a3,3,0,0,0-1.16,1.4l-.44,1a2.68,2.68,0,0,1-1.06,1.28l-1.52.88v.13l1.52-.88a3,3,0,0,0,1.15-1.39l.44-1a2.78,2.78,0,0,1,1.07-1.29l1.09-.63v-.13Z"/></g><g class="cls-3"><polygon class="cls-5" points="20.9 41 20.9 41.13 20.37 40.82 20.37 40.69 20.9 41"/><path class="cls-8" d="M21.89,39.81a2.32,2.32,0,0,0,.55-.46,3.37,3.37,0,0,0,.49-.77l0,0,.44-1,0-.06A3.39,3.39,0,0,1,24,36.6a2.2,2.2,0,0,1,.6-.51l1.09-.63.53.31-1.09.63a2.36,2.36,0,0,0-.6.51,3.1,3.1,0,0,0-.53.83l0,.06-.44,1,0,0a2.71,2.71,0,0,1-.49.78,2.32,2.32,0,0,1-.55.46L20.9,41l-.53-.31Z"/><path class="cls-6" d="M25.08,36.4a3,3,0,0,0-1.16,1.4l-.44,1a2.72,2.72,0,0,1-1.06,1.28L20.9,41v.13l1.52-.88a3,3,0,0,0,1.16-1.4l.44-1a2.72,2.72,0,0,1,1.06-1.28l1.09-.63v-.13Z"/></g><g class="cls-3"><polygon class="cls-5" points="19.7 40.31 19.7 40.44 19.17 40.13 19.17 40 19.7 40.31"/><path class="cls-9" d="M20.69,39.12a2.32,2.32,0,0,0,.55-.46,3,3,0,0,0,.49-.78l0,0,.44-1,0-.06a3.32,3.32,0,0,1,.53-.84,2.53,2.53,0,0,1,.6-.5l1.09-.63.54.31-1.1.63a2.32,2.32,0,0,0-.6.5,3.42,3.42,0,0,0-.53.84l0,.05-.45,1,0,0a2.71,2.71,0,0,1-.49.78,2.14,2.14,0,0,1-.55.46l-1.52.88L19.17,40Z"/><path class="cls-6" d="M23.88,35.71a3,3,0,0,0-1.15,1.39l-.45,1a2.72,2.72,0,0,1-1.06,1.28l-1.52.88v.13l1.52-.88a3,3,0,0,0,1.16-1.4l.44-1a2.68,2.68,0,0,1,1.06-1.28L25,35.2v-.12Z"/></g><g class="cls-3"><polygon class="cls-5" points="18.5 39.62 18.5 39.74 17.97 39.44 17.97 39.31 18.5 39.62"/><path class="cls-10" d="M19.49,38.43A2.14,2.14,0,0,0,20,38a2.86,2.86,0,0,0,.49-.78l0,0,.44-1,0-.05a3.15,3.15,0,0,1,.53-.84,2.32,2.32,0,0,1,.6-.5l1.09-.63.54.3-1.1.64a2.49,2.49,0,0,0-.6.5,3.42,3.42,0,0,0-.53.84l0,0-.44,1,0,0a3.15,3.15,0,0,1-.5.78,2.14,2.14,0,0,1-.55.46l-1.52.88L18,39.31Z"/><path class="cls-6" d="M22.68,35a2.92,2.92,0,0,0-1.15,1.39l-.44,1A2.78,2.78,0,0,1,20,38.74l-1.52.88v.12L20,38.87a3,3,0,0,0,1.16-1.4l.44-1a2.75,2.75,0,0,1,1.06-1.29l1.1-.63v-.13Z"/></g><g class="cls-3"><polygon class="cls-5" points="17.31 38.92 17.31 39.05 16.77 38.74 16.77 38.62 17.31 38.92"/><path class="cls-11" d="M18.29,37.74a2.14,2.14,0,0,0,.55-.46,3.15,3.15,0,0,0,.5-.78l0,0,.44-1,0,0a3.42,3.42,0,0,1,.53-.84A2.49,2.49,0,0,1,21,34l1.1-.64.53.31-1.1.64a2.49,2.49,0,0,0-.6.5,3.42,3.42,0,0,0-.53.84l0,0-.44,1,0,.05a3.16,3.16,0,0,1-.49.77,2.15,2.15,0,0,1-.55.47l-1.52.88-.54-.31Z"/><path class="cls-6" d="M21.48,34.33a3,3,0,0,0-1.15,1.39l-.44,1a2.75,2.75,0,0,1-1.06,1.29l-1.52.88v.12l1.52-.87A3,3,0,0,0,20,36.78l.44-1a2.75,2.75,0,0,1,1.06-1.29l1.1-.63v-.13Z"/></g><g class="cls-3"><polygon class="cls-5" points="16.11 38.23 16.11 38.36 15.58 38.05 15.58 37.92 16.11 38.23"/><path class="cls-12" d="M17.1,37.05a2.15,2.15,0,0,0,.54-.47,3.09,3.09,0,0,0,.5-.77l0-.05.44-1,0-.06a3.56,3.56,0,0,1,.53-.83,2.81,2.81,0,0,1,.6-.51l1.1-.63.53.31-1.09.63a2.39,2.39,0,0,0-.6.51,3.59,3.59,0,0,0-.54.83l0,.06-.44,1,0,0a3.37,3.37,0,0,1-.49.77,2.64,2.64,0,0,1-.55.47l-1.52.87-.53-.31Z"/><path class="cls-6" d="M20.29,33.63A3,3,0,0,0,19.13,35l-.44,1a2.75,2.75,0,0,1-1.06,1.29l-1.52.87v.13l1.52-.88a2.92,2.92,0,0,0,1.15-1.39l.44-1a2.78,2.78,0,0,1,1.07-1.29l1.09-.63V33Z"/></g><g class="cls-3"><polygon class="cls-5" points="14.91 37.54 14.91 37.67 14.38 37.36 14.38 37.23 14.91 37.54"/><path class="cls-13" d="M15.9,36.35a2.32,2.32,0,0,0,.55-.46,3.37,3.37,0,0,0,.49-.77l0,0,.44-1,0-.06a3.29,3.29,0,0,1,.54-.83,2.2,2.2,0,0,1,.6-.51L19.65,32l.53.31-1.09.63a2.36,2.36,0,0,0-.6.51,3.1,3.1,0,0,0-.53.83l0,.06-.44,1,0,0a3.06,3.06,0,0,1-.49.77,2.32,2.32,0,0,1-.55.46l-1.52.88-.53-.31Z"/><path class="cls-6" d="M19.09,32.94a3,3,0,0,0-1.16,1.4l-.44,1a2.68,2.68,0,0,1-1.06,1.28l-1.52.88v.13l1.52-.88a3,3,0,0,0,1.15-1.39l.45-1a2.7,2.7,0,0,1,1.06-1.29l1.09-.63v-.13Z"/></g><g class="cls-3"><polygon class="cls-5" points="13.71 36.85 13.71 36.98 13.18 36.67 13.18 36.54 13.71 36.85"/><path class="cls-14" d="M14.7,35.66a2.32,2.32,0,0,0,.55-.46,3.23,3.23,0,0,0,.49-.78l0,0,.44-1,0-.06a3.1,3.1,0,0,1,.53-.83,2.36,2.36,0,0,1,.6-.51l1.09-.63.53.31-1.09.63a2.36,2.36,0,0,0-.6.51,3.1,3.1,0,0,0-.53.83l0,.06-.44,1,0,0a2.71,2.71,0,0,1-.49.78,2.14,2.14,0,0,1-.55.46l-1.52.88-.53-.31Z"/><path class="cls-6" d="M17.89,32.25a3,3,0,0,0-1.16,1.4l-.44,1A2.72,2.72,0,0,1,15.23,36l-1.52.88V37l1.52-.88a3,3,0,0,0,1.16-1.4l.44-1a2.72,2.72,0,0,1,1.06-1.28L19,31.75v-.13Z"/></g><g class="cls-3"><polygon class="cls-5" points="12.51 36.16 12.51 36.29 11.98 35.98 11.98 35.85 12.51 36.16"/><path class="cls-15" d="M13.5,35a2.32,2.32,0,0,0,.55-.46,2.71,2.71,0,0,0,.49-.78l0,0,.44-1,0,0a3.15,3.15,0,0,1,.53-.84,2.32,2.32,0,0,1,.6-.5l1.09-.63.54.31-1.1.63a2.49,2.49,0,0,0-.6.5,3.42,3.42,0,0,0-.53.84l0,.05-.44,1,0,0a3.15,3.15,0,0,1-.5.78,2.14,2.14,0,0,1-.55.46l-1.52.88L12,35.85Z"/><path class="cls-6" d="M16.69,31.56A3,3,0,0,0,15.54,33l-.44,1A2.78,2.78,0,0,1,14,35.28l-1.52.88v.13L14,35.41A3,3,0,0,0,15.19,34l.44-1a2.68,2.68,0,0,1,1.06-1.28l1.1-.64v-.12Z"/></g><g class="cls-3"><polygon class="cls-5" points="11.32 35.47 11.32 35.59 10.78 35.28 10.78 35.16 11.32 35.47"/><path class="cls-16" d="M12.3,34.28a2.14,2.14,0,0,0,.55-.46,2.86,2.86,0,0,0,.49-.78l0,0,.44-1,0-.05a3.42,3.42,0,0,1,.53-.84,2.49,2.49,0,0,1,.6-.5l1.1-.64.53.31-1.1.64a2.49,2.49,0,0,0-.6.5,3.42,3.42,0,0,0-.53.84l0,0-.44,1,0,.05a3.15,3.15,0,0,1-.5.78,2.1,2.1,0,0,1-.54.46l-1.52.88-.54-.31Z"/><path class="cls-6" d="M15.49,30.87a3,3,0,0,0-1.15,1.39l-.44,1a2.7,2.7,0,0,1-1.06,1.29l-1.52.88v.12l1.52-.87A3,3,0,0,0,14,33.32l.44-1A2.75,2.75,0,0,1,15.49,31l1.1-.63v-.13Z"/></g><g class="cls-3"><polygon class="cls-5" points="10.12 34.77 10.12 34.9 9.59 34.59 9.59 34.47 10.12 34.77"/><path class="cls-17" d="M11.1,33.59a1.86,1.86,0,0,0,.55-.47,2.92,2.92,0,0,0,.5-.77l0-.05.44-1,0-.05a3.42,3.42,0,0,1,.53-.84,2.49,2.49,0,0,1,.6-.5l1.1-.64.53.31-1.09.63a2.39,2.39,0,0,0-.6.51,3.18,3.18,0,0,0-.54.84l0,.05-.44,1,0,0a3.37,3.37,0,0,1-.49.77,2.15,2.15,0,0,1-.55.47l-1.52.87-.53-.3Z"/><path class="cls-6" d="M14.3,30.17a3,3,0,0,0-1.16,1.4l-.44,1a2.75,2.75,0,0,1-1.06,1.29l-1.52.87v.13L11.64,34a2.92,2.92,0,0,0,1.15-1.39l.44-1A2.77,2.77,0,0,1,14.3,30.3l1.09-.63v-.13Z"/></g><g class="cls-3"><polygon class="cls-5" points="8.92 34.08 8.92 34.21 8.39 33.9 8.39 33.77 8.92 34.08"/><path class="cls-18" d="M9.91,32.9a2.64,2.64,0,0,0,.55-.47,3.37,3.37,0,0,0,.49-.77l0-.05.44-1,0-.06a3.56,3.56,0,0,1,.53-.83,2.81,2.81,0,0,1,.6-.51l1.1-.63.53.31-1.09.63a2.36,2.36,0,0,0-.6.51,3.26,3.26,0,0,0-.53.83l0,.06-.44,1,0,0a3.37,3.37,0,0,1-.49.77,2.64,2.64,0,0,1-.55.47l-1.52.87-.53-.31Z"/><path class="cls-6" d="M13.1,29.48a3,3,0,0,0-1.16,1.4l-.44,1a2.75,2.75,0,0,1-1.06,1.29l-1.52.87v.13l1.52-.88a2.92,2.92,0,0,0,1.15-1.39l.44-1a2.78,2.78,0,0,1,1.07-1.29L14.19,29v-.13Z"/></g><g class="cls-3"><polygon class="cls-5" points="7.72 33.39 7.72 33.52 7.19 33.21 7.19 33.08 7.72 33.39"/><path class="cls-19" d="M8.71,32.2a2.32,2.32,0,0,0,.55-.46A3.37,3.37,0,0,0,9.75,31l0,0,.44-1,0-.06a3.26,3.26,0,0,1,.53-.83,2.36,2.36,0,0,1,.6-.51l1.09-.63.53.31-1.09.63a2.36,2.36,0,0,0-.6.51,3.1,3.1,0,0,0-.53.83l0,.06-.44,1,0,.05a2.8,2.8,0,0,1-.49.77,2.32,2.32,0,0,1-.55.46l-1.52.88-.53-.31Z"/><path class="cls-6" d="M11.9,28.79a3,3,0,0,0-1.16,1.4l-.44,1a2.68,2.68,0,0,1-1.06,1.28l-1.52.88v.13l1.52-.88a3,3,0,0,0,1.16-1.39l.44-1.05a2.72,2.72,0,0,1,1.06-1.28L13,28.29v-.13Z"/></g><g class="cls-3"><polygon class="cls-5" points="6.52 32.7 6.52 32.83 5.99 32.52 5.99 32.39 6.52 32.7"/><path class="cls-20" d="M7.51,31.51a2.32,2.32,0,0,0,.55-.46,2.71,2.71,0,0,0,.49-.78l0,0,.44-1,0-.06a3.1,3.1,0,0,1,.53-.83,2.36,2.36,0,0,1,.6-.51l1.09-.63.54.31-1.1.63a2.55,2.55,0,0,0-.6.51,3.36,3.36,0,0,0-.53.83l0,.06-.44,1,0,0a2.71,2.71,0,0,1-.49.78,2.14,2.14,0,0,1-.55.46l-1.52.88L6,32.39Z"/><path class="cls-6" d="M10.7,28.1a3,3,0,0,0-1.15,1.4l-.44,1A2.8,2.8,0,0,1,8,31.82l-1.52.88v.13L8,32a3,3,0,0,0,1.16-1.4l.44-1a2.72,2.72,0,0,1,1.06-1.28l1.1-.64v-.12Z"/></g><g class="cls-3"><polygon class="cls-5" points="5.33 32.01 5.33 32.13 4.79 31.83 4.79 31.7 5.33 32.01"/><path class="cls-21" d="M6.31,30.82a2.14,2.14,0,0,0,.55-.46,2.86,2.86,0,0,0,.49-.78l0,0,.45-1,0,0a3.42,3.42,0,0,1,.53-.84,2.32,2.32,0,0,1,.6-.5l1.1-.63.53.31-1.1.63a2.49,2.49,0,0,0-.6.5,3.42,3.42,0,0,0-.53.84l0,.05-.44,1,0,.05a3.15,3.15,0,0,1-.5.78,2,2,0,0,1-.55.46L5.33,32l-.54-.31Z"/><path class="cls-6" d="M9.5,27.41A3,3,0,0,0,8.35,28.8l-.44,1a2.72,2.72,0,0,1-1.07,1.29L5.33,32v.13l1.52-.88A3,3,0,0,0,8,29.86l.44-1A2.68,2.68,0,0,1,9.5,27.54l1.1-.64v-.12Z"/></g><g class="cls-3"><polygon class="cls-5" points="4.13 31.32 4.13 31.44 3.6 31.13 3.59 31.01 4.13 31.32"/><path class="cls-22" d="M5.11,30.13a2.14,2.14,0,0,0,.55-.46,3.15,3.15,0,0,0,.5-.78l0-.05.44-1,0-.05a3.42,3.42,0,0,1,.53-.84,2.49,2.49,0,0,1,.6-.5l1.1-.64.53.31-1.1.64a2.28,2.28,0,0,0-.59.5,3.18,3.18,0,0,0-.54.84l0,.05-.44,1,0,.05A3.43,3.43,0,0,1,6.2,30a2.32,2.32,0,0,1-.55.46l-1.52.88L3.59,31Z"/><path class="cls-6" d="M8.3,26.72a3,3,0,0,0-1.15,1.39l-.44,1a2.75,2.75,0,0,1-1.06,1.29l-1.52.88v.12l1.52-.87a3,3,0,0,0,1.15-1.4l.44-1A2.75,2.75,0,0,1,8.3,26.84l1.1-.63v-.13Z"/></g><g class="cls-3"><polygon class="cls-5" points="2.93 30.62 2.93 30.75 2.4 30.44 2.4 30.32 2.93 30.62"/><path class="cls-23" d="M3.92,29.44A2.15,2.15,0,0,0,4.47,29,3.37,3.37,0,0,0,5,28.2l0-.05.44-1,0-.05A3.42,3.42,0,0,1,6,26.22a2.81,2.81,0,0,1,.6-.51l1.1-.63.53.31L7.11,26a2.58,2.58,0,0,0-.6.51,3.15,3.15,0,0,0-.53.84l0,.05-.44,1,0,.05a3.37,3.37,0,0,1-.49.77,2.15,2.15,0,0,1-.55.47l-1.52.87-.53-.31Z"/><path class="cls-6" d="M7.11,26A3,3,0,0,0,6,27.42l-.44,1a2.75,2.75,0,0,1-1.06,1.29l-1.52.87v.13l1.52-.88A2.92,2.92,0,0,0,5.6,28.48l.44-1a2.83,2.83,0,0,1,1.07-1.29l1.09-.63v-.13Z"/></g><g class="cls-3"><polygon class="cls-5" points="1.73 29.93 1.73 30.06 1.2 29.75 1.2 29.62 1.73 29.93"/><path class="cls-24" d="M2.72,28.75a2.64,2.64,0,0,0,.55-.47,3.37,3.37,0,0,0,.49-.77l0-.05.44-1,0-.06a3.29,3.29,0,0,1,.54-.83,2.2,2.2,0,0,1,.6-.51l1.09-.63L7,24.7l-1.09.63a2.36,2.36,0,0,0-.6.51,3.26,3.26,0,0,0-.53.83l0,.06-.44,1,0,.05a2.8,2.8,0,0,1-.49.77,2.64,2.64,0,0,1-.55.47l-1.52.87-.53-.31Z"/><path class="cls-6" d="M5.91,25.33a3,3,0,0,0-1.16,1.4l-.44,1a2.75,2.75,0,0,1-1.06,1.29l-1.52.87v.13l1.52-.88a3,3,0,0,0,1.16-1.39l.44-1a2.7,2.7,0,0,1,1.06-1.29L7,24.83V24.7Z"/></g><g class="cls-3"><polygon class="cls-5" points="0.53 29.24 0.53 29.37 0 29.06 0 28.93 0.53 29.24"/><path class="cls-25" d="M1.52,28.05a2.32,2.32,0,0,0,.55-.46,3.06,3.06,0,0,0,.49-.77l0-.05.44-1,0-.06a3.1,3.1,0,0,1,.53-.83,2.36,2.36,0,0,1,.6-.51l1.09-.63.54.31-1.1.63a2.36,2.36,0,0,0-.6.51,3.36,3.36,0,0,0-.53.83l0,.06-.45,1,0,.05a2.8,2.8,0,0,1-.49.77,2.14,2.14,0,0,1-.55.46l-1.52.88L0,28.93Z"/><path class="cls-6" d="M4.71,24.64A3,3,0,0,0,3.56,26l-.45,1a2.72,2.72,0,0,1-1.06,1.28l-1.52.88v.13l1.52-.88a3,3,0,0,0,1.16-1.4l.44-1a2.72,2.72,0,0,1,1.06-1.28l1.1-.63V24Z"/></g><g class="cls-3"><polygon class="cls-5" points="44.88 54.85 44.88 54.97 44.35 54.66 44.35 54.54 44.88 54.85"/><path class="cls-26" d="M45.87,53.66a2.32,2.32,0,0,0,.55-.46,3.43,3.43,0,0,0,.49-.78l0-.05.44-1,0,0a3.15,3.15,0,0,1,.53-.84,2.32,2.32,0,0,1,.6-.5l1.09-.64.53.31-1.09.64a2.32,2.32,0,0,0-.6.5,3.15,3.15,0,0,0-.53.84l0,0-.45,1,0,0a2.86,2.86,0,0,1-.49.78,2.14,2.14,0,0,1-.55.46l-1.52.88-.53-.31Z"/><path class="cls-6" d="M49.06,50.25a2.92,2.92,0,0,0-1.15,1.39l-.45,1A2.75,2.75,0,0,1,46.4,54l-1.52.88V55l1.52-.87a3,3,0,0,0,1.16-1.4l.44-1a2.75,2.75,0,0,1,1.06-1.29l1.1-.63v-.13Z"/></g><g class="cls-3"><polygon class="cls-5" points="43.68 54.15 43.68 54.28 43.15 53.97 43.15 53.84 43.68 54.15"/><path class="cls-27" d="M44.67,53a2.15,2.15,0,0,0,.55-.47,2.66,2.66,0,0,0,.49-.77l0,0,.44-1,0,0a3.15,3.15,0,0,1,.53-.84,2.58,2.58,0,0,1,.6-.51l1.09-.63.54.31-1.1.63a2.81,2.81,0,0,0-.6.51,3.42,3.42,0,0,0-.53.84l0,.05-.44,1,0,0a3.09,3.09,0,0,1-.5.77,2,2,0,0,1-.55.47l-1.52.87-.53-.31Z"/><path class="cls-6" d="M47.86,49.55A3,3,0,0,0,46.71,51l-.44,1a2.83,2.83,0,0,1-1.07,1.29l-1.52.87v.13l1.52-.88A2.94,2.94,0,0,0,46.36,52l.44-1a2.75,2.75,0,0,1,1.06-1.29l1.1-.63v-.13Z"/></g><g class="cls-3"><polygon class="cls-5" points="42.49 53.46 42.49 53.59 41.95 53.28 41.95 53.15 42.49 53.46"/><path class="cls-28" d="M43.47,52.28a2.41,2.41,0,0,0,.55-.47,2.8,2.8,0,0,0,.49-.77l0,0L45,50l0-.06a3.56,3.56,0,0,1,.53-.83,2.81,2.81,0,0,1,.6-.51l1.1-.63.53.31-1.1.63a2.55,2.55,0,0,0-.6.51,3.56,3.56,0,0,0-.53.83l0,.06-.44,1,0,.05a3.37,3.37,0,0,1-.49.77,2.64,2.64,0,0,1-.55.47l-1.52.87L42,53.15Z"/><path class="cls-6" d="M46.66,48.86a3,3,0,0,0-1.15,1.4l-.44,1A2.75,2.75,0,0,1,44,52.59l-1.52.87v.13L44,52.71a3,3,0,0,0,1.15-1.39l.44-1A2.7,2.7,0,0,1,46.66,49l1.1-.63v-.13Z"/></g><g class="cls-3"><polygon class="cls-5" points="41.29 52.77 41.29 52.9 40.76 52.59 40.76 52.46 41.29 52.77"/><path class="cls-29" d="M42.27,51.58a2,2,0,0,0,.55-.46,3.09,3.09,0,0,0,.5-.77l0-.05.44-1,0-.06a3.36,3.36,0,0,1,.53-.83,2.55,2.55,0,0,1,.6-.51l1.1-.63.53.31-1.09.63a2.2,2.2,0,0,0-.6.51,3.13,3.13,0,0,0-.54.83l0,.06-.44,1,0,0a3.37,3.37,0,0,1-.49.77,2.32,2.32,0,0,1-.55.46l-1.52.88-.53-.31Z"/><path class="cls-6" d="M45.47,48.17a3,3,0,0,0-1.16,1.4l-.44,1a2.72,2.72,0,0,1-1.06,1.28l-1.52.88v.13L42.81,52A3,3,0,0,0,44,50.62l.44-1a2.74,2.74,0,0,1,1.07-1.28l1.09-.63v-.13Z"/></g><g class="cls-3"><polygon class="cls-5" points="40.09 52.08 40.09 52.21 39.56 51.9 39.56 51.77 40.09 52.08"/><path class="cls-30" d="M41.08,50.89a2.32,2.32,0,0,0,.55-.46,3.23,3.23,0,0,0,.49-.78l0,0,.44-1,0-.06a3.13,3.13,0,0,1,.54-.83,2.33,2.33,0,0,1,.59-.51l1.1-.63.53.31-1.09.63a2.53,2.53,0,0,0-.6.5,3.32,3.32,0,0,0-.53.84l0,.06-.44,1,0,0a3.23,3.23,0,0,1-.49.78,2.32,2.32,0,0,1-.55.46l-1.52.88-.53-.31Z"/><path class="cls-6" d="M44.27,47.48a3,3,0,0,0-1.16,1.4l-.44,1a2.72,2.72,0,0,1-1.06,1.28l-1.52.88v.13l1.52-.88a3,3,0,0,0,1.15-1.4l.45-1a2.72,2.72,0,0,1,1.06-1.28L45.36,47v-.12Z"/></g><g class="cls-3"><polygon class="cls-5" points="38.89 51.39 38.89 51.52 38.36 51.2 38.36 51.08 38.89 51.39"/><path class="cls-31" d="M39.88,50.2a2.32,2.32,0,0,0,.55-.46,3.43,3.43,0,0,0,.49-.78l0-.05.44-1,0,0a3.15,3.15,0,0,1,.53-.84,2.32,2.32,0,0,1,.6-.5l1.09-.63.53.31-1.09.63a2.32,2.32,0,0,0-.6.5,3.15,3.15,0,0,0-.53.84l0,0-.44,1,0,.05a2.86,2.86,0,0,1-.49.78,2.32,2.32,0,0,1-.55.46l-1.52.88-.53-.31Z"/><path class="cls-6" d="M43.07,46.79a3,3,0,0,0-1.16,1.39l-.44,1a2.7,2.7,0,0,1-1.06,1.29l-1.52.88v.12l1.52-.87a3,3,0,0,0,1.16-1.4l.44-1a2.75,2.75,0,0,1,1.06-1.29l1.09-.63v-.12Z"/></g><g class="cls-3"><polygon class="cls-5" points="37.69 50.7 37.69 50.82 37.16 50.51 37.16 50.39 37.69 50.7"/><path class="cls-32" d="M38.68,49.51a2.32,2.32,0,0,0,.55-.46,2.86,2.86,0,0,0,.49-.78l0-.05.44-1,0,0a3.15,3.15,0,0,1,.53-.84,2.32,2.32,0,0,1,.6-.5l1.09-.64.54.31-1.1.64a2.49,2.49,0,0,0-.6.5,3.42,3.42,0,0,0-.53.84l0,.05-.44,1,0,0a2.66,2.66,0,0,1-.49.77,2,2,0,0,1-.55.47l-1.52.88-.53-.31Z"/><path class="cls-6" d="M41.87,46.1a2.92,2.92,0,0,0-1.15,1.39l-.44,1a2.83,2.83,0,0,1-1.07,1.29l-1.52.88v.12L39.21,50a3,3,0,0,0,1.16-1.4l.44-1a2.75,2.75,0,0,1,1.06-1.29l1.1-.63v-.13Z"/></g><g class="cls-3"><polygon class="cls-5" points="36.49 50 36.5 50.13 35.96 49.82 35.96 49.69 36.49 50"/><path class="cls-33" d="M37.48,48.82a2,2,0,0,0,.55-.47,2.8,2.8,0,0,0,.49-.77l0,0,.45-1,0-.05a3.42,3.42,0,0,1,.53-.84,2.58,2.58,0,0,1,.6-.51l1.1-.63.53.31-1.1.63a2.81,2.81,0,0,0-.6.51,3.56,3.56,0,0,0-.53.83l0,.06-.44,1,0,0a3.09,3.09,0,0,1-.5.77,2,2,0,0,1-.55.47L36.5,50,36,49.69Z"/><path class="cls-6" d="M40.67,45.4a3,3,0,0,0-1.15,1.4l-.44,1A2.77,2.77,0,0,1,38,49.13L36.5,50v.13L38,49.25a3,3,0,0,0,1.15-1.39l.44-1a2.75,2.75,0,0,1,1.06-1.29l1.1-.63v-.13Z"/></g><g class="cls-3"><polygon class="cls-5" points="35.3 49.31 35.3 49.44 34.77 49.13 34.77 49 35.3 49.31"/><path class="cls-34" d="M36.28,48.13a2.22,2.22,0,0,0,.55-.47,3.09,3.09,0,0,0,.5-.77l0,0,.44-1,0-.06a3.56,3.56,0,0,1,.53-.83,2.55,2.55,0,0,1,.6-.51l1.1-.63.53.31-1.1.63a2.33,2.33,0,0,0-.59.51,3.29,3.29,0,0,0-.54.83l0,.06-.44,1,0,.05a3.37,3.37,0,0,1-.49.77,2.32,2.32,0,0,1-.55.46l-1.52.88L34.76,49Z"/><path class="cls-6" d="M39.47,44.71a3,3,0,0,0-1.15,1.4l-.44,1a2.68,2.68,0,0,1-1.06,1.28l-1.52.88v.13l1.52-.88A3,3,0,0,0,38,47.17l.44-1a2.76,2.76,0,0,1,1.06-1.29l1.1-.63v-.13Z"/></g><g class="cls-3"><polygon class="cls-5" points="34.1 48.62 34.1 48.75 33.57 48.44 33.57 48.31 34.1 48.62"/><path class="cls-35" d="M35.09,47.43a2.32,2.32,0,0,0,.55-.46,3.37,3.37,0,0,0,.49-.77l0-.05.44-1,0-.06a3.36,3.36,0,0,1,.53-.83,2.55,2.55,0,0,1,.6-.51l1.1-.63.53.31L38.28,44a2.36,2.36,0,0,0-.6.51,3.1,3.1,0,0,0-.53.83l0,.06-.44,1,0,0a3.23,3.23,0,0,1-.49.78,2.32,2.32,0,0,1-.55.46l-1.52.88-.53-.31Z"/><path class="cls-6" d="M38.28,44a3,3,0,0,0-1.16,1.4l-.44,1a2.72,2.72,0,0,1-1.06,1.28l-1.52.88v.13l1.52-.88a3,3,0,0,0,1.15-1.4l.44-1a2.8,2.8,0,0,1,1.07-1.28l1.09-.63v-.13Z"/></g><g class="cls-3"><polygon class="cls-5" points="32.9 47.93 32.9 48.06 32.37 47.75 32.37 47.62 32.9 47.93"/><path class="cls-36" d="M33.89,46.74a2.32,2.32,0,0,0,.55-.46,3.23,3.23,0,0,0,.49-.78l0,0,.44-1,0-.06a3.32,3.32,0,0,1,.53-.84,2.35,2.35,0,0,1,.6-.5l1.09-.63.53.31-1.09.63a2.32,2.32,0,0,0-.6.5,3.15,3.15,0,0,0-.53.84l0,0-.44,1.05,0,0a2.71,2.71,0,0,1-.49.78,2.32,2.32,0,0,1-.55.46l-1.52.88-.53-.31Z"/><path class="cls-6" d="M37.08,43.33a3,3,0,0,0-1.16,1.39l-.44,1.05a2.72,2.72,0,0,1-1.06,1.28l-1.52.88v.13l1.52-.88a3,3,0,0,0,1.16-1.4l.44-1a2.68,2.68,0,0,1,1.06-1.28l1.09-.64V42.7Z"/></g><g class="cls-3"><polygon class="cls-5" points="31.7 47.24 31.7 47.36 31.17 47.05 31.17 46.93 31.7 47.24"/><path class="cls-37" d="M32.69,46.05a2.32,2.32,0,0,0,.55-.46,3.12,3.12,0,0,0,.49-.78l0-.05.44-1,0,0a3.15,3.15,0,0,1,.53-.84,2.32,2.32,0,0,1,.6-.5l1.09-.63L37,42l-1.1.64a2.32,2.32,0,0,0-.6.5,3.42,3.42,0,0,0-.53.84l0,.05-.45,1,0,0a2.86,2.86,0,0,1-.49.78,2.14,2.14,0,0,1-.55.46l-1.52.88-.53-.31Z"/><path class="cls-6" d="M35.88,42.64A2.92,2.92,0,0,0,34.73,44l-.45,1a2.7,2.7,0,0,1-1.06,1.29l-1.52.88v.12l1.52-.87a3,3,0,0,0,1.16-1.4l.44-1a2.75,2.75,0,0,1,1.06-1.29l1.1-.63V42Z"/></g><g class="cls-3"><polygon class="cls-5" points="30.5 46.55 30.5 46.67 29.97 46.36 29.97 46.24 30.5 46.55"/><path class="cls-38" d="M31.49,45.36A2.14,2.14,0,0,0,32,44.9a2.86,2.86,0,0,0,.49-.78l0,0L33,43,33,43a3.15,3.15,0,0,1,.53-.84,2.32,2.32,0,0,1,.6-.5L35.24,41l.54.31-1.1.64a2.49,2.49,0,0,0-.6.5,3.42,3.42,0,0,0-.53.84l0,.05-.44,1,0,0a2.92,2.92,0,0,1-.5.77,1.86,1.86,0,0,1-.55.47l-1.52.88L30,46.24Z"/><path class="cls-6" d="M34.68,42a2.92,2.92,0,0,0-1.15,1.39l-.44,1A2.83,2.83,0,0,1,32,45.67l-1.52.88v.12L32,45.8a3,3,0,0,0,1.16-1.4l.44-1a2.75,2.75,0,0,1,1.06-1.29l1.1-.63v-.13Z"/></g><g class="cls-3"><polygon class="cls-5" points="29.31 45.85 29.31 45.98 28.77 45.67 28.77 45.54 29.31 45.85"/><path class="cls-39" d="M30.29,44.67a2.19,2.19,0,0,0,.55-.47,3.09,3.09,0,0,0,.5-.77l0,0,.44-1,0-.06a3.56,3.56,0,0,1,.53-.83,2.81,2.81,0,0,1,.6-.51l1.1-.63.53.31-1.1.63a2.81,2.81,0,0,0-.6.51,3.56,3.56,0,0,0-.53.83l0,.06-.44,1,0,.05a3.37,3.37,0,0,1-.49.77,2.64,2.64,0,0,1-.55.47l-1.52.87-.54-.31Z"/><path class="cls-6" d="M33.48,41.25a3,3,0,0,0-1.15,1.4l-.44,1A2.75,2.75,0,0,1,30.83,45l-1.52.87V46l1.52-.88A3,3,0,0,0,32,43.71l.44-1a2.7,2.7,0,0,1,1.06-1.29l1.1-.63v-.13Z"/></g><g class="cls-3"><polygon class="cls-5" points="28.11 45.16 28.11 45.29 27.58 44.98 27.58 44.85 28.11 45.16"/><path class="cls-40" d="M29.1,44a2.1,2.1,0,0,0,.54-.46,3.09,3.09,0,0,0,.5-.77l0-.05.44-1,0-.06a3.56,3.56,0,0,1,.53-.83,2.55,2.55,0,0,1,.6-.51l1.1-.63.53.31-1.09.63a2.2,2.2,0,0,0-.6.51,3.26,3.26,0,0,0-.53.83l0,.06-.44,1,0,0a3.37,3.37,0,0,1-.49.77,2.32,2.32,0,0,1-.55.46l-1.52.88-.53-.31Z"/><path class="cls-6" d="M32.29,40.56A3,3,0,0,0,31.13,42l-.44,1a2.68,2.68,0,0,1-1.06,1.28l-1.52.88v.13l1.52-.88A3,3,0,0,0,30.78,43l.44-1a2.78,2.78,0,0,1,1.07-1.29l1.09-.63v-.13Z"/></g><g class="cls-3"><polygon class="cls-5" points="26.91 44.47 26.91 44.6 26.38 44.29 26.38 44.16 26.91 44.47"/><path class="cls-41" d="M27.9,43.28a2.32,2.32,0,0,0,.55-.46,3.23,3.23,0,0,0,.49-.78l0,0,.44-1,0-.06a3.13,3.13,0,0,1,.54-.83,2.2,2.2,0,0,1,.6-.51l1.09-.63.53.31-1.09.63a2.36,2.36,0,0,0-.6.51,3.1,3.1,0,0,0-.53.83l0,.06-.44,1,0,0a3,3,0,0,1-.49.78,2.32,2.32,0,0,1-.55.46l-1.52.88-.53-.31Z"/><path class="cls-6" d="M31.09,39.87a3,3,0,0,0-1.16,1.4l-.44,1a2.72,2.72,0,0,1-1.06,1.28l-1.52.88v.13l1.52-.88a3,3,0,0,0,1.15-1.4l.45-1A2.72,2.72,0,0,1,31.09,40l1.09-.63v-.13Z"/></g><g class="cls-3"><polygon class="cls-5" points="25.71 43.78 25.71 43.91 25.18 43.6 25.18 43.47 25.71 43.78"/><path class="cls-42" d="M26.7,42.59a2.32,2.32,0,0,0,.55-.46,3.23,3.23,0,0,0,.49-.78l0,0,.44-1.05,0,0a3.15,3.15,0,0,1,.53-.84,2.32,2.32,0,0,1,.6-.5l1.09-.63.53.31-1.09.63a2.32,2.32,0,0,0-.6.5,3.15,3.15,0,0,0-.53.84l0,0-.45,1,0,0a2.86,2.86,0,0,1-.49.78,2.14,2.14,0,0,1-.55.46l-1.52.88-.53-.31Z"/><path class="cls-6" d="M29.89,39.18a3,3,0,0,0-1.16,1.39l-.44,1a2.7,2.7,0,0,1-1.06,1.29l-1.52.88v.13L27.23,43a3,3,0,0,0,1.16-1.4l.44-1a2.68,2.68,0,0,1,1.06-1.28l1.1-.64v-.12Z"/></g><g class="cls-3"><polygon class="cls-5" points="24.51 43.09 24.51 43.21 23.98 42.9 23.98 42.78 24.51 43.09"/><path class="cls-43" d="M25.5,41.9a2.32,2.32,0,0,0,.55-.46,2.86,2.86,0,0,0,.49-.78l0,0,.44-1,0,0a3.15,3.15,0,0,1,.53-.84,2.32,2.32,0,0,1,.6-.5l1.09-.64.54.31-1.1.64a2.49,2.49,0,0,0-.6.5,3.42,3.42,0,0,0-.53.84l0,.05-.44,1,0,0a3.15,3.15,0,0,1-.5.78,2.14,2.14,0,0,1-.55.46l-1.52.88L24,42.78Z"/><path class="cls-6" d="M28.69,38.49a2.92,2.92,0,0,0-1.15,1.39l-.44,1A2.78,2.78,0,0,1,26,42.21l-1.52.88v.12L26,42.34a3,3,0,0,0,1.16-1.4l.44-1a2.75,2.75,0,0,1,1.06-1.29l1.1-.63v-.13Z"/></g><g class="cls-3"><polygon class="cls-5" points="23.32 42.4 23.32 42.52 22.78 42.21 22.78 42.09 23.32 42.4"/><path class="cls-44" d="M24.3,41.21a2,2,0,0,0,.55-.47,2.66,2.66,0,0,0,.49-.77l0,0,.44-1,0-.05a3.42,3.42,0,0,1,.53-.84,2.49,2.49,0,0,1,.6-.5l1.1-.64.53.31-1.1.63a2.81,2.81,0,0,0-.6.51,3.42,3.42,0,0,0-.53.84l0,0-.44,1,0,.05a3.09,3.09,0,0,1-.5.77,2,2,0,0,1-.54.47l-1.52.87-.54-.3Z"/><path class="cls-6" d="M27.49,37.79a3,3,0,0,0-1.15,1.4l-.44,1a2.75,2.75,0,0,1-1.06,1.29l-1.52.87v.13l1.52-.88A3,3,0,0,0,26,40.25l.44-1a2.75,2.75,0,0,1,1.06-1.29l1.1-.63v-.13Z"/></g><g id="Axonometric_Cube-2" data-name="Axonometric Cube"><polygon id="Cube_face_-_left-2" data-name="Cube face - left" class="cls-1" points="49.61 50.31 3.83 23.89 3.83 22.13 50.78 47.89 49.61 50.31"/><polygon id="Cube_face_-_right-2" data-name="Cube face - right" class="cls-2" points="72.91 36.86 49.61 50.31 49.61 48.56 72.91 35.11 72.91 36.86"/><polygon id="Cube_face_-_top-2" data-name="Cube face - top" class="cls-45" points="72.91 35.11 27.13 8.68 3.83 22.13 49.61 48.56 72.91 35.11"/></g><path id="Cylinder_face" data-name="Cylinder face" class="cls-46" d="M29.49,15.43a5.7,5.7,0,0,1-5.18,0c-1.43-.82-1.43-2.16,0-3a5.7,5.7,0,0,1,5.18,0C30.91,13.27,30.91,14.61,29.49,15.43Z"/><path class="cls-2" d="M24.31,12.65a5.76,5.76,0,0,1,5.18,0A1.88,1.88,0,0,1,30.54,14a1.73,1.73,0,0,0-1.05-1.59,5.7,5.7,0,0,0-5.18,0,1.73,1.73,0,0,0-1,1.59A1.86,1.86,0,0,1,24.31,12.65Z"/><g class="cls-3"><path class="cls-4" d="M99.63,19.17l-1.74,1a.16.16,0,0,1-.16,0l2.79,1.62s.1,0,.17,0l1.73-1Z"/><path class="cls-5" d="M100.12,19.06c0-.19,0-.55-.11-.61L97,17a.39.39,0,0,1,.17.37V20.3a.49.49,0,0,0,.2.44l2.79,1.62Z"/><path class="cls-4" d="M97.35,16.44a.74.74,0,0,0-.73.08l-1.5.86L97.92,19l1.49-.86a.71.71,0,0,1,.73-.07Z"/><path class="cls-6" d="M102.42,20.79l-1.74,1c-.12.08-.23,0-.23-.13V18.73c0-.65-.46-.92-1-.59l-1.5.86v.52l1.59-.92c.27-.15.48,0,.48.28v3c0,.43.31.61.68.39l1.74-1Z"/><polygon class="cls-5" points="97.92 19 95.13 17.38 95.13 17.9 97.92 19.52 97.92 19"/></g><g class="cls-3"><path class="cls-4" d="M92.32,15l-1.73,1a.18.18,0,0,1-.17,0l2.79,1.62s.1,0,.17,0l1.73-1Z"/><path class="cls-5" d="M92.69,17.7V14.77a.42.42,0,0,0-.17-.37l-2.79-1.63a.41.41,0,0,1,.16.37v2.94a.48.48,0,0,0,.2.44l2.79,1.62A.48.48,0,0,1,92.69,17.7Z"/><path class="cls-4" d="M90,12.23a.71.71,0,0,0-.73.07l-1.49.86,2.79,1.62,1.5-.86a.71.71,0,0,1,.73-.07Z"/><path class="cls-6" d="M95.11,16.57l-1.73,1c-.13.08-.24,0-.24-.13V14.51c0-.65-.47-.92-1-.59l-1.5.86v.52l1.5-.86c.32-.19.57,0,.58.33V17.7c0,.44.31.61.69.39l1.73-1Z"/><polygon class="cls-5" points="90.61 14.78 87.82 13.16 87.82 13.68 90.61 15.3 90.61 14.78"/></g><g class="cls-3"><path class="cls-4" d="M85,10.73l-1.73,1a.18.18,0,0,1-.17,0l2.79,1.62s.1,0,.17,0l1.73-1Z"/><path class="cls-5" d="M85.38,13.48V10.55a.4.4,0,0,0-.17-.37L82.42,8.55a.41.41,0,0,1,.16.37v2.94a.48.48,0,0,0,.2.44l2.79,1.62A.5.5,0,0,1,85.38,13.48Z"/><path class="cls-4" d="M82.74,8a.72.72,0,0,0-.74.07l-1.49.86,2.79,1.62,1.5-.86a.71.71,0,0,1,.73-.07Z"/><path class="cls-6" d="M87.8,12.35l-1.73,1c-.13.08-.23,0-.23-.13V10.29c0-.65-.47-.92-1-.59l-1.5.86v.52l1.5-.86c.32-.19.58,0,.58.33v2.93c0,.44.31.61.69.39l1.74-1Z"/><polygon class="cls-5" points="83.3 10.56 80.51 8.94 80.51 9.46 83.3 11.08 83.3 10.56"/></g><g class="cls-3"><path class="cls-4" d="M77.7,6.51,76,7.51a.18.18,0,0,1-.17,0l2.79,1.62s.1,0,.17,0l1.73-1Z"/><path class="cls-5" d="M78.08,9.26V6.33A.4.4,0,0,0,77.9,6L75.11,4.33a.41.41,0,0,1,.17.37V7.64a.48.48,0,0,0,.2.44L78.27,9.7A.48.48,0,0,1,78.08,9.26Z"/><path class="cls-4" d="M75.43,3.79a.71.71,0,0,0-.73.07l-1.5.86L76,6.34l1.5-.86a.71.71,0,0,1,.73-.07Z"/><path class="cls-6" d="M80.49,8.13l-1.73,1c-.13.08-.23,0-.23-.13V6.07c0-.65-.47-.92-1-.59L76,6.34v.52L77.49,6c.32-.19.58,0,.58.33V9.26c0,.44.3.61.68.39l1.74-1Z"/><polygon class="cls-5" points="75.99 6.34 73.2 4.72 73.2 5.24 75.99 6.86 75.99 6.34"/></g><g id="Axonometric_Cube-3" data-name="Axonometric Cube"><polygon id="Cube_face_-_left-3" data-name="Cube face - left" class="cls-1" points="87.34 30.2 58.72 13.68 58.72 11.38 90.98 25.8 87.34 30.2"/><polygon id="Cube_face_-_right-3" data-name="Cube face - right" class="cls-2" points="99.54 23.16 87.34 30.2 87.34 25.38 99.54 20.86 99.54 23.16"/><polygon id="Cube_face_-_top-3" data-name="Cube face - top" class="cls-1" points="99.54 20.86 70.91 4.34 58.72 11.38 87.34 27.9 99.54 20.86"/></g><g class="cls-3"><polygon class="cls-5" points="74.69 28.36 71.9 26.74 71.9 27.26 74.69 28.88 74.69 28.36"/><path class="cls-47" d="M76.38,19.76l-1.5.87a2.26,2.26,0,0,0-1,1.78v2.92a.56.56,0,0,1-.23.41l-1.74,1,2.79,1.62,1.74-1a.49.49,0,0,0,.23-.4l.12-2.25a3.49,3.49,0,0,1,1.51-2.82l.88-.5Z"/><path class="cls-6" d="M79.17,21.39l-1.5.86a2.28,2.28,0,0,0-1,1.77V27a.49.49,0,0,1-.23.4l-1.74,1v.52l1.74-1a1.54,1.54,0,0,0,.68-1.19V24a1.76,1.76,0,0,1,.8-1.38l1.27-.74Z"/></g><g class="cls-3"><polygon class="cls-5" points="82 32.58 79.21 30.96 79.21 31.48 82 33.1 82 32.58"/><path class="cls-48" d="M83.69,24l-1.5.87a2.26,2.26,0,0,0-1,1.78v2.92a.54.54,0,0,1-.24.41l-1.73,1L82,32.58l1.74-1a.52.52,0,0,0,.23-.4l0-2.3a3.42,3.42,0,0,1,1.5-2.71l1-.56Z"/><path class="cls-6" d="M86.48,25.61l-1.5.86a2.28,2.28,0,0,0-1,1.77v2.94a.52.52,0,0,1-.23.4l-1.74,1v.52l1.74-1a1.54,1.54,0,0,0,.68-1.19V28.24a1.77,1.77,0,0,1,.79-1.38l1.28-.74Z"/></g><g class="cls-3"><polygon class="cls-5" points="67.38 24.14 64.59 22.52 64.59 23.04 67.39 24.66 67.38 24.14"/><path class="cls-49" d="M69.07,15.54l-1.5.87a2.28,2.28,0,0,0-1,1.77v2.93a.56.56,0,0,1-.23.41l-1.74,1,2.79,1.62,1.74-1a.49.49,0,0,0,.23-.4l.15-2.34a3.24,3.24,0,0,1,1.44-2.7l.92-.53Z"/><path class="cls-6" d="M71.86,17.17l-1.5.86a2.28,2.28,0,0,0-1,1.77v2.94a.49.49,0,0,1-.23.4l-1.74,1v.52l1.74-1a1.51,1.51,0,0,0,.68-1.19V19.8a1.76,1.76,0,0,1,.8-1.38l1.27-.74Z"/></g><g class="cls-3"><polygon class="cls-5" points="60.07 19.92 57.28 18.3 57.28 18.82 60.08 20.44 60.07 19.92"/><path class="cls-50" d="M61.76,11.32l-1.5.87a2.28,2.28,0,0,0-1,1.77v2.93a.53.53,0,0,1-.23.41l-1.74,1,2.79,1.62,1.74-1a.49.49,0,0,0,.23-.4l.08-2.4a3.18,3.18,0,0,1,1.52-2.64l.91-.53Z"/><path class="cls-6" d="M64.55,13l-1.5.86a2.28,2.28,0,0,0-1,1.77v2.94a.49.49,0,0,1-.23.4l-1.74,1v.52l1.73-1a1.51,1.51,0,0,0,.68-1.18V15.58a1.76,1.76,0,0,1,.8-1.38l1.28-.74Z"/></g><g id="Axonometric_Cube-4" data-name="Axonometric Cube"><polygon id="Cube_face_-_top-4" data-name="Cube face - top" class="cls-45" points="99.54 16.53 70.91 0 58.72 7.04 87.34 23.57 99.54 16.53"/><polygon id="Cube_face_-_left-4" data-name="Cube face - left" class="cls-1" points="87.34 27.42 58.72 10.89 58.72 7.04 87.34 23.57 87.34 27.42"/><polygon id="Cube_face_-_right-4" data-name="Cube face - right" class="cls-2" points="99.54 20.38 87.34 27.42 87.34 23.57 99.54 16.53 99.54 20.38"/></g><path id="Cylinder_face-2" data-name="Cylinder face" class="cls-46" d="M73.76,8.58a5.89,5.89,0,0,1-5.33,0C67,7.73,67,6.35,68.43,5.5a5.89,5.89,0,0,1,5.33,0C75.23,6.35,75.23,7.73,73.76,8.58Z"/><path class="cls-2" d="M68.43,5.72a5.89,5.89,0,0,1,5.33,0,1.92,1.92,0,0,1,1.09,1.43A1.81,1.81,0,0,0,73.76,5.5a5.89,5.89,0,0,0-5.33,0,1.82,1.82,0,0,0-1.09,1.65A1.92,1.92,0,0,1,68.43,5.72Z"/></g></svg>