<svg id="_0" data-name="0" xmlns="http://www.w3.org/2000/svg" xmlns:xlink="http://www.w3.org/1999/xlink" viewBox="0 0 79.68 48.8"><defs><style>.cls-1{fill:none;}.cls-2{isolation:isolate;}.cls-3{fill:#3b353c;}.cls-4{fill:#2c282c;}.cls-5{fill:#312d31;}.cls-6{fill:#464047;}.cls-7{fill:#e2ddd4;}.cls-8{fill:url(#鍊踑臇蜸馯鳺艜_3);}.cls-9{fill:#cecac0;}.cls-10{fill:url(#鍊踑臇蜸馯鳺艜_3-2);}.cls-11{fill:url(#鍊踑臇蜸馯鳺艜_3-3);}.cls-12{fill:url(#鍊踑臇蜸馯鳺艜_3-4);}.cls-13{fill:url(#鍊踑臇蜸馯鳺艜_3-5);}.cls-14{fill:url(#鍊踑臇蜸馯鳺艜_3-6);}.cls-15{fill:url(#鍊踑臇蜸馯鳺艜_3-7);}.cls-16{fill:url(#鍊踑臇蜸馯鳺艜_3-8);}.cls-17{fill:url(#鍊踑臇蜸馯鳺艜_3-9);}.cls-18{fill:url(#鍊踑臇蜸馯鳺艜_3-10);}.cls-19{fill:url(#鍊踑臇蜸馯鳺艜_3-11);}.cls-20{fill:url(#鍊踑臇蜸馯鳺艜_3-12);}.cls-21{fill:url(#鍊踑臇蜸馯鳺艜_3-13);}.cls-22{fill:url(#鍊踑臇蜸馯鳺艜_3-14);}.cls-23{fill:url(#鍊踑臇蜸馯鳺艜_3-15);}.cls-24{fill:url(#鍊踑臇蜸馯鳺艜_3-16);}.cls-25{fill:url(#鍊踑臇蜸馯鳺艜_3-17);}.cls-26{fill:url(#鍊踑臇蜸馯鳺艜_3-18);}.cls-27{fill:url(#鍊踑臇蜸馯鳺艜_3-19);}.cls-28{fill:url(#鍊踑臇蜸馯鳺艜_2);}.cls-29{fill:url(#鍊踑臇蜸馯鳺艜_2-2);}.cls-30{fill:url(#鍊踑臇蜸馯鳺艜_2-3);}.cls-31{fill:url(#鍊踑臇蜸馯鳺艜_2-4);}.cls-32{fill:url(#鍊踑臇蜸馯鳺艜_2-5);}.cls-33{fill:url(#鍊踑臇蜸馯鳺艜_2-6);}.cls-34{fill:url(#鍊踑臇蜸馯鳺艜_2-7);}.cls-35{fill:url(#鍊踑臇蜸馯鳺艜_2-8);}.cls-36{fill:url(#鍊踑臇蜸馯鳺艜_2-9);}.cls-37{fill:url(#鍊踑臇蜸馯鳺艜_2-10);}.cls-38{fill:url(#鍊踑臇蜸馯鳺艜_2-11);}.cls-39{fill:url(#鍊踑臇蜸馯鳺艜_2-12);}.cls-40{fill:url(#鍊踑臇蜸馯鳺艜_2-13);}.cls-41{fill:url(#鍊踑臇蜸馯鳺艜_2-14);}.cls-42{fill:url(#鍊踑臇蜸馯鳺艜_2-15);}.cls-43{fill:url(#鍊踑臇蜸馯鳺艜_2-16);}.cls-44{fill:url(#鍊踑臇蜸馯鳺艜_2-17);}.cls-45{fill:url(#鍊踑臇蜸馯鳺艜_2-18);}.cls-46{fill:url(#鍊踑臇蜸馯鳺艜_2-19);}.cls-47{fill:#ece9e3;}.cls-48{fill:#e6e2da;}.cls-49{fill:#b5b2a9;}.cls-50{fill:#808c0c;}.cls-51{clip-path:url(#clip-path);}.cls-52{fill:#8e960d;}.cls-53{fill:#63720d;}.cls-54{fill:#758019;}</style><linearGradient id="鍊踑臇蜸馯鳺艜_3" x1="42.86" y1="40.37" x2="47.89" y2="49.08" gradientUnits="userSpaceOnUse"><stop offset="0" stop-color="#ece9e3"/><stop offset="0.22" stop-color="#eae7e0"/><stop offset="0.38" stop-color="#e4dfd6"/><stop offset="0.41" stop-color="#e2ddd4"/><stop offset="0.57" stop-color="#e3ded6"/><stop offset="0.62" stop-color="#e8e4dd"/><stop offset="0.65" stop-color="#ece9e3"/></linearGradient><linearGradient id="鍊踑臇蜸馯鳺艜_3-2" x1="44.54" y1="39.4" x2="49.57" y2="48.11" xlink:href="#鍊踑臇蜸馯鳺艜_3"/><linearGradient id="鍊踑臇蜸馯鳺艜_3-3" x1="46.22" y1="38.43" x2="51.25" y2="47.14" xlink:href="#鍊踑臇蜸馯鳺艜_3"/><linearGradient id="鍊踑臇蜸馯鳺艜_3-4" x1="47.9" y1="37.46" x2="52.93" y2="46.17" xlink:href="#鍊踑臇蜸馯鳺艜_3"/><linearGradient id="鍊踑臇蜸馯鳺艜_3-5" x1="49.58" y1="36.49" x2="54.61" y2="45.2" xlink:href="#鍊踑臇蜸馯鳺艜_3"/><linearGradient id="鍊踑臇蜸馯鳺艜_3-6" x1="51.26" y1="35.52" x2="56.29" y2="44.23" xlink:href="#鍊踑臇蜸馯鳺艜_3"/><linearGradient id="鍊踑臇蜸馯鳺艜_3-7" x1="52.94" y1="34.56" x2="57.97" y2="43.26" xlink:href="#鍊踑臇蜸馯鳺艜_3"/><linearGradient id="鍊踑臇蜸馯鳺艜_3-8" x1="54.62" y1="33.59" x2="59.65" y2="42.29" xlink:href="#鍊踑臇蜸馯鳺艜_3"/><linearGradient id="鍊踑臇蜸馯鳺艜_3-9" x1="56.3" y1="32.62" x2="61.33" y2="41.32" xlink:href="#鍊踑臇蜸馯鳺艜_3"/><linearGradient id="鍊踑臇蜸馯鳺艜_3-10" x1="57.98" y1="31.65" x2="63" y2="40.35" xlink:href="#鍊踑臇蜸馯鳺艜_3"/><linearGradient id="鍊踑臇蜸馯鳺艜_3-11" x1="59.66" y1="30.68" x2="64.68" y2="39.38" xlink:href="#鍊踑臇蜸馯鳺艜_3"/><linearGradient id="鍊踑臇蜸馯鳺艜_3-12" x1="61.34" y1="29.71" x2="66.36" y2="38.41" xlink:href="#鍊踑臇蜸馯鳺艜_3"/><linearGradient id="鍊踑臇蜸馯鳺艜_3-13" x1="63.02" y1="28.74" x2="68.04" y2="37.44" xlink:href="#鍊踑臇蜸馯鳺艜_3"/><linearGradient id="鍊踑臇蜸馯鳺艜_3-14" x1="64.7" y1="27.77" x2="69.72" y2="36.47" xlink:href="#鍊踑臇蜸馯鳺艜_3"/><linearGradient id="鍊踑臇蜸馯鳺艜_3-15" x1="66.38" y1="26.8" x2="71.4" y2="35.5" xlink:href="#鍊踑臇蜸馯鳺艜_3"/><linearGradient id="鍊踑臇蜸馯鳺艜_3-16" x1="68.06" y1="25.83" x2="73.08" y2="34.53" xlink:href="#鍊踑臇蜸馯鳺艜_3"/><linearGradient id="鍊踑臇蜸馯鳺艜_3-17" x1="69.74" y1="24.86" x2="74.76" y2="33.56" xlink:href="#鍊踑臇蜸馯鳺艜_3"/><linearGradient id="鍊踑臇蜸馯鳺艜_3-18" x1="71.42" y1="23.89" x2="76.44" y2="32.59" xlink:href="#鍊踑臇蜸馯鳺艜_3"/><linearGradient id="鍊踑臇蜸馯鳺艜_3-19" x1="73.1" y1="22.92" x2="78.12" y2="31.62" xlink:href="#鍊踑臇蜸馯鳺艜_3"/><linearGradient id="鍊踑臇蜸馯鳺艜_2" x1="208.64" y1="40.39" x2="213.66" y2="49.09" gradientTransform="matrix(-1, 0, 0, 1, 245.58, 0)" gradientUnits="userSpaceOnUse"><stop offset="0" stop-color="#e2ddd4"/><stop offset="0.19" stop-color="#dfdad1"/><stop offset="0.34" stop-color="#d5d1c7"/><stop offset="0.41" stop-color="#cecac0"/><stop offset="0.55" stop-color="#d0ccc2"/><stop offset="0.6" stop-color="#d5d2c9"/><stop offset="0.63" stop-color="#e0dcd4"/><stop offset="0.66" stop-color="#ece9e3"/></linearGradient><linearGradient id="鍊踑臇蜸馯鳺艜_2-2" x1="210.32" y1="39.42" x2="215.34" y2="48.12" xlink:href="#鍊踑臇蜸馯鳺艜_2"/><linearGradient id="鍊踑臇蜸馯鳺艜_2-3" x1="212" y1="38.45" x2="217.02" y2="47.15" xlink:href="#鍊踑臇蜸馯鳺艜_2"/><linearGradient id="鍊踑臇蜸馯鳺艜_2-4" x1="213.67" y1="37.48" x2="218.7" y2="46.18" xlink:href="#鍊踑臇蜸馯鳺艜_2"/><linearGradient id="鍊踑臇蜸馯鳺艜_2-5" x1="215.35" y1="36.51" x2="220.38" y2="45.21" xlink:href="#鍊踑臇蜸馯鳺艜_2"/><linearGradient id="鍊踑臇蜸馯鳺艜_2-6" x1="217.03" y1="35.54" x2="222.06" y2="44.24" xlink:href="#鍊踑臇蜸馯鳺艜_2"/><linearGradient id="鍊踑臇蜸馯鳺艜_2-7" x1="218.71" y1="34.57" x2="223.74" y2="43.27" xlink:href="#鍊踑臇蜸馯鳺艜_2"/><linearGradient id="鍊踑臇蜸馯鳺艜_2-8" x1="220.39" y1="33.6" x2="225.42" y2="42.3" xlink:href="#鍊踑臇蜸馯鳺艜_2"/><linearGradient id="鍊踑臇蜸馯鳺艜_2-9" x1="222.07" y1="32.63" x2="227.1" y2="41.33" xlink:href="#鍊踑臇蜸馯鳺艜_2"/><linearGradient id="鍊踑臇蜸馯鳺艜_2-10" x1="223.75" y1="31.66" x2="228.78" y2="40.36" xlink:href="#鍊踑臇蜸馯鳺艜_2"/><linearGradient id="鍊踑臇蜸馯鳺艜_2-11" x1="225.43" y1="30.69" x2="230.46" y2="39.39" xlink:href="#鍊踑臇蜸馯鳺艜_2"/><linearGradient id="鍊踑臇蜸馯鳺艜_2-12" x1="227.11" y1="29.72" x2="232.14" y2="38.42" xlink:href="#鍊踑臇蜸馯鳺艜_2"/><linearGradient id="鍊踑臇蜸馯鳺艜_2-13" x1="228.79" y1="28.75" x2="233.82" y2="37.45" xlink:href="#鍊踑臇蜸馯鳺艜_2"/><linearGradient id="鍊踑臇蜸馯鳺艜_2-14" x1="230.47" y1="27.78" x2="235.5" y2="36.49" xlink:href="#鍊踑臇蜸馯鳺艜_2"/><linearGradient id="鍊踑臇蜸馯鳺艜_2-15" x1="232.15" y1="26.81" x2="237.17" y2="35.52" xlink:href="#鍊踑臇蜸馯鳺艜_2"/><linearGradient id="鍊踑臇蜸馯鳺艜_2-16" x1="233.83" y1="25.84" x2="238.85" y2="34.55" xlink:href="#鍊踑臇蜸馯鳺艜_2"/><linearGradient id="鍊踑臇蜸馯鳺艜_2-17" x1="235.51" y1="24.87" x2="240.53" y2="33.58" xlink:href="#鍊踑臇蜸馯鳺艜_2"/><linearGradient id="鍊踑臇蜸馯鳺艜_2-18" x1="237.19" y1="23.9" x2="242.21" y2="32.61" xlink:href="#鍊踑臇蜸馯鳺艜_2"/><linearGradient id="鍊踑臇蜸馯鳺艜_2-19" x1="238.87" y1="22.93" x2="243.89" y2="31.64" xlink:href="#鍊踑臇蜸馯鳺艜_2"/><clipPath id="clip-path"><polygon class="cls-1" points="37.87 38.35 7.34 20.73 7.34 19.17 37.67 1.54 41.73 1.55 72.26 19.17 72.26 20.73 41.93 38.36 37.87 38.35"/></clipPath></defs><title>prod-icon-1</title><g id="_1" data-name="1"><g class="cls-2"><polygon class="cls-3" points="74.24 24.09 74.23 25.78 42.25 44.37 42.26 42.68 74.24 24.09"/><polygon class="cls-4" points="37.55 42.67 37.54 44.36 5.36 25.78 5.37 24.09 37.55 42.67"/><polygon class="cls-5" points="42.26 42.68 42.25 44.37 37.54 44.36 37.55 42.67 42.26 42.68"/><polygon class="cls-4" points="74.23 21.37 74.24 24.09 42.26 42.68 37.55 42.67 5.37 24.09 5.36 21.37 37.35 2.78 42.05 2.79 74.23 21.37"/><polygon class="cls-6" points="37.81 41.7 6.34 23.53 6.34 21.93 37.61 3.75 41.79 3.76 73.26 21.93 73.27 23.54 41.99 41.71 37.81 41.7"/></g><g class="cls-2"><polygon class="cls-7" points="48.7 48.61 48.7 48.79 49.45 48.35 49.45 48.17 48.7 48.61"/><path class="cls-8" d="M47.32,47a2.93,2.93,0,0,1-.77-.65,4.42,4.42,0,0,1-.7-1.09l0-.07-.62-1.46a.25.25,0,0,0,0-.07,4.39,4.39,0,0,0-.74-1.17,3.24,3.24,0,0,0-.84-.71l-1.54-.89-.74.43,1.53.89a3.27,3.27,0,0,1,.84.71A4.59,4.59,0,0,1,44.43,44l0,.08.62,1.46,0,.06a4.21,4.21,0,0,0,.69,1.09,3.29,3.29,0,0,0,.77.65l2.13,1.23.75-.43Z"/><path class="cls-9" d="M42.84,42.16a4.14,4.14,0,0,1,1.62,2l.62,1.46a3.91,3.91,0,0,0,1.49,1.8l2.13,1.23v.18l-2.13-1.23a4.14,4.14,0,0,1-1.62-2l-.62-1.46a3.79,3.79,0,0,0-1.49-1.8l-1.53-.89v-.18Z"/></g><g class="cls-2"><polygon class="cls-7" points="50.38 47.64 50.38 47.82 51.13 47.38 51.13 47.21 50.38 47.64"/><path class="cls-10" d="M49,46a3.29,3.29,0,0,1-.77-.65,4.69,4.69,0,0,1-.69-1.09l0-.07-.62-1.46a.25.25,0,0,0,0-.07,4.39,4.39,0,0,0-.74-1.17,3.41,3.41,0,0,0-.84-.71l-1.54-.89-.74.44,1.53.88a3.45,3.45,0,0,1,.84.71,4.59,4.59,0,0,1,.75,1.17l0,.08.62,1.46,0,.06a4,4,0,0,0,.69,1.09,3.1,3.1,0,0,0,.77.65l2.13,1.23.75-.43Z"/><path class="cls-9" d="M44.52,41.19a4.14,4.14,0,0,1,1.62,2l.62,1.46a3.85,3.85,0,0,0,1.49,1.8l2.13,1.23v.18l-2.13-1.23a4.14,4.14,0,0,1-1.62-2L46,43.17a3.79,3.79,0,0,0-1.49-1.8L43,40.48v-.17Z"/></g><g class="cls-2"><polygon class="cls-7" points="52.06 46.67 52.06 46.85 52.8 46.41 52.8 46.24 52.06 46.67"/><path class="cls-11" d="M50.67,45a3.29,3.29,0,0,1-.77-.65,4.69,4.69,0,0,1-.69-1.09l0-.07-.62-1.46a.25.25,0,0,0,0-.07,4.39,4.39,0,0,0-.74-1.17,3.41,3.41,0,0,0-.84-.71l-1.54-.89-.74.44,1.53.88a3.45,3.45,0,0,1,.84.71,4.59,4.59,0,0,1,.75,1.17l0,.08.62,1.46,0,.06a4,4,0,0,0,.69,1.09,3.1,3.1,0,0,0,.77.65l2.13,1.23.74-.43Z"/><path class="cls-9" d="M46.2,40.22a4.14,4.14,0,0,1,1.62,2l.62,1.46a3.79,3.79,0,0,0,1.49,1.8l2.13,1.23v.18l-2.13-1.23a4.14,4.14,0,0,1-1.62-2l-.62-1.46a3.85,3.85,0,0,0-1.49-1.8l-1.53-.89v-.17Z"/></g><g class="cls-2"><polygon class="cls-7" points="53.74 45.7 53.74 45.88 54.48 45.45 54.48 45.27 53.74 45.7"/><path class="cls-12" d="M52.35,44a3.29,3.29,0,0,1-.77-.65,4.69,4.69,0,0,1-.69-1.09l0-.07-.61-1.45a.59.59,0,0,0,0-.08,4.65,4.65,0,0,0-.74-1.17,3.41,3.41,0,0,0-.84-.71l-1.54-.89-.74.44,1.53.88a3.45,3.45,0,0,1,.84.71,4.59,4.59,0,0,1,.75,1.17l0,.08.62,1.46,0,.06a3.82,3.82,0,0,0,.69,1.09,3.1,3.1,0,0,0,.77.65l2.13,1.23.74-.43Z"/><path class="cls-9" d="M47.88,39.25a4.14,4.14,0,0,1,1.62,2l.62,1.46a3.79,3.79,0,0,0,1.49,1.8l2.13,1.23v.18l-2.13-1.23a4.14,4.14,0,0,1-1.62-2l-.62-1.46a3.91,3.91,0,0,0-1.49-1.8l-1.53-.89v-.17Z"/></g><g class="cls-2"><polygon class="cls-7" points="55.42 44.73 55.42 44.91 56.16 44.48 56.16 44.3 55.42 44.73"/><path class="cls-13" d="M54,43.07a3.29,3.29,0,0,1-.77-.65,4.49,4.49,0,0,1-.69-1.09l0-.07-.61-1.45a.59.59,0,0,0,0-.08,4.65,4.65,0,0,0-.74-1.17,3.41,3.41,0,0,0-.84-.71L48.77,37,48,37.4l1.53.88a3.45,3.45,0,0,1,.84.71,4.59,4.59,0,0,1,.75,1.17l0,.08.62,1.46,0,.06a3.82,3.82,0,0,0,.69,1.09,3.1,3.1,0,0,0,.77.65l2.13,1.23.74-.43Z"/><path class="cls-9" d="M49.56,38.28a4.14,4.14,0,0,1,1.62,2l.62,1.46a3.79,3.79,0,0,0,1.49,1.8l2.13,1.23v.18l-2.13-1.23a4.14,4.14,0,0,1-1.62-2l-.62-1.46a3.91,3.91,0,0,0-1.49-1.8L48,37.57V37.4Z"/></g><g class="cls-2"><polygon class="cls-7" points="57.1 43.76 57.1 43.94 57.84 43.51 57.84 43.33 57.1 43.76"/><path class="cls-14" d="M55.71,42.1a3.29,3.29,0,0,1-.77-.65,4.49,4.49,0,0,1-.69-1.09l0-.07-.61-1.45,0-.08a4.65,4.65,0,0,0-.74-1.17,3.41,3.41,0,0,0-.84-.71L50.45,36l-.74.44,1.53.88a3.45,3.45,0,0,1,.84.71,4.59,4.59,0,0,1,.75,1.17l0,.08.62,1.46,0,.07a3.9,3.9,0,0,0,.69,1.08,3.1,3.1,0,0,0,.77.65l2.13,1.23.74-.43Z"/><path class="cls-9" d="M51.24,37.31a4.14,4.14,0,0,1,1.62,2l.62,1.46A3.79,3.79,0,0,0,55,42.53l2.13,1.23v.18L55,42.71a4.14,4.14,0,0,1-1.62-2l-.62-1.46a3.91,3.91,0,0,0-1.49-1.8l-1.53-.89v-.17Z"/></g><g class="cls-2"><polygon class="cls-7" points="58.78 42.79 58.78 42.97 59.52 42.54 59.52 42.36 58.78 42.79"/><path class="cls-15" d="M57.39,41.13a3.29,3.29,0,0,1-.77-.65,4.49,4.49,0,0,1-.69-1.09l0-.07-.61-1.45,0-.08a4.65,4.65,0,0,0-.74-1.17,3.41,3.41,0,0,0-.84-.71L52.13,35l-.74.44,1.53.88a3.45,3.45,0,0,1,.84.71,4.87,4.87,0,0,1,.75,1.17l0,.08.62,1.46,0,.07a3.9,3.9,0,0,0,.69,1.08,2.93,2.93,0,0,0,.77.65l2.13,1.23.74-.43Z"/><path class="cls-9" d="M52.92,36.34a4.14,4.14,0,0,1,1.62,2l.62,1.46a3.79,3.79,0,0,0,1.49,1.8l2.13,1.23V43l-2.13-1.23a4.14,4.14,0,0,1-1.62-2l-.62-1.46a3.91,3.91,0,0,0-1.49-1.8l-1.54-.88v-.18Z"/></g><g class="cls-2"><polygon class="cls-7" points="60.46 41.82 60.45 42 61.2 41.57 61.2 41.39 60.46 41.82"/><path class="cls-16" d="M59.07,40.16a3.29,3.29,0,0,1-.77-.65,4.49,4.49,0,0,1-.69-1.09l0-.07L57,36.9l0-.08a4.84,4.84,0,0,0-.74-1.17,3.41,3.41,0,0,0-.84-.71l-1.54-.89-.75.44,1.54.88a3.45,3.45,0,0,1,.84.71,4.55,4.55,0,0,1,.74,1.17.3.3,0,0,1,0,.08l.62,1.46,0,.07a3.9,3.9,0,0,0,.69,1.08,2.93,2.93,0,0,0,.77.65l2.13,1.23.74-.43Z"/><path class="cls-9" d="M54.6,35.37a4.14,4.14,0,0,1,1.62,2l.62,1.46a3.79,3.79,0,0,0,1.49,1.8l2.13,1.23V42l-2.13-1.23a4.14,4.14,0,0,1-1.62-2l-.62-1.46a3.91,3.91,0,0,0-1.49-1.8l-1.54-.88v-.18Z"/></g><g class="cls-2"><polygon class="cls-7" points="62.13 40.85 62.13 41.03 62.88 40.6 62.88 40.42 62.13 40.85"/><path class="cls-17" d="M60.75,39.19a3.29,3.29,0,0,1-.77-.65,4.49,4.49,0,0,1-.69-1.09l0-.06-.62-1.46,0-.08a4.84,4.84,0,0,0-.74-1.17A3.41,3.41,0,0,0,57,34l-1.54-.89-.75.44,1.54.88a3.65,3.65,0,0,1,.84.71,4.55,4.55,0,0,1,.74,1.17.3.3,0,0,1,0,.08l.62,1.46,0,.07A4.43,4.43,0,0,0,59.23,39a2.94,2.94,0,0,0,.78.65l2.13,1.23.74-.43Z"/><path class="cls-9" d="M56.28,34.4a4.2,4.2,0,0,1,1.62,2l.62,1.46A3.79,3.79,0,0,0,60,39.62l2.13,1.23V41L60,39.8a4.18,4.18,0,0,1-1.61-2l-.62-1.46a3.91,3.91,0,0,0-1.49-1.8l-1.54-.88v-.18Z"/></g><g class="cls-2"><polygon class="cls-7" points="63.81 39.88 63.81 40.06 64.56 39.63 64.56 39.45 63.81 39.88"/><path class="cls-18" d="M62.43,38.22a3.29,3.29,0,0,1-.77-.65A4.49,4.49,0,0,1,61,36.48l0-.06L60.32,35l0-.08a4.84,4.84,0,0,0-.74-1.17,3.41,3.41,0,0,0-.84-.71l-1.54-.89-.75.44,1.54.88a3.65,3.65,0,0,1,.84.71,4.55,4.55,0,0,1,.74,1.17.3.3,0,0,1,0,.08l.62,1.46,0,.07A4.43,4.43,0,0,0,60.91,38a3.06,3.06,0,0,0,.77.65l2.13,1.23.75-.43Z"/><path class="cls-9" d="M58,33.43a4.2,4.2,0,0,1,1.62,2l.62,1.46a3.83,3.83,0,0,0,1.48,1.8l2.13,1.23v.18l-2.13-1.23a4.18,4.18,0,0,1-1.61-2l-.62-1.45A3.88,3.88,0,0,0,58,33.61l-1.54-.88v-.18Z"/></g><g class="cls-2"><polygon class="cls-7" points="65.49 38.91 65.49 39.09 66.24 38.66 66.24 38.48 65.49 38.91"/><path class="cls-19" d="M64.11,37.25a3.29,3.29,0,0,1-.77-.65,4.49,4.49,0,0,1-.69-1.09l0-.06L62,34l0-.08a4.84,4.84,0,0,0-.74-1.17,3.49,3.49,0,0,0-.85-.71l-1.53-.89-.75.44,1.54.88a3.92,3.92,0,0,1,.84.71,4.84,4.84,0,0,1,.74,1.17l0,.08.61,1.46,0,.07A4.43,4.43,0,0,0,62.59,37a3.06,3.06,0,0,0,.77.65l2.13,1.23.75-.43Z"/><path class="cls-9" d="M59.64,32.46a4.2,4.2,0,0,1,1.62,2l.61,1.46a3.91,3.91,0,0,0,1.49,1.8l2.13,1.23v.18l-2.13-1.23a4.18,4.18,0,0,1-1.61-2l-.62-1.45a3.88,3.88,0,0,0-1.49-1.81l-1.54-.88v-.18Z"/></g><g class="cls-2"><polygon class="cls-7" points="67.17 37.94 67.17 38.12 67.92 37.69 67.92 37.51 67.17 37.94"/><path class="cls-20" d="M65.79,36.28a3.29,3.29,0,0,1-.77-.65,4.49,4.49,0,0,1-.69-1.09l0-.06L63.68,33l0-.08a4.59,4.59,0,0,0-.75-1.17,3.27,3.27,0,0,0-.84-.71l-1.53-.89-.75.44,1.54.88a3.92,3.92,0,0,1,.84.71,4.84,4.84,0,0,1,.74,1.17.59.59,0,0,0,0,.08l.61,1.46,0,.07a4.43,4.43,0,0,0,.69,1.08,3.06,3.06,0,0,0,.77.65l2.13,1.23.75-.43Z"/><path class="cls-9" d="M61.32,31.49a4.26,4.26,0,0,1,1.62,2l.61,1.46A3.91,3.91,0,0,0,65,36.71l2.13,1.23v.18L65,36.89a4.26,4.26,0,0,1-1.62-2l-.61-1.45a3.88,3.88,0,0,0-1.49-1.81l-1.54-.88v-.18Z"/></g><g class="cls-2"><polygon class="cls-7" points="68.85 36.97 68.85 37.15 69.6 36.72 69.6 36.54 68.85 36.97"/><path class="cls-21" d="M67.47,35.31a3.29,3.29,0,0,1-.77-.65A4.49,4.49,0,0,1,66,33.57l0-.06-.62-1.46,0-.08a4.59,4.59,0,0,0-.75-1.17,3.27,3.27,0,0,0-.84-.71l-1.53-.89-.75.44,1.54.88a3.92,3.92,0,0,1,.84.71,4.84,4.84,0,0,1,.74,1.17l0,.08.61,1.46,0,.07A4.43,4.43,0,0,0,66,35.09a3.06,3.06,0,0,0,.77.65L68.85,37l.75-.43Z"/><path class="cls-9" d="M63,30.52a4.26,4.26,0,0,1,1.62,2l.61,1.46a3.91,3.91,0,0,0,1.49,1.8L68.85,37v.18l-2.13-1.23a4.26,4.26,0,0,1-1.62-2l-.61-1.45A3.88,3.88,0,0,0,63,30.7l-1.54-.88v-.18Z"/></g><g class="cls-2"><polygon class="cls-7" points="70.53 36 70.53 36.18 71.28 35.75 71.28 35.57 70.53 36"/><path class="cls-22" d="M69.15,34.34a3.29,3.29,0,0,1-.77-.65,4.21,4.21,0,0,1-.69-1.09l0-.06L67,31.08,67,31a4.59,4.59,0,0,0-.75-1.17,3.27,3.27,0,0,0-.84-.71l-1.53-.88-.75.43,1.54.89a3.59,3.59,0,0,1,.84.7,4.84,4.84,0,0,1,.74,1.17.2.2,0,0,0,0,.08L66.91,33l0,.07a4.43,4.43,0,0,0,.69,1.08,3.06,3.06,0,0,0,.77.65L70.53,36l.75-.43Z"/><path class="cls-9" d="M64.68,29.56a4.18,4.18,0,0,1,1.62,2L66.91,33a3.86,3.86,0,0,0,1.49,1.8L70.53,36v.18L68.4,35a4.28,4.28,0,0,1-1.62-2l-.61-1.46a3.88,3.88,0,0,0-1.49-1.81l-1.54-.88v-.18Z"/></g><g class="cls-2"><polygon class="cls-7" points="72.21 35.03 72.21 35.21 72.96 34.78 72.96 34.6 72.21 35.03"/><path class="cls-23" d="M70.83,33.37a3.1,3.1,0,0,1-.77-.65,4.21,4.21,0,0,1-.69-1.09l0-.06-.62-1.46,0-.08a4.59,4.59,0,0,0-.75-1.17,3.27,3.27,0,0,0-.84-.71l-1.53-.88-.75.43,1.54.89a3.59,3.59,0,0,1,.84.7,4.84,4.84,0,0,1,.74,1.17l0,.08L68.59,32l0,.07a4.43,4.43,0,0,0,.69,1.08,3.06,3.06,0,0,0,.77.65L72.21,35,73,34.6Z"/><path class="cls-9" d="M66.36,28.59A4.18,4.18,0,0,1,68,30.54L68.59,32a3.86,3.86,0,0,0,1.49,1.8L72.21,35v.18L70.08,34A4.28,4.28,0,0,1,68.46,32l-.61-1.46a3.88,3.88,0,0,0-1.49-1.81l-1.54-.88V27.7Z"/></g><g class="cls-2"><polygon class="cls-7" points="73.89 34.06 73.89 34.24 74.64 33.81 74.64 33.63 73.89 34.06"/><path class="cls-24" d="M72.51,32.4a3.1,3.1,0,0,1-.77-.65,3.82,3.82,0,0,1-.69-1.09l0-.06-.62-1.46,0-.08a4.59,4.59,0,0,0-.75-1.17,3.45,3.45,0,0,0-.84-.71l-1.53-.88-.75.43,1.54.89a3.59,3.59,0,0,1,.84.7,4.72,4.72,0,0,1,.74,1.18l0,.07L70.27,31l0,.07A4.43,4.43,0,0,0,71,32.18a3.06,3.06,0,0,0,.77.65l2.13,1.23.75-.43Z"/><path class="cls-9" d="M68,27.62a4.11,4.11,0,0,1,1.61,1.95L70.27,31a3.81,3.81,0,0,0,1.49,1.8l2.13,1.23v.18L71.76,33a4.22,4.22,0,0,1-1.62-1.95l-.62-1.46A3.81,3.81,0,0,0,68,27.79l-1.54-.88v-.18Z"/></g><g class="cls-2"><polygon class="cls-7" points="75.57 33.09 75.57 33.27 76.32 32.84 76.32 32.66 75.57 33.09"/><path class="cls-25" d="M74.19,31.43a3.1,3.1,0,0,1-.77-.65,3.82,3.82,0,0,1-.69-1.09l0-.06-.62-1.46,0-.08a4.59,4.59,0,0,0-.75-1.17,3.45,3.45,0,0,0-.84-.71l-1.53-.88-.75.43,1.54.89a3.59,3.59,0,0,1,.84.7,4.72,4.72,0,0,1,.74,1.18l0,.07L72,30.06l0,.07a4.69,4.69,0,0,0,.69,1.09,3.24,3.24,0,0,0,.77.64l2.13,1.23.75-.43Z"/><path class="cls-9" d="M69.72,26.65a4.11,4.11,0,0,1,1.61,2L72,30.06a3.81,3.81,0,0,0,1.49,1.8l2.13,1.23v.18L73.44,32a4.22,4.22,0,0,1-1.62-1.95l-.62-1.46a3.81,3.81,0,0,0-1.48-1.81l-1.54-.88v-.18Z"/></g><g class="cls-2"><polygon class="cls-7" points="77.25 32.13 77.25 32.3 78 31.87 78 31.69 77.25 32.13"/><path class="cls-26" d="M75.87,30.46a3.1,3.1,0,0,1-.77-.65,3.9,3.9,0,0,1-.69-1.08l0-.07-.62-1.46,0-.08A4.59,4.59,0,0,0,73,26a3.45,3.45,0,0,0-.84-.71l-1.53-.88-.75.43,1.54.89a3.41,3.41,0,0,1,.84.71A4.48,4.48,0,0,1,73,27.56l0,.07.62,1.46,0,.07a4.69,4.69,0,0,0,.69,1.09,3.24,3.24,0,0,0,.77.64l2.13,1.23.75-.43Z"/><path class="cls-9" d="M71.4,25.68A4.2,4.2,0,0,1,73,27.63l.62,1.46a3.81,3.81,0,0,0,1.49,1.8l2.13,1.23v.18l-2.13-1.23a4.16,4.16,0,0,1-1.62-1.95l-.62-1.46a3.77,3.77,0,0,0-1.49-1.81L69.86,25v-.18Z"/></g><g class="cls-2"><polygon class="cls-7" points="78.93 31.16 78.93 31.33 79.68 30.9 79.68 30.72 78.93 31.16"/><path class="cls-27" d="M77.55,29.49a3.1,3.1,0,0,1-.77-.65,3.9,3.9,0,0,1-.69-1.08l0-.07-.62-1.46,0-.08A4.59,4.59,0,0,0,74.66,25a3.45,3.45,0,0,0-.84-.71l-1.53-.88-.75.43,1.53.89a3.09,3.09,0,0,1,.84.71,4.42,4.42,0,0,1,.75,1.17l0,.07.62,1.46,0,.07A4.69,4.69,0,0,0,76,29.28a3.55,3.55,0,0,0,.77.65l2.13,1.23.75-.44Z"/><path class="cls-9" d="M73.07,24.71a4.16,4.16,0,0,1,1.62,1.95l.62,1.46a3.88,3.88,0,0,0,1.49,1.81l2.13,1.23v.17L76.8,30.1a4.07,4.07,0,0,1-1.62-2l-.62-1.46a3.7,3.7,0,0,0-1.49-1.8L71.54,24v-.18Z"/></g><g class="cls-2"><polygon class="cls-9" points="31.11 48.62 31.11 48.8 30.36 48.37 30.36 48.19 31.11 48.62"/><path class="cls-28" d="M32.49,47a3.29,3.29,0,0,0,.77-.65A4.49,4.49,0,0,0,34,45.22l0-.06.62-1.46,0-.08a4.59,4.59,0,0,1,.75-1.17,3.27,3.27,0,0,1,.84-.71l1.53-.88.75.43L37,42.18a3.59,3.59,0,0,0-.84.7,4.84,4.84,0,0,0-.74,1.17.2.2,0,0,1,0,.08l-.61,1.46,0,.07A4.43,4.43,0,0,1,34,46.74a3.06,3.06,0,0,1-.77.65l-2.13,1.23-.75-.43Z"/><path class="cls-7" d="M37,42.18a4.18,4.18,0,0,0-1.62,2l-.61,1.46a3.86,3.86,0,0,1-1.49,1.8l-2.13,1.23v.18l2.13-1.23a4.26,4.26,0,0,0,1.62-2l.61-1.45A3.88,3.88,0,0,1,37,42.35l1.54-.88v-.18Z"/></g><g class="cls-2"><polygon class="cls-9" points="29.43 47.65 29.43 47.83 28.68 47.4 28.68 47.22 29.43 47.65"/><path class="cls-29" d="M30.81,46a3.29,3.29,0,0,0,.77-.65,4.21,4.21,0,0,0,.69-1.09l0-.06.62-1.46,0-.08a4.59,4.59,0,0,1,.75-1.17,3.27,3.27,0,0,1,.84-.71l1.53-.88.75.43-1.54.89a3.59,3.59,0,0,0-.84.7,4.84,4.84,0,0,0-.74,1.17.2.2,0,0,1,0,.08l-.61,1.46,0,.07a4.43,4.43,0,0,1-.69,1.08,3.06,3.06,0,0,1-.77.65l-2.13,1.23-.75-.43Z"/><path class="cls-7" d="M35.28,41.21a4.18,4.18,0,0,0-1.62,1.95l-.61,1.46a3.86,3.86,0,0,1-1.49,1.8l-2.13,1.23v.18l2.13-1.23a4.28,4.28,0,0,0,1.62-2l.61-1.46a3.88,3.88,0,0,1,1.49-1.81l1.54-.88v-.18Z"/></g><g class="cls-2"><polygon class="cls-9" points="27.75 46.68 27.75 46.86 27 46.43 27 46.25 27.75 46.68"/><path class="cls-30" d="M29.13,45a3.1,3.1,0,0,0,.77-.65,4,4,0,0,0,.69-1.09l0-.06.62-1.46,0-.08A4.59,4.59,0,0,1,32,40.51a3.27,3.27,0,0,1,.84-.71l1.53-.88.75.43-1.54.89a3.59,3.59,0,0,0-.84.7A4.72,4.72,0,0,0,32,42.12l0,.07-.62,1.46,0,.07a4.43,4.43,0,0,1-.69,1.08,3.06,3.06,0,0,1-.77.65l-2.13,1.23L27,46.25Z"/><path class="cls-7" d="M33.6,40.24A4.11,4.11,0,0,0,32,42.19l-.62,1.46a3.81,3.81,0,0,1-1.49,1.8l-2.13,1.23v.18l2.13-1.23a4.22,4.22,0,0,0,1.62-2l.61-1.46a3.88,3.88,0,0,1,1.49-1.81l1.54-.88v-.18Z"/></g><g class="cls-2"><polygon class="cls-9" points="26.07 45.71 26.07 45.89 25.32 45.46 25.32 45.28 26.07 45.71"/><path class="cls-31" d="M27.45,44.05a3.1,3.1,0,0,0,.77-.65,3.82,3.82,0,0,0,.69-1.09l0-.06.62-1.46,0-.08a4.59,4.59,0,0,1,.75-1.17,3.45,3.45,0,0,1,.84-.71L32.71,38l.75.43-1.54.89a3.59,3.59,0,0,0-.84.7,4.72,4.72,0,0,0-.74,1.18l0,.07-.62,1.46,0,.07A4.69,4.69,0,0,1,29,43.84a3.24,3.24,0,0,1-.77.64l-2.13,1.23-.75-.43Z"/><path class="cls-7" d="M31.92,39.27a4.11,4.11,0,0,0-1.61,1.95l-.62,1.46a3.81,3.81,0,0,1-1.49,1.8l-2.13,1.23v.18l2.13-1.23a4.22,4.22,0,0,0,1.62-1.95l.62-1.46a3.81,3.81,0,0,1,1.48-1.81l1.54-.88v-.18Z"/></g><g class="cls-2"><polygon class="cls-9" points="24.39 44.74 24.39 44.92 23.64 44.49 23.64 44.31 24.39 44.74"/><path class="cls-32" d="M25.77,43.08a3.1,3.1,0,0,0,.77-.65,3.9,3.9,0,0,0,.69-1.08l0-.07.62-1.46,0-.08a4.59,4.59,0,0,1,.75-1.17,3.45,3.45,0,0,1,.84-.71L31,37l.75.43-1.54.89a3.41,3.41,0,0,0-.84.71,4.48,4.48,0,0,0-.74,1.17l0,.07L28,41.71l0,.07a4.69,4.69,0,0,1-.69,1.09,3.24,3.24,0,0,1-.77.64l-2.13,1.23-.75-.43Z"/><path class="cls-7" d="M30.24,38.3a4.16,4.16,0,0,0-1.61,2L28,41.71a3.81,3.81,0,0,1-1.49,1.8l-2.13,1.23v.18l2.13-1.23a4.22,4.22,0,0,0,1.62-1.95l.62-1.46a3.77,3.77,0,0,1,1.49-1.81l1.53-.88v-.18Z"/></g><g class="cls-2"><polygon class="cls-9" points="22.71 43.77 22.71 43.95 21.96 43.52 21.96 43.34 22.71 43.77"/><path class="cls-33" d="M24.09,42.11a3.1,3.1,0,0,0,.77-.65,3.9,3.9,0,0,0,.69-1.08l0-.07.62-1.46,0-.08A4.59,4.59,0,0,1,27,37.6a3.45,3.45,0,0,1,.84-.71L29.35,36l.75.43-1.53.89a3.28,3.28,0,0,0-.85.71A4.65,4.65,0,0,0,27,39.21l0,.07-.62,1.46,0,.07a4.69,4.69,0,0,1-.69,1.09,3.55,3.55,0,0,1-.77.65l-2.13,1.23L22,43.34Z"/><path class="cls-7" d="M28.57,37.33a4.16,4.16,0,0,0-1.62,2l-.62,1.46a3.88,3.88,0,0,1-1.49,1.81l-2.13,1.23V44l2.13-1.23a4.07,4.07,0,0,0,1.62-1.95l.62-1.46a3.7,3.7,0,0,1,1.49-1.8l1.53-.89v-.18Z"/></g><g class="cls-2"><polygon class="cls-9" points="21.03 42.8 21.03 42.98 20.28 42.55 20.28 42.37 21.03 42.8"/><path class="cls-34" d="M22.41,41.14a2.9,2.9,0,0,0,.77-.65,3.9,3.9,0,0,0,.69-1.08l0-.07.62-1.46,0-.08a4.59,4.59,0,0,1,.75-1.17,3.45,3.45,0,0,1,.84-.71L27.67,35l.75.43-1.53.89a3.09,3.09,0,0,0-.84.71,4.42,4.42,0,0,0-.75,1.17l0,.07-.62,1.46,0,.07a4.69,4.69,0,0,1-.69,1.09,3.29,3.29,0,0,1-.77.65L21,42.81l-.75-.44Z"/><path class="cls-7" d="M26.89,36.36a4.16,4.16,0,0,0-1.62,2l-.62,1.46a3.88,3.88,0,0,1-1.49,1.81L21,42.81V43l2.13-1.23a4.07,4.07,0,0,0,1.62-2l.62-1.46a3.7,3.7,0,0,1,1.49-1.8l1.53-.89v-.18Z"/></g><g class="cls-2"><polygon class="cls-9" points="19.35 41.84 19.35 42.01 18.6 41.58 18.6 41.4 19.35 41.84"/><path class="cls-35" d="M20.73,40.17a2.75,2.75,0,0,0,.77-.65,3.9,3.9,0,0,0,.69-1.08l0-.07.62-1.46,0-.08a4.59,4.59,0,0,1,.75-1.17,3.45,3.45,0,0,1,.84-.71L26,34.07l.75.43-1.53.89a3.09,3.09,0,0,0-.84.71,4.42,4.42,0,0,0-.75,1.17l0,.07L23,38.8l0,.07A4.69,4.69,0,0,1,22.25,40a3.29,3.29,0,0,1-.77.65l-2.13,1.23-.75-.44Z"/><path class="cls-7" d="M25.21,35.39a4.16,4.16,0,0,0-1.62,2L23,38.8a3.88,3.88,0,0,1-1.49,1.81l-2.13,1.23V42l2.13-1.23a4.07,4.07,0,0,0,1.62-2l.62-1.46a3.7,3.7,0,0,1,1.49-1.8l1.53-.89V34.5Z"/></g><g class="cls-2"><polygon class="cls-9" points="17.67 40.87 17.67 41.04 16.93 40.61 16.92 40.43 17.67 40.87"/><path class="cls-36" d="M19.05,39.2a2.75,2.75,0,0,0,.77-.65,3.9,3.9,0,0,0,.69-1.08l0-.07.62-1.46,0-.08a4.87,4.87,0,0,1,.75-1.17,3.45,3.45,0,0,1,.84-.71l1.54-.88.74.43-1.53.89a3.09,3.09,0,0,0-.84.71,4.42,4.42,0,0,0-.75,1.17l0,.07-.62,1.46,0,.07A4.38,4.38,0,0,1,20.57,39a3.29,3.29,0,0,1-.77.65l-2.13,1.23-.75-.44Z"/><path class="cls-7" d="M23.53,34.42a4.16,4.16,0,0,0-1.62,1.95l-.62,1.46a3.88,3.88,0,0,1-1.49,1.81l-2.13,1.23V41l2.13-1.23a4.07,4.07,0,0,0,1.62-2L22,36.4a3.74,3.74,0,0,1,1.49-1.8l1.53-.89v-.18Z"/></g><g class="cls-2"><polygon class="cls-9" points="15.99 39.9 15.99 40.08 15.24 39.64 15.24 39.46 15.99 39.9"/><path class="cls-37" d="M17.37,38.23a2.75,2.75,0,0,0,.77-.65,4.18,4.18,0,0,0,.7-1.08l0-.07L19.48,35l0-.08a4.55,4.55,0,0,1,.74-1.17A3.69,3.69,0,0,1,21.1,33l1.54-.88.74.43-1.53.89a3.09,3.09,0,0,0-.84.71,4.42,4.42,0,0,0-.75,1.17l0,.08-.62,1.45,0,.07A4.38,4.38,0,0,1,18.89,38a3.1,3.1,0,0,1-.77.65L16,39.9l-.75-.44Z"/><path class="cls-7" d="M21.85,33.45a4.14,4.14,0,0,0-1.62,2l-.62,1.45a3.83,3.83,0,0,1-1.49,1.81L16,39.9v.17l2.13-1.23a4.07,4.07,0,0,0,1.62-2l.62-1.46a3.79,3.79,0,0,1,1.49-1.8l1.53-.89v-.18Z"/></g><g class="cls-2"><polygon class="cls-9" points="14.31 38.93 14.31 39.1 13.56 38.67 13.56 38.49 14.31 38.93"/><path class="cls-38" d="M15.7,37.26a3.06,3.06,0,0,0,.77-.65,4.43,4.43,0,0,0,.69-1.08l0-.07L17.8,34l0-.08a4.55,4.55,0,0,1,.74-1.17,3.92,3.92,0,0,1,.84-.71L21,31.16l.74.43-1.53.89a3.24,3.24,0,0,0-.84.71,4.42,4.42,0,0,0-.75,1.17l0,.08-.62,1.45,0,.07a4.11,4.11,0,0,1-.69,1.09,3.1,3.1,0,0,1-.77.65l-2.13,1.23-.75-.44Z"/><path class="cls-7" d="M20.17,32.48a4.14,4.14,0,0,0-1.62,2l-.62,1.45a3.77,3.77,0,0,1-1.49,1.81l-2.13,1.23v.18l2.13-1.23a4.14,4.14,0,0,0,1.62-2l.62-1.46a3.79,3.79,0,0,1,1.49-1.8l1.53-.89v-.18Z"/></g><g class="cls-2"><polygon class="cls-9" points="12.63 37.96 12.63 38.13 11.89 37.7 11.88 37.52 12.63 37.96"/><path class="cls-39" d="M14,36.29a3.06,3.06,0,0,0,.77-.65,4.43,4.43,0,0,0,.69-1.08l0-.07L16.12,33a.59.59,0,0,1,0-.08,4.84,4.84,0,0,1,.74-1.17,3.92,3.92,0,0,1,.84-.71l1.54-.88.74.43-1.53.89a3.24,3.24,0,0,0-.84.71,4.42,4.42,0,0,0-.75,1.17l0,.08-.62,1.45,0,.07a4,4,0,0,1-.69,1.09,3.1,3.1,0,0,1-.77.65L12.63,38l-.74-.44Z"/><path class="cls-7" d="M18.49,31.51a4.14,4.14,0,0,0-1.62,2l-.62,1.45a3.77,3.77,0,0,1-1.49,1.81L12.63,38v.18l2.13-1.23a4.14,4.14,0,0,0,1.62-2L17,33.49a3.85,3.85,0,0,1,1.49-1.8L20,30.8v-.18Z"/></g><g class="cls-2"><polygon class="cls-9" points="10.95 36.99 10.95 37.17 10.21 36.73 10.21 36.55 10.95 36.99"/><path class="cls-40" d="M12.34,35.32a3.06,3.06,0,0,0,.77-.65,4.43,4.43,0,0,0,.69-1.08l0-.07.61-1.46,0-.08a4.84,4.84,0,0,1,.74-1.17,3.59,3.59,0,0,1,.84-.7l1.54-.89.74.43-1.53.89a3.24,3.24,0,0,0-.84.71,4.59,4.59,0,0,0-.75,1.17l0,.08L14.57,34l0,.07a4,4,0,0,1-.69,1.09,3.1,3.1,0,0,1-.77.65L11,37l-.74-.44Z"/><path class="cls-7" d="M16.81,30.54a4.14,4.14,0,0,0-1.62,2L14.57,34a3.77,3.77,0,0,1-1.49,1.81L11,37v.18l2.13-1.23a4.14,4.14,0,0,0,1.62-2l.62-1.46a3.91,3.91,0,0,1,1.49-1.8l1.53-.89v-.18Z"/></g><g class="cls-2"><polygon class="cls-9" points="9.27 36.02 9.27 36.2 8.53 35.76 8.53 35.58 9.27 36.02"/><path class="cls-41" d="M10.66,34.35a3.06,3.06,0,0,0,.77-.65,4.43,4.43,0,0,0,.69-1.08l0-.07.61-1.46,0-.08a4.84,4.84,0,0,1,.74-1.17,3.59,3.59,0,0,1,.84-.7l1.54-.89.74.43-1.53.89a3.24,3.24,0,0,0-.84.71,4.59,4.59,0,0,0-.75,1.17l0,.08L12.89,33l0,.07a4,4,0,0,1-.69,1.09,3.1,3.1,0,0,1-.77.65L9.27,36l-.74-.44Z"/><path class="cls-7" d="M15.13,29.57a4.14,4.14,0,0,0-1.62,2L12.89,33a3.77,3.77,0,0,1-1.49,1.81L9.27,36v.18L11.4,35A4.14,4.14,0,0,0,13,33l.62-1.46a3.91,3.91,0,0,1,1.49-1.8l1.53-.89v-.18Z"/></g><g class="cls-2"><polygon class="cls-9" points="7.59 35.05 7.59 35.23 6.85 34.79 6.85 34.61 7.59 35.05"/><path class="cls-42" d="M9,33.38a3.06,3.06,0,0,0,.77-.65,4.43,4.43,0,0,0,.69-1.08l0-.07.61-1.46a.25.25,0,0,0,0-.07,4.72,4.72,0,0,1,.74-1.18,3.59,3.59,0,0,1,.84-.7l1.54-.89.74.43-1.53.89a3.24,3.24,0,0,0-.84.71,4.59,4.59,0,0,0-.75,1.17l0,.08L11.21,32l0,.06a4,4,0,0,1-.69,1.09,2.93,2.93,0,0,1-.77.65L7.59,35.05l-.74-.44Z"/><path class="cls-7" d="M13.45,28.6a4.14,4.14,0,0,0-1.62,2L11.21,32a3.79,3.79,0,0,1-1.49,1.8L7.59,35.05v.18L9.72,34a4.14,4.14,0,0,0,1.62-2L12,30.58a3.91,3.91,0,0,1,1.49-1.8L15,27.89v-.18Z"/></g><g class="cls-2"><polygon class="cls-9" points="5.91 34.08 5.91 34.26 5.17 33.82 5.17 33.64 5.91 34.08"/><path class="cls-43" d="M7.3,32.41a3.24,3.24,0,0,0,.77-.64,4.69,4.69,0,0,0,.69-1.09l0-.07.61-1.46a.25.25,0,0,0,0-.07,4.72,4.72,0,0,1,.74-1.18,3.59,3.59,0,0,1,.84-.7l1.54-.89.75.43-1.54.89a3.45,3.45,0,0,0-.84.71,4.87,4.87,0,0,0-.75,1.17l0,.08-.62,1.46,0,.06a4,4,0,0,1-.69,1.09,2.93,2.93,0,0,1-.77.65L5.91,34.08l-.74-.44Z"/><path class="cls-7" d="M11.77,27.63a4.14,4.14,0,0,0-1.62,2l-.62,1.46A3.79,3.79,0,0,1,8,32.85L5.91,34.08v.18L8,33a4.14,4.14,0,0,0,1.62-2l.62-1.46a3.91,3.91,0,0,1,1.49-1.8l1.54-.89v-.18Z"/></g><g class="cls-2"><polygon class="cls-9" points="4.23 33.11 4.24 33.29 3.49 32.85 3.49 32.67 4.23 33.11"/><path class="cls-44" d="M5.62,31.44a3.24,3.24,0,0,0,.77-.64,4.69,4.69,0,0,0,.69-1.09l0-.07.62-1.46,0-.07a4.48,4.48,0,0,1,.74-1.17,3.41,3.41,0,0,1,.84-.71l1.54-.89.75.43-1.54.89a3.45,3.45,0,0,0-.84.71,4.55,4.55,0,0,0-.74,1.17.3.3,0,0,0,0,.08l-.62,1.46,0,.06a4.24,4.24,0,0,1-.7,1.09,2.93,2.93,0,0,1-.77.65L4.23,33.11l-.74-.44Z"/><path class="cls-7" d="M10.09,26.66a4.14,4.14,0,0,0-1.62,2l-.62,1.46a3.79,3.79,0,0,1-1.49,1.8L4.23,33.11v.18l2.14-1.23A4.18,4.18,0,0,0,8,30.1l.62-1.46a3.91,3.91,0,0,1,1.49-1.8L11.63,26v-.18Z"/></g><g class="cls-2"><polygon class="cls-9" points="2.56 32.14 2.56 32.32 1.81 31.88 1.81 31.7 2.56 32.14"/><path class="cls-45" d="M3.94,30.48a3.55,3.55,0,0,0,.77-.65,4.69,4.69,0,0,0,.69-1.09l0-.07.62-1.46,0-.07A4.65,4.65,0,0,1,6.82,26a3.41,3.41,0,0,1,.84-.71l1.54-.89.75.43-1.54.89a3.65,3.65,0,0,0-.84.71,4.55,4.55,0,0,0-.74,1.17l0,.08-.62,1.46,0,.06a4.49,4.49,0,0,1-.69,1.09,3.29,3.29,0,0,1-.77.65L2.55,32.14l-.74-.43Z"/><path class="cls-7" d="M8.41,25.69a4.2,4.2,0,0,0-1.62,2l-.62,1.46a3.83,3.83,0,0,1-1.48,1.8L2.55,32.14v.18l2.13-1.23a4.18,4.18,0,0,0,1.61-2l.62-1.46a3.91,3.91,0,0,1,1.49-1.8L10,25V24.8Z"/></g><g class="cls-2"><polygon class="cls-9" points="0.88 31.17 0.88 31.35 0.13 30.91 0.13 30.73 0.88 31.17"/><path class="cls-46" d="M2.26,29.51A3.29,3.29,0,0,0,3,28.86a4.69,4.69,0,0,0,.69-1.09l0-.07.62-1.46,0-.07A4.65,4.65,0,0,1,5.14,25,3.41,3.41,0,0,1,6,24.29l1.54-.89.75.43-1.54.89a3.65,3.65,0,0,0-.84.71,4.55,4.55,0,0,0-.74,1.17.3.3,0,0,0,0,.08l-.62,1.46,0,.06a4.49,4.49,0,0,1-.69,1.09,3.29,3.29,0,0,1-.77.65L.88,31.17l-.75-.43Z"/><path class="cls-7" d="M6.73,24.72a4.2,4.2,0,0,0-1.62,2l-.62,1.46A3.83,3.83,0,0,1,3,29.94L.88,31.17v.18L3,30.12a4.18,4.18,0,0,0,1.61-2l.62-1.46a3.91,3.91,0,0,1,1.49-1.8L8.27,24v-.18Z"/></g><g class="cls-2"><path class="cls-47" d="M47.4,2.06,45.28,3.29A1.23,1.23,0,0,1,44,3.41l.74.44A1.27,1.27,0,0,0,46,3.72L48.15,2.5Z"/><path class="cls-9" d="M44.39,3.82l-.62-.74a1.07,1.07,0,0,0-.23-.2l-.75-.43a.71.71,0,0,1,.23.19l.63.75a.82.82,0,0,0,.25.21l.75.44A1.32,1.32,0,0,1,44.39,3.82Z"/><path class="cls-7" d="M48.15,2.5,46,3.72c-.62.35-1.17.33-1.51-.07l-.61-.75a1.23,1.23,0,0,0-1.64-.08l-1.53.89v.18L42.28,3c.6-.35,1.16-.33,1.49.07l.62.74A1.23,1.23,0,0,0,46,3.9l2.12-1.23Z"/><polygon class="cls-9" points="40.74 3.71 39.99 3.27 39.99 3.46 40.74 3.9 40.74 3.71"/><path class="cls-47" d="M42.91,2.25a1.36,1.36,0,0,0-1.38.14L40,3.27l.75.44,1.53-.89a1.38,1.38,0,0,1,1.38-.13Z"/></g><g class="cls-2"><path class="cls-47" d="M49,3,46.85,4.19a1.23,1.23,0,0,1-1.26.13l.74.44a1.27,1.27,0,0,0,1.27-.13L49.72,3.4Z"/><path class="cls-9" d="M46,4.73,45.34,4a.72.72,0,0,0-.23-.2l-.75-.43a.72.72,0,0,1,.24.19l.62.74a.9.9,0,0,0,.26.22l.74.44A1,1,0,0,1,46,4.73Z"/><path class="cls-7" d="M49.72,3.4,47.6,4.63a1.13,1.13,0,0,1-1.51-.08l-.61-.74a1.21,1.21,0,0,0-1.63-.08l-1.54.88V4.8l1.54-.88c.6-.35,1.16-.33,1.49.07l.63.74c.36.43,1,.46,1.63.08l2.12-1.23Z"/><polygon class="cls-9" points="42.31 4.61 41.56 4.18 41.56 4.37 42.31 4.8 42.31 4.61"/><path class="cls-47" d="M44.48,3.16a1.38,1.38,0,0,0-1.38.13l-1.54.89.75.43,1.54-.88a1.36,1.36,0,0,1,1.38-.14Z"/></g><g class="cls-2"><path class="cls-47" d="M50.54,3.88,48.42,5.1a1.25,1.25,0,0,1-1.26.13l.74.43a1.24,1.24,0,0,0,1.27-.12l2.12-1.23Z"/><path class="cls-9" d="M47.54,5.63l-.63-.74a.71.71,0,0,0-.23-.19l-.74-.44a1.07,1.07,0,0,1,.23.2l.62.74a1.09,1.09,0,0,0,.26.22l.74.43A.74.74,0,0,1,47.54,5.63Z"/><path class="cls-7" d="M51.29,4.31,49.17,5.54a1.12,1.12,0,0,1-1.5-.08l-.62-.75a1.23,1.23,0,0,0-1.63-.08l-1.54.89v.19l1.54-.89a1.12,1.12,0,0,1,1.49.07l.63.74c.36.44,1,.47,1.63.08l2.12-1.22Z"/><polygon class="cls-9" points="43.88 5.52 43.14 5.09 43.14 5.28 43.88 5.71 43.88 5.52"/><path class="cls-47" d="M46.05,4.07a1.38,1.38,0,0,0-1.38.13l-1.53.89.74.43,1.54-.89A1.38,1.38,0,0,1,46.8,4.5Z"/></g><g class="cls-2"><path class="cls-47" d="M52.12,4.78,50,6a1.25,1.25,0,0,1-1.26.13l.75.43a1.25,1.25,0,0,0,1.26-.13l2.12-1.22Z"/><path class="cls-9" d="M49.11,6.54l-.63-.74a.74.74,0,0,0-.23-.2l-.74-.43a.85.85,0,0,1,.23.2l.62.74a1.09,1.09,0,0,0,.26.22l.75.43A.78.78,0,0,1,49.11,6.54Z"/><path class="cls-7" d="M52.86,5.22,50.74,6.44a1.11,1.11,0,0,1-1.5-.07l-.62-.75A1.23,1.23,0,0,0,47,5.54l-1.54.89v.19L47,5.73c.6-.35,1.17-.33,1.49.07l.63.74c.36.44,1,.46,1.63.08L52.86,5.4Z"/><polygon class="cls-9" points="45.45 6.43 44.71 5.99 44.71 6.18 45.45 6.62 45.45 6.43"/><path class="cls-47" d="M47.62,5a1.36,1.36,0,0,0-1.38.14L44.71,6l.74.44L47,5.54a1.38,1.38,0,0,1,1.38-.13Z"/></g><g class="cls-2"><path class="cls-47" d="M53.69,5.69,51.57,6.92A1.24,1.24,0,0,1,50.3,7l.75.44a1.25,1.25,0,0,0,1.26-.13l2.12-1.22Z"/><path class="cls-9" d="M50.68,7.45l-.62-.74a.91.91,0,0,0-.24-.2l-.74-.43a1,1,0,0,1,.23.19l.62.75a1,1,0,0,0,.26.21l.75.44A1.09,1.09,0,0,1,50.68,7.45Z"/><path class="cls-7" d="M54.43,6.13,52.31,7.35c-.61.35-1.16.33-1.5-.07l-.62-.75a1.22,1.22,0,0,0-1.63-.08L47,7.34v.18l1.53-.88a1.12,1.12,0,0,1,1.5.07l.62.74a1.22,1.22,0,0,0,1.63.08L54.43,6.3Z"/><polygon class="cls-9" points="47.03 7.33 46.28 6.9 46.28 7.09 47.03 7.52 47.03 7.33"/><path class="cls-47" d="M49.19,5.88A1.36,1.36,0,0,0,47.81,6l-1.53.88.75.44,1.53-.89a1.36,1.36,0,0,1,1.38-.13Z"/></g><g class="cls-2"><path class="cls-47" d="M55.26,6.6,53.14,7.82A1.27,1.27,0,0,1,51.87,8l.75.43a1.23,1.23,0,0,0,1.26-.12L56,7Z"/><path class="cls-9" d="M52.25,8.36l-.62-.75a1,1,0,0,0-.23-.19L50.65,7a.87.87,0,0,1,.23.2l.62.74a1.05,1.05,0,0,0,.26.22l.75.44A1.09,1.09,0,0,1,52.25,8.36Z"/><path class="cls-7" d="M56,7,53.88,8.26a1.12,1.12,0,0,1-1.5-.08l-.61-.74a1.22,1.22,0,0,0-1.64-.08l-1.53.88v.19l1.53-.89c.61-.34,1.17-.32,1.5.07l.62.75a1.22,1.22,0,0,0,1.63.08L56,7.21Z"/><polygon class="cls-9" points="48.6 8.24 47.85 7.81 47.85 8 48.6 8.43 48.6 8.24"/><path class="cls-47" d="M50.77,6.79a1.38,1.38,0,0,0-1.38.13l-1.54.89.75.43,1.53-.88a1.36,1.36,0,0,1,1.38-.14Z"/></g><g class="cls-2"><path class="cls-47" d="M56.83,7.51,54.71,8.73a1.27,1.27,0,0,1-1.27.13l.75.43a1.25,1.25,0,0,0,1.27-.13l2.12-1.22Z"/><path class="cls-9" d="M53.82,9.26l-.62-.74A1,1,0,0,0,53,8.33l-.75-.44a.87.87,0,0,1,.23.2l.63.74a1,1,0,0,0,.25.22l.75.43A1.05,1.05,0,0,1,53.82,9.26Z"/><path class="cls-7" d="M57.58,7.94,55.46,9.16c-.62.36-1.17.33-1.51-.07l-.61-.75a1.25,1.25,0,0,0-1.64-.08l-1.53.89v.19l1.53-.89a1.13,1.13,0,0,1,1.5.07l.62.74c.37.44,1,.47,1.64.08l2.12-1.22Z"/><polygon class="cls-9" points="50.17 9.15 49.42 8.72 49.42 8.9 50.17 9.34 50.17 9.15"/><path class="cls-47" d="M52.34,7.7A1.38,1.38,0,0,0,51,7.83l-1.54.89.75.43,1.53-.89a1.38,1.38,0,0,1,1.38-.13Z"/></g><g class="cls-2"><path class="cls-47" d="M58.4,8.41,56.28,9.64A1.25,1.25,0,0,1,55,9.77l.74.43A1.27,1.27,0,0,0,57,10.07l2.12-1.22Z"/><path class="cls-9" d="M55.39,10.17l-.62-.74a1.07,1.07,0,0,0-.23-.2l-.75-.43A.63.63,0,0,1,54,9l.63.74a1,1,0,0,0,.25.22l.75.43A1.32,1.32,0,0,1,55.39,10.17Z"/><path class="cls-7" d="M59.15,8.85,57,10.07c-.62.36-1.17.33-1.51-.07l-.61-.75a1.23,1.23,0,0,0-1.63-.08l-1.54.89v.19l1.54-.89c.6-.35,1.16-.33,1.49.07l.62.74c.37.44,1,.46,1.64.08L59.15,9Z"/><polygon class="cls-9" points="51.74 10.06 50.99 9.62 50.99 9.81 51.74 10.24 51.74 10.06"/><path class="cls-47" d="M53.91,8.6a1.36,1.36,0,0,0-1.38.14L51,9.62l.75.44,1.54-.89A1.36,1.36,0,0,1,54.65,9Z"/></g><g class="cls-2"><path class="cls-47" d="M60,9.32l-2.12,1.23a1.23,1.23,0,0,1-1.26.12l.74.44A1.27,1.27,0,0,0,58.6,11l2.12-1.23Z"/><path class="cls-9" d="M57,11.08l-.63-.74a.87.87,0,0,0-.23-.2l-.75-.43a.88.88,0,0,1,.24.19l.62.74a.9.9,0,0,0,.26.22l.74.44A1,1,0,0,1,57,11.08Z"/><path class="cls-7" d="M60.72,9.75,58.6,11a1.13,1.13,0,0,1-1.51-.08l-.61-.74a1.21,1.21,0,0,0-1.63-.08L53.31,11v.19l1.54-.88c.6-.35,1.16-.33,1.49.07l.63.74c.36.43,1,.46,1.63.08l2.12-1.23Z"/><polygon class="cls-9" points="53.31 10.96 52.56 10.53 52.56 10.72 53.31 11.15 53.31 10.96"/><path class="cls-47" d="M55.48,9.51a1.38,1.38,0,0,0-1.38.13l-1.54.89.75.43,1.54-.88A1.33,1.33,0,0,1,56.23,10Z"/></g><g class="cls-2"><path class="cls-47" d="M61.54,10.23l-2.12,1.22a1.25,1.25,0,0,1-1.26.13l.74.43a1.24,1.24,0,0,0,1.27-.12l2.12-1.23Z"/><path class="cls-9" d="M58.54,12l-.63-.75a.71.71,0,0,0-.23-.19l-.74-.44a1.07,1.07,0,0,1,.23.2l.62.74a.9.9,0,0,0,.26.22l.74.43A.82.82,0,0,1,58.54,12Z"/><path class="cls-7" d="M62.29,10.66l-2.12,1.23a1.12,1.12,0,0,1-1.5-.08l-.62-.74A1.21,1.21,0,0,0,56.42,11l-1.54.88v.19l1.54-.89a1.13,1.13,0,0,1,1.49.07l.63.75a1.22,1.22,0,0,0,1.63.08l2.12-1.23Z"/><polygon class="cls-9" points="54.88 11.87 54.14 11.44 54.14 11.63 54.88 12.06 54.88 11.87"/><path class="cls-47" d="M57.05,10.42a1.38,1.38,0,0,0-1.38.13l-1.53.89.74.43L56.42,11a1.36,1.36,0,0,1,1.38-.14Z"/></g><g class="cls-2"><path class="cls-47" d="M63.12,11.14,61,12.36a1.25,1.25,0,0,1-1.26.13l.75.43a1.25,1.25,0,0,0,1.26-.13l2.12-1.22Z"/><path class="cls-9" d="M60.11,12.89l-.63-.74a.74.74,0,0,0-.23-.2l-.74-.43a1.07,1.07,0,0,1,.23.2l.62.74a1.09,1.09,0,0,0,.26.22l.75.43A.78.78,0,0,1,60.11,12.89Z"/><path class="cls-7" d="M63.86,11.57l-2.12,1.22a1.11,1.11,0,0,1-1.5-.07L59.62,12A1.23,1.23,0,0,0,58,11.89l-1.54.89V13L58,12.08a1.12,1.12,0,0,1,1.49.07l.63.74c.36.44,1,.47,1.63.08l2.12-1.22Z"/><polygon class="cls-9" points="56.45 12.78 55.71 12.35 55.71 12.53 56.45 12.97 56.45 12.78"/><path class="cls-47" d="M58.62,11.33a1.36,1.36,0,0,0-1.38.13l-1.53.89.74.43L58,11.89a1.38,1.38,0,0,1,1.38-.13Z"/></g><g class="cls-2"><path class="cls-47" d="M64.69,12l-2.12,1.23a1.24,1.24,0,0,1-1.27.12l.75.44a1.25,1.25,0,0,0,1.26-.13l2.12-1.22Z"/><path class="cls-9" d="M61.68,13.8l-.62-.74a.91.91,0,0,0-.24-.2l-.74-.43a1,1,0,0,1,.23.19l.62.75a1,1,0,0,0,.26.21l.75.44A1.09,1.09,0,0,1,61.68,13.8Z"/><path class="cls-7" d="M65.43,12.48,63.31,13.7c-.61.35-1.16.33-1.5-.07l-.62-.75a1.22,1.22,0,0,0-1.63-.08L58,13.69v.18L59.56,13a1.12,1.12,0,0,1,1.5.07l.62.74a1.22,1.22,0,0,0,1.63.08l2.12-1.23Z"/><polygon class="cls-9" points="58.03 13.69 57.28 13.25 57.28 13.44 58.03 13.88 58.03 13.69"/><path class="cls-47" d="M60.19,12.23a1.36,1.36,0,0,0-1.38.14l-1.53.88.75.44,1.53-.89a1.38,1.38,0,0,1,1.38-.13Z"/></g><g class="cls-2"><path class="cls-47" d="M66.26,13l-2.12,1.22a1.25,1.25,0,0,1-1.27.13l.75.44a1.25,1.25,0,0,0,1.26-.13L67,13.38Z"/><path class="cls-9" d="M63.25,14.71,62.63,14a.85.85,0,0,0-.23-.2l-.75-.43a.69.69,0,0,1,.23.19l.63.74a.86.86,0,0,0,.25.22l.75.44A1.09,1.09,0,0,1,63.25,14.71Z"/><path class="cls-7" d="M67,13.38l-2.13,1.23a1.12,1.12,0,0,1-1.5-.08l-.61-.74a1.22,1.22,0,0,0-1.64-.08l-1.53.88v.19l1.53-.88c.61-.35,1.17-.33,1.5.07l.62.74a1.22,1.22,0,0,0,1.63.08L67,13.56Z"/><polygon class="cls-9" points="59.6 14.59 58.85 14.16 58.85 14.35 59.6 14.78 59.6 14.59"/><path class="cls-47" d="M61.77,13.14a1.38,1.38,0,0,0-1.38.13l-1.54.89.75.43,1.53-.88a1.36,1.36,0,0,1,1.38-.14Z"/></g><g class="cls-2"><path class="cls-47" d="M67.83,13.86l-2.12,1.22a1.27,1.27,0,0,1-1.27.13l.75.43a1.24,1.24,0,0,0,1.27-.12l2.12-1.23Z"/><path class="cls-9" d="M64.82,15.61l-.62-.74a1,1,0,0,0-.23-.19l-.75-.44a.87.87,0,0,1,.23.2l.63.74a1,1,0,0,0,.25.22l.75.43A.87.87,0,0,1,64.82,15.61Z"/><path class="cls-7" d="M68.58,14.29l-2.12,1.23A1.13,1.13,0,0,1,65,15.44l-.61-.75a1.25,1.25,0,0,0-1.64-.08l-1.53.89v.19l1.53-.89a1.13,1.13,0,0,1,1.5.07l.62.74c.37.44,1,.47,1.64.08l2.12-1.22Z"/><polygon class="cls-9" points="61.17 15.5 60.42 15.07 60.42 15.26 61.17 15.69 61.17 15.5"/><path class="cls-47" d="M63.34,14.05a1.38,1.38,0,0,0-1.38.13l-1.54.89.75.43,1.53-.89a1.38,1.38,0,0,1,1.38-.13Z"/></g><g class="cls-2"><path class="cls-47" d="M69.4,14.76,67.28,16a1.25,1.25,0,0,1-1.26.13l.74.43A1.27,1.27,0,0,0,68,16.42l2.12-1.22Z"/><path class="cls-9" d="M66.39,16.52l-.62-.74a1.07,1.07,0,0,0-.23-.2l-.75-.43a.63.63,0,0,1,.23.2l.63.74a.92.92,0,0,0,.26.22l.74.43A1.05,1.05,0,0,1,66.39,16.52Z"/><path class="cls-7" d="M70.15,15.2,68,16.42c-.62.36-1.17.33-1.51-.07l-.61-.75a1.23,1.23,0,0,0-1.63-.08l-1.54.89v.19l1.54-.89c.6-.35,1.16-.33,1.49.07l.62.74c.37.44,1,.46,1.64.08l2.12-1.22Z"/><polygon class="cls-9" points="62.74 16.41 61.99 15.97 61.99 16.16 62.74 16.6 62.74 16.41"/><path class="cls-47" d="M64.91,15a1.36,1.36,0,0,0-1.38.14L62,16l.75.44,1.54-.89a1.36,1.36,0,0,1,1.37-.13Z"/></g><g class="cls-2"><path class="cls-47" d="M71,15.67,68.85,16.9a1.23,1.23,0,0,1-1.26.12l.74.44a1.27,1.27,0,0,0,1.27-.13l2.12-1.22Z"/><path class="cls-9" d="M68,17.43l-.63-.74a.87.87,0,0,0-.23-.2l-.75-.43a.88.88,0,0,1,.24.19l.62.75a.86.86,0,0,0,.26.21l.74.44A1,1,0,0,1,68,17.43Z"/><path class="cls-7" d="M71.72,16.11,69.6,17.33a1.13,1.13,0,0,1-1.51-.07l-.61-.75a1.22,1.22,0,0,0-1.63-.08l-1.54.89v.18l1.54-.88c.6-.35,1.16-.33,1.49.07l.63.74c.36.43,1,.46,1.63.08l2.12-1.23Z"/><polygon class="cls-9" points="64.31 17.32 63.56 16.88 63.56 17.07 64.31 17.5 64.31 17.32"/><path class="cls-47" d="M66.48,15.86A1.36,1.36,0,0,0,65.1,16l-1.54.88.75.44,1.54-.89a1.35,1.35,0,0,1,1.38-.13Z"/></g><g class="cls-2"><path class="cls-47" d="M72.54,16.58,70.42,17.8a1.25,1.25,0,0,1-1.26.13l.74.43a1.24,1.24,0,0,0,1.27-.12L73.29,17Z"/><path class="cls-9" d="M69.54,18.34l-.63-.75a.71.71,0,0,0-.23-.19L67.94,17a1.07,1.07,0,0,1,.23.2l.62.74a.9.9,0,0,0,.26.22l.74.44A1,1,0,0,1,69.54,18.34Z"/><path class="cls-7" d="M73.29,17l-2.12,1.23a1.12,1.12,0,0,1-1.5-.08l-.62-.74a1.21,1.21,0,0,0-1.63-.08l-1.54.88v.19l1.54-.89a1.13,1.13,0,0,1,1.49.07l.63.75a1.22,1.22,0,0,0,1.63.08l2.12-1.23Z"/><polygon class="cls-9" points="65.88 18.22 65.14 17.79 65.14 17.98 65.88 18.41 65.88 18.22"/><path class="cls-47" d="M68.05,16.77a1.38,1.38,0,0,0-1.38.13l-1.53.89.74.43,1.54-.88a1.36,1.36,0,0,1,1.38-.14Z"/></g><g class="cls-2"><path class="cls-47" d="M74.12,17.49,72,18.71a1.25,1.25,0,0,1-1.26.13l.75.43a1.23,1.23,0,0,0,1.26-.13l2.12-1.22Z"/><path class="cls-9" d="M71.11,19.24l-.63-.74a.6.6,0,0,0-.23-.19l-.74-.44a1.07,1.07,0,0,1,.23.2l.62.74a1.09,1.09,0,0,0,.26.22l.75.43A.78.78,0,0,1,71.11,19.24Z"/><path class="cls-7" d="M74.86,17.92l-2.12,1.22a1.11,1.11,0,0,1-1.5-.07l-.62-.75A1.23,1.23,0,0,0,69,18.24l-1.54.89v.19L69,18.43a1.12,1.12,0,0,1,1.49.07l.63.74c.36.44,1,.47,1.63.08l2.12-1.22Z"/><polygon class="cls-9" points="67.45 19.13 66.71 18.7 66.71 18.88 67.45 19.32 67.45 19.13"/><path class="cls-47" d="M69.62,17.68a1.38,1.38,0,0,0-1.38.13l-1.53.89.74.43L69,18.24a1.38,1.38,0,0,1,1.38-.13Z"/></g><g class="cls-2"><path class="cls-47" d="M75.69,18.39l-2.12,1.23a1.27,1.27,0,0,1-1.27.13l.75.43a1.25,1.25,0,0,0,1.26-.13l2.12-1.22Z"/><path class="cls-9" d="M72.68,20.15l-.62-.74a.91.91,0,0,0-.24-.2l-.74-.43a.85.85,0,0,1,.23.2l.62.74a1.32,1.32,0,0,0,.26.22l.75.43A1.09,1.09,0,0,1,72.68,20.15Z"/><path class="cls-7" d="M76.43,18.83l-2.12,1.22a1.11,1.11,0,0,1-1.5-.07l-.62-.75a1.23,1.23,0,0,0-1.63-.08L69,20v.19l1.53-.89a1.12,1.12,0,0,1,1.5.07l.62.74c.36.44,1,.46,1.63.08L76.43,19Z"/><polygon class="cls-9" points="69.03 20.04 68.28 19.6 68.28 19.79 69.03 20.23 69.03 20.04"/><path class="cls-47" d="M71.19,18.58a1.36,1.36,0,0,0-1.38.14l-1.53.88L69,20l1.53-.89A1.38,1.38,0,0,1,71.94,19Z"/></g><g class="cls-2"><path class="cls-47" d="M77.26,19.3l-2.12,1.23a1.24,1.24,0,0,1-1.27.12l.75.44A1.25,1.25,0,0,0,75.88,21L78,19.73Z"/><path class="cls-9" d="M74.25,21.06l-.62-.74a1.07,1.07,0,0,0-.23-.2l-.75-.43a.83.83,0,0,1,.23.19l.63.74a.86.86,0,0,0,.25.22l.75.44A1.09,1.09,0,0,1,74.25,21.06Z"/><path class="cls-7" d="M78,19.73,75.88,21a1.12,1.12,0,0,1-1.5-.08l-.61-.74a1.22,1.22,0,0,0-1.64-.08l-1.53.88v.19l1.53-.88c.61-.35,1.17-.33,1.5.07l.62.74a1.22,1.22,0,0,0,1.63.08L78,19.91Z"/><polygon class="cls-9" points="70.6 20.94 69.85 20.51 69.85 20.7 70.6 21.13 70.6 20.94"/><path class="cls-47" d="M72.77,19.49a1.38,1.38,0,0,0-1.38.13l-1.54.89.75.43,1.53-.88a1.33,1.33,0,0,1,1.38-.13Z"/></g><g class="cls-2"><path class="cls-47" d="M78.83,20.21l-2.12,1.22a1.27,1.27,0,0,1-1.27.13l.75.43a1.24,1.24,0,0,0,1.27-.12l2.12-1.23Z"/><path class="cls-9" d="M75.82,22l-.62-.75A1,1,0,0,0,75,21l-.75-.44a.87.87,0,0,1,.23.2l.63.74a.86.86,0,0,0,.25.22l.75.43A1,1,0,0,1,75.82,22Z"/><path class="cls-7" d="M79.58,20.64l-2.12,1.23A1.13,1.13,0,0,1,76,21.79l-.61-.74A1.22,1.22,0,0,0,73.7,21l-1.53.88V22l1.53-.89c.61-.34,1.17-.32,1.5.07l.62.75c.37.43,1,.46,1.64.07l2.12-1.22Z"/><polygon class="cls-9" points="72.17 21.85 71.42 21.42 71.42 21.61 72.17 22.04 72.17 21.85"/><path class="cls-47" d="M74.34,20.4a1.38,1.38,0,0,0-1.38.13l-1.54.89.75.43L73.7,21a1.36,1.36,0,0,1,1.38-.14Z"/></g><g class="cls-2"><path class="cls-48" d="M32.18,2,34.3,3.23a1.25,1.25,0,0,0,1.26.13l-.74.43a1.24,1.24,0,0,1-1.27-.12L31.43,2.44Z"/><path class="cls-9" d="M35.18,3.76,35.81,3A.83.83,0,0,1,36,2.83l.75-.44a.91.91,0,0,0-.24.2l-.62.74a1.09,1.09,0,0,1-.26.22L34.93,4A.74.74,0,0,0,35.18,3.76Z"/><path class="cls-49" d="M31.43,2.44l2.12,1.23a1.12,1.12,0,0,0,1.5-.08l.62-.75a1.23,1.23,0,0,1,1.63-.08l1.54.89v.19L37.3,3A1.12,1.12,0,0,0,35.81,3l-.63.74c-.36.44-1,.47-1.63.08L31.43,2.62Z"/><polygon class="cls-9" points="38.84 3.65 39.58 3.22 39.58 3.4 38.84 3.84 38.84 3.65"/><path class="cls-48" d="M36.67,2.2a1.38,1.38,0,0,1,1.38.13l1.53.89-.74.43L37.3,2.76a1.38,1.38,0,0,0-1.38-.13Z"/></g><g class="cls-2"><path class="cls-48" d="M30.6,2.91l2.13,1.23A1.25,1.25,0,0,0,34,4.27l-.75.43A1.25,1.25,0,0,1,32,4.57L29.86,3.35Z"/><path class="cls-9" d="M33.61,4.67l.63-.74a.74.74,0,0,1,.23-.2l.74-.43a1.07,1.07,0,0,0-.23.2l-.62.74a1.09,1.09,0,0,1-.26.22l-.75.43A.78.78,0,0,0,33.61,4.67Z"/><path class="cls-49" d="M29.86,3.35,32,4.57a1.11,1.11,0,0,0,1.5-.07l.62-.75a1.23,1.23,0,0,1,1.63-.08l1.54.89v.19l-1.54-.89c-.6-.35-1.16-.33-1.49.07l-.63.74c-.36.44-1,.47-1.63.08L29.86,3.53Z"/><polygon class="cls-9" points="37.27 4.56 38.01 4.12 38.01 4.31 37.27 4.75 37.27 4.56"/><path class="cls-48" d="M35.1,3.11a1.36,1.36,0,0,1,1.38.13L38,4.12l-.74.44-1.54-.89a1.38,1.38,0,0,0-1.38-.13Z"/></g><g class="cls-2"><path class="cls-48" d="M29,3.82l2.12,1.23a1.24,1.24,0,0,0,1.27.12l-.75.44a1.25,1.25,0,0,1-1.26-.13L28.29,4.26Z"/><path class="cls-9" d="M32,5.58l.62-.74a.91.91,0,0,1,.24-.2l.74-.43a1,1,0,0,0-.23.19l-.62.75a1,1,0,0,1-.26.21l-.75.44A1.09,1.09,0,0,0,32,5.58Z"/><path class="cls-49" d="M28.29,4.26l2.12,1.22c.61.35,1.16.33,1.5-.07l.62-.75a1.22,1.22,0,0,1,1.63-.08l1.53.89v.18l-1.53-.88a1.12,1.12,0,0,0-1.5.07L32,5.58a1.22,1.22,0,0,1-1.63.08L28.29,4.43Z"/><polygon class="cls-9" points="35.7 5.47 36.44 5.03 36.44 5.22 35.69 5.65 35.7 5.47"/><path class="cls-48" d="M33.53,4a1.36,1.36,0,0,1,1.38.14L36.44,5l-.75.44-1.53-.89a1.36,1.36,0,0,0-1.38-.13Z"/></g><g class="cls-2"><path class="cls-48" d="M27.46,4.73,29.58,6a1.27,1.27,0,0,0,1.27.13l-.75.43a1.23,1.23,0,0,1-1.26-.12L26.71,5.16Z"/><path class="cls-9" d="M30.47,6.49l.62-.74a.85.85,0,0,1,.23-.2l.75-.44a1.07,1.07,0,0,0-.23.2l-.62.74a1.05,1.05,0,0,1-.26.22l-.75.44A1.09,1.09,0,0,0,30.47,6.49Z"/><path class="cls-49" d="M26.71,5.16l2.13,1.23a1.12,1.12,0,0,0,1.5-.08L31,5.57c.36-.43,1-.47,1.63-.08l1.53.88v.19l-1.53-.89c-.61-.34-1.17-.32-1.5.08l-.62.74a1.22,1.22,0,0,1-1.63.08L26.71,5.34Z"/><polygon class="cls-9" points="34.12 6.37 34.87 5.94 34.87 6.13 34.12 6.56 34.12 6.37"/><path class="cls-48" d="M32,4.92a1.36,1.36,0,0,1,1.37.13l1.54.89-.75.43-1.53-.88a1.36,1.36,0,0,0-1.38-.14Z"/></g><g class="cls-2"><path class="cls-48" d="M25.89,5.64,28,6.86A1.27,1.27,0,0,0,29.28,7l-.75.43a1.25,1.25,0,0,1-1.26-.12L25.14,6.07Z"/><path class="cls-9" d="M28.9,7.39l.62-.74a1,1,0,0,1,.23-.19L30.5,6a.87.87,0,0,0-.23.2L29.64,7a1,1,0,0,1-.25.22l-.75.43A.9.9,0,0,0,28.9,7.39Z"/><path class="cls-49" d="M25.14,6.07,27.27,7.3a1.12,1.12,0,0,0,1.5-.08l.61-.75A1.25,1.25,0,0,1,31,6.39l1.53.89v.19L31,6.58a1.13,1.13,0,0,0-1.5.07l-.62.74c-.37.44-1,.47-1.64.08L25.14,6.25Z"/><polygon class="cls-9" points="32.55 7.28 33.3 6.85 33.3 7.04 32.55 7.47 32.55 7.28"/><path class="cls-48" d="M30.38,5.83A1.38,1.38,0,0,1,31.76,6l1.54.89-.75.43L31,6.39a1.38,1.38,0,0,0-1.38-.13Z"/></g><g class="cls-2"><path class="cls-48" d="M24.32,6.54l2.12,1.23a1.27,1.27,0,0,0,1.27.13L27,8.33a1.27,1.27,0,0,1-1.27-.13L23.57,7Z"/><path class="cls-9" d="M27.33,8.3,28,7.56a1.07,1.07,0,0,1,.23-.2l.75-.43a.63.63,0,0,0-.23.2l-.63.74a1,1,0,0,1-.25.22l-.75.43A1.32,1.32,0,0,0,27.33,8.3Z"/><path class="cls-49" d="M23.57,7,25.69,8.2c.62.36,1.17.33,1.51-.07l.61-.75a1.25,1.25,0,0,1,1.64-.08L31,8.19v.19l-1.54-.89c-.6-.35-1.16-.33-1.49.07l-.62.74c-.37.44-1,.46-1.64.08L23.57,7.16Z"/><polygon class="cls-9" points="30.98 8.19 31.73 7.75 31.73 7.94 30.98 8.38 30.98 8.19"/><path class="cls-48" d="M28.81,6.73a1.36,1.36,0,0,1,1.38.14l1.54.88L31,8.19,29.45,7.3a1.38,1.38,0,0,0-1.38-.13Z"/></g><g class="cls-2"><path class="cls-48" d="M22.75,7.45l2.12,1.23a1.23,1.23,0,0,0,1.26.12l-.74.44a1.27,1.27,0,0,1-1.27-.13L22,7.88Z"/><path class="cls-9" d="M25.75,9.21l.63-.74a.87.87,0,0,1,.23-.2l.75-.43a.71.71,0,0,0-.23.19l-.63.74a.68.68,0,0,1-.26.22l-.74.44A1,1,0,0,0,25.75,9.21Z"/><path class="cls-49" d="M22,7.88l2.12,1.23c.61.35,1.17.33,1.51-.08l.61-.74a1.21,1.21,0,0,1,1.63-.08l1.54.88v.19L27.87,8.4c-.6-.35-1.16-.33-1.49.07l-.63.74c-.36.43-1,.46-1.63.08L22,8.06Z"/><polygon class="cls-9" points="29.41 9.1 30.16 8.66 30.16 8.85 29.41 9.28 29.41 9.1"/><path class="cls-48" d="M27.24,7.64a1.38,1.38,0,0,1,1.38.13l1.54.89-.75.43-1.54-.88a1.35,1.35,0,0,0-1.38-.13Z"/></g><g class="cls-2"><path class="cls-48" d="M21.18,8.36,23.3,9.58a1.25,1.25,0,0,0,1.26.13l-.74.43A1.24,1.24,0,0,1,22.55,10L20.43,8.79Z"/><path class="cls-9" d="M24.18,10.12l.63-.75A.83.83,0,0,1,25,9.18l.75-.44a.91.91,0,0,0-.24.2l-.62.74a.9.9,0,0,1-.26.22l-.74.43A.82.82,0,0,0,24.18,10.12Z"/><path class="cls-49" d="M20.43,8.79,22.55,10a1.12,1.12,0,0,0,1.5-.08l.62-.74a1.21,1.21,0,0,1,1.63-.08l1.54.88v.19L26.3,9.3a1.13,1.13,0,0,0-1.49.07l-.63.75a1.22,1.22,0,0,1-1.63.08L20.43,9Z"/><polygon class="cls-9" points="27.84 10 28.58 9.57 28.58 9.76 27.84 10.19 27.84 10"/><path class="cls-48" d="M25.67,8.55a1.38,1.38,0,0,1,1.38.13l1.53.89-.74.43L26.3,9.12A1.36,1.36,0,0,0,24.92,9Z"/></g><g class="cls-2"><path class="cls-48" d="M19.6,9.27l2.13,1.22a1.25,1.25,0,0,0,1.26.13l-.75.43A1.25,1.25,0,0,1,21,10.92L18.86,9.7Z"/><path class="cls-9" d="M22.61,11l.63-.74a.74.74,0,0,1,.23-.2l.74-.43a1.07,1.07,0,0,0-.23.2l-.62.74a1.09,1.09,0,0,1-.26.22l-.75.43A.78.78,0,0,0,22.61,11Z"/><path class="cls-49" d="M18.86,9.7,21,10.92a1.11,1.11,0,0,0,1.5-.07l.62-.75A1.23,1.23,0,0,1,24.73,10l1.54.89v.19l-1.54-.89a1.12,1.12,0,0,0-1.49.07l-.63.74c-.36.44-1,.47-1.63.08L18.86,9.88Z"/><polygon class="cls-9" points="26.27 10.91 27.01 10.47 27.01 10.66 26.27 11.1 26.27 10.91"/><path class="cls-48" d="M24.1,9.46a1.36,1.36,0,0,1,1.38.13l1.53.89-.74.43L24.73,10a1.38,1.38,0,0,0-1.38-.13Z"/></g><g class="cls-2"><path class="cls-48" d="M18,10.17l2.12,1.23a1.24,1.24,0,0,0,1.27.12l-.75.44a1.25,1.25,0,0,1-1.26-.13l-2.12-1.22Z"/><path class="cls-9" d="M21,11.93l.62-.74a.91.91,0,0,1,.24-.2l.74-.43a1,1,0,0,0-.23.19l-.62.75a1.32,1.32,0,0,1-.26.22l-.75.43A1.09,1.09,0,0,0,21,11.93Z"/><path class="cls-49" d="M17.29,10.61l2.12,1.22a1.11,1.11,0,0,0,1.5-.07l.62-.75a1.22,1.22,0,0,1,1.63-.08l1.53.89V12l-1.53-.88a1.12,1.12,0,0,0-1.5.07l-.62.74c-.36.44-1,.46-1.63.08l-2.12-1.23Z"/><polygon class="cls-9" points="24.7 11.82 25.44 11.38 25.44 11.57 24.69 12.01 24.7 11.82"/><path class="cls-48" d="M22.53,10.36a1.36,1.36,0,0,1,1.38.14l1.53.88-.75.44-1.53-.89a1.38,1.38,0,0,0-1.38-.13Z"/></g><g class="cls-2"><path class="cls-48" d="M16.46,11.08l2.12,1.22a1.25,1.25,0,0,0,1.27.13l-.75.44a1.25,1.25,0,0,1-1.26-.13l-2.13-1.23Z"/><path class="cls-9" d="M19.47,12.84l.62-.74a.85.85,0,0,1,.23-.2l.75-.43a.83.83,0,0,0-.23.19l-.62.74a1.05,1.05,0,0,1-.26.22l-.75.44A1.09,1.09,0,0,0,19.47,12.84Z"/><path class="cls-49" d="M15.71,11.51l2.13,1.23a1.12,1.12,0,0,0,1.5-.08l.62-.74c.36-.43,1-.47,1.63-.08l1.53.88v.19L21.59,12c-.61-.35-1.17-.33-1.5.07l-.62.74a1.22,1.22,0,0,1-1.63.08l-2.13-1.23Z"/><polygon class="cls-9" points="23.12 12.72 23.87 12.29 23.87 12.48 23.12 12.91 23.12 12.72"/><path class="cls-48" d="M21,11.27a1.38,1.38,0,0,1,1.38.13l1.54.89-.75.43-1.53-.88a1.36,1.36,0,0,0-1.38-.14Z"/></g><g class="cls-2"><path class="cls-48" d="M14.89,12,17,13.21a1.27,1.27,0,0,0,1.27.13l-.75.43a1.23,1.23,0,0,1-1.26-.12l-2.13-1.23Z"/><path class="cls-9" d="M17.9,13.74l.62-.74a1,1,0,0,1,.23-.19l.75-.44a.87.87,0,0,0-.23.2l-.63.74a1,1,0,0,1-.25.22l-.75.43A.77.77,0,0,0,17.9,13.74Z"/><path class="cls-49" d="M14.14,12.42l2.13,1.23a1.12,1.12,0,0,0,1.5-.08l.61-.75A1.25,1.25,0,0,1,20,12.74l1.53.89v.19L20,12.93a1.13,1.13,0,0,0-1.5.07l-.62.74c-.37.44-1,.47-1.64.08L14.14,12.6Z"/><polygon class="cls-9" points="21.55 13.63 22.3 13.2 22.3 13.39 21.55 13.82 21.55 13.63"/><path class="cls-48" d="M19.38,12.18a1.38,1.38,0,0,1,1.38.13l1.54.89-.75.43L20,12.74a1.38,1.38,0,0,0-1.38-.13Z"/></g><g class="cls-2"><path class="cls-48" d="M13.32,12.89l2.12,1.23a1.27,1.27,0,0,0,1.27.13l-.75.43a1.27,1.27,0,0,1-1.27-.13l-2.12-1.22Z"/><path class="cls-9" d="M16.33,14.65l.62-.74a1.07,1.07,0,0,1,.23-.2l.75-.43a.74.74,0,0,0-.23.2l-.63.74a1,1,0,0,1-.25.22l-.75.43A1.05,1.05,0,0,0,16.33,14.65Z"/><path class="cls-49" d="M12.57,13.33l2.12,1.22c.62.36,1.17.33,1.51-.07l.61-.75a1.25,1.25,0,0,1,1.64-.08l1.53.89v.19l-1.54-.89a1.12,1.12,0,0,0-1.49.07l-.62.74c-.37.44-1,.46-1.64.08l-2.12-1.22Z"/><polygon class="cls-9" points="19.98 14.54 20.73 14.11 20.73 14.29 19.98 14.73 19.98 14.54"/><path class="cls-48" d="M17.81,13.09a1.36,1.36,0,0,1,1.38.13l1.54.88-.75.44-1.53-.89a1.38,1.38,0,0,0-1.38-.13Z"/></g><g class="cls-2"><path class="cls-48" d="M11.75,13.8,13.87,15a1.23,1.23,0,0,0,1.26.12l-.74.44a1.27,1.27,0,0,1-1.27-.13L11,14.24Z"/><path class="cls-9" d="M14.75,15.56l.63-.74a.87.87,0,0,1,.23-.2l.75-.43a.71.71,0,0,0-.23.19l-.63.75a.75.75,0,0,1-.26.21l-.74.44A1,1,0,0,0,14.75,15.56Z"/><path class="cls-49" d="M11,14.24l2.12,1.22a1.13,1.13,0,0,0,1.51-.07l.61-.75a1.22,1.22,0,0,1,1.63-.08l1.54.89v.18l-1.54-.88c-.6-.35-1.16-.33-1.49.07l-.63.74c-.36.43-1,.46-1.63.08L11,14.41Z"/><polygon class="cls-9" points="18.41 15.45 19.16 15.01 19.16 15.2 18.41 15.63 18.41 15.45"/><path class="cls-48" d="M16.24,14a1.36,1.36,0,0,1,1.38.14l1.54.88-.75.44-1.54-.89a1.35,1.35,0,0,0-1.38-.13Z"/></g><g class="cls-2"><path class="cls-48" d="M10.18,14.71l2.12,1.22a1.25,1.25,0,0,0,1.26.13l-.74.43a1.24,1.24,0,0,1-1.27-.12L9.43,15.14Z"/><path class="cls-9" d="M13.18,16.47l.63-.74a.72.72,0,0,1,.23-.2l.75-.44a.91.91,0,0,0-.24.2l-.62.74a.9.9,0,0,1-.26.22l-.74.44A1,1,0,0,0,13.18,16.47Z"/><path class="cls-49" d="M9.43,15.14l2.12,1.23a1.12,1.12,0,0,0,1.5-.08l.62-.74a1.21,1.21,0,0,1,1.63-.08l1.54.88v.19l-1.54-.89a1.12,1.12,0,0,0-1.49.08l-.63.74a1.22,1.22,0,0,1-1.63.08L9.43,15.32Z"/><polygon class="cls-9" points="16.84 16.35 17.58 15.92 17.58 16.11 16.84 16.54 16.84 16.35"/><path class="cls-48" d="M14.67,14.9a1.38,1.38,0,0,1,1.38.13l1.53.89-.74.43-1.54-.88a1.36,1.36,0,0,0-1.38-.14Z"/></g><g class="cls-2"><path class="cls-48" d="M8.6,15.62l2.13,1.22A1.25,1.25,0,0,0,12,17l-.75.43A1.25,1.25,0,0,1,10,17.28L7.86,16.05Z"/><path class="cls-9" d="M11.61,17.37l.63-.74a.71.71,0,0,1,.23-.19l.74-.44a1.07,1.07,0,0,0-.23.2l-.62.74a1.09,1.09,0,0,1-.26.22l-.75.43A.78.78,0,0,0,11.61,17.37Z"/><path class="cls-49" d="M7.86,16.05,10,17.28a1.12,1.12,0,0,0,1.5-.08l.62-.75a1.23,1.23,0,0,1,1.63-.08l1.54.89v.19l-1.54-.89a1.12,1.12,0,0,0-1.49.07l-.63.74c-.36.44-1,.47-1.63.08L7.86,16.23Z"/><polygon class="cls-9" points="15.27 17.26 16.01 16.83 16.01 17.02 15.27 17.45 15.27 17.26"/><path class="cls-48" d="M13.1,15.81a1.38,1.38,0,0,1,1.38.13l1.53.89-.74.43-1.54-.89a1.38,1.38,0,0,0-1.38-.13Z"/></g><g class="cls-2"><path class="cls-48" d="M7,16.52l2.12,1.23a1.27,1.27,0,0,0,1.27.13l-.75.43a1.25,1.25,0,0,1-1.26-.13L6.29,17Z"/><path class="cls-9" d="M10,18.28l.62-.74a.91.91,0,0,1,.24-.2l.74-.43a.85.85,0,0,0-.23.2l-.62.74a1.32,1.32,0,0,1-.26.22l-.75.43A1.09,1.09,0,0,0,10,18.28Z"/><path class="cls-49" d="M6.29,17l2.12,1.22a1.11,1.11,0,0,0,1.5-.07l.62-.75a1.23,1.23,0,0,1,1.63-.08l1.53.89v.19l-1.53-.89a1.12,1.12,0,0,0-1.5.07l-.62.74c-.36.44-1,.46-1.63.08L6.29,17.14Z"/><polygon class="cls-9" points="13.7 18.17 14.44 17.73 14.44 17.92 13.69 18.36 13.7 18.17"/><path class="cls-48" d="M11.53,16.71a1.36,1.36,0,0,1,1.38.14l1.53.88-.75.44-1.53-.89a1.38,1.38,0,0,0-1.38-.13Z"/></g><g class="cls-2"><path class="cls-48" d="M5.46,17.43l2.12,1.23a1.24,1.24,0,0,0,1.27.12l-.75.44a1.25,1.25,0,0,1-1.26-.13L4.71,17.86Z"/><path class="cls-9" d="M8.47,19.19l.62-.74a1.07,1.07,0,0,1,.23-.2l.75-.43a.83.83,0,0,0-.23.19l-.62.74A.87.87,0,0,1,9,19l-.75.44A1.09,1.09,0,0,0,8.47,19.19Z"/><path class="cls-49" d="M4.71,17.86l2.13,1.23A1.12,1.12,0,0,0,8.34,19L9,18.27c.36-.43,1-.46,1.63-.08l1.53.88v.19l-1.53-.88c-.61-.35-1.17-.33-1.5.07l-.62.74a1.22,1.22,0,0,1-1.63.08L4.71,18Z"/><polygon class="cls-9" points="12.12 19.07 12.87 18.64 12.87 18.83 12.12 19.26 12.12 19.07"/><path class="cls-48" d="M10,17.62a1.38,1.38,0,0,1,1.38.13l1.54.89-.75.43-1.53-.88a1.36,1.36,0,0,0-1.38-.13Z"/></g><g class="cls-2"><path class="cls-48" d="M3.89,18.34,6,19.56a1.27,1.27,0,0,0,1.27.13l-.75.43A1.23,1.23,0,0,1,5.27,20L3.14,18.77Z"/><path class="cls-9" d="M6.9,20.1l.62-.75a1,1,0,0,1,.23-.19l.75-.44a.87.87,0,0,0-.23.2l-.63.74a.86.86,0,0,1-.25.22l-.75.43A.86.86,0,0,0,6.9,20.1Z"/><path class="cls-49" d="M3.14,18.77,5.27,20a1.12,1.12,0,0,0,1.5-.08l.61-.74A1.22,1.22,0,0,1,9,19.1l1.53.88v.19L9,19.28c-.61-.34-1.17-.32-1.5.07l-.62.75a1.23,1.23,0,0,1-1.64.08L3.14,19Z"/><polygon class="cls-9" points="10.55 19.98 11.3 19.55 11.3 19.74 10.55 20.17 10.55 19.98"/><path class="cls-48" d="M8.38,18.53a1.38,1.38,0,0,1,1.38.13l1.54.89-.75.43L9,19.1A1.36,1.36,0,0,0,7.64,19Z"/></g><g class="cls-2"><path class="cls-48" d="M2.32,19.25l2.12,1.22a1.27,1.27,0,0,0,1.27.13L5,21a1.27,1.27,0,0,1-1.27-.13L1.57,19.68Z"/><path class="cls-49" d="M5.33,21,6,20.26a1.07,1.07,0,0,1,.23-.2l.75-.43a.74.74,0,0,0-.23.2l-.63.74a1,1,0,0,1-.25.22l-.75.43A1.05,1.05,0,0,0,5.33,21Z"/><path class="cls-49" d="M1.57,19.68,3.69,20.9c.62.36,1.17.33,1.51-.07l.61-.75A1.25,1.25,0,0,1,7.45,20L9,20.89v.19l-1.54-.89A1.12,1.12,0,0,0,6,20.26L5.33,21c-.37.44-1,.47-1.64.08L1.57,19.86Z"/><polygon class="cls-9" points="8.98 20.89 9.73 20.45 9.73 20.64 8.98 21.08 8.98 20.89"/><path class="cls-48" d="M6.81,19.44a1.36,1.36,0,0,1,1.38.13l1.54.89L9,20.89,7.45,20a1.38,1.38,0,0,0-1.38-.13Z"/></g><g class="cls-2"><path class="cls-48" d="M.75,20.15l2.12,1.23a1.23,1.23,0,0,0,1.26.12l-.74.44a1.27,1.27,0,0,1-1.27-.13L0,20.59Z"/><path class="cls-49" d="M3.75,21.91l.63-.74a.87.87,0,0,1,.23-.2l.75-.43a.71.71,0,0,0-.23.19l-.63.75a.92.92,0,0,1-.26.22l-.74.43A1,1,0,0,0,3.75,21.91Z"/><path class="cls-49" d="M0,20.59l2.12,1.22a1.13,1.13,0,0,0,1.51-.07L4.24,21a1.22,1.22,0,0,1,1.63-.08l1.54.89V22L5.87,21.1c-.6-.35-1.16-.33-1.49.07l-.63.74c-.36.44-1,.46-1.63.08L0,20.76Z"/><polygon class="cls-9" points="7.41 21.8 8.16 21.36 8.15 21.55 7.41 21.98 7.41 21.8"/><path class="cls-48" d="M5.24,20.34a1.36,1.36,0,0,1,1.38.14l1.54.88-.75.44-1.54-.89a1.38,1.38,0,0,0-1.38-.13Z"/></g><g class="cls-2"><polygon class="cls-3" points="74.24 21.31 74.23 23.84 42.25 42.43 42.26 39.9 74.24 21.31"/><polygon class="cls-4" points="37.55 39.89 37.54 42.42 5.36 23.84 5.37 21.31 37.55 39.89"/><polygon class="cls-5" points="42.26 39.9 42.25 42.43 37.54 42.42 37.55 39.89 42.26 39.9"/><polygon class="cls-6" points="74.23 18.59 74.24 21.31 42.26 39.9 37.55 39.89 5.37 21.31 5.37 18.58 37.35 0 42.05 0.01 74.23 18.59"/></g><polygon class="cls-50" points="37.87 38.35 7.34 20.73 7.34 19.17 37.67 1.54 41.73 1.55 72.26 19.17 72.26 20.73 41.93 38.36 37.87 38.35"/><polygon class="cls-5" points="37.67 1.54 37.67 3.07 41.73 3.08 41.73 1.55 37.67 1.54"/><path class="cls-4" d="M72.26,19.17,41.73,1.55V3.08L72.26,20.71Z"/><polygon class="cls-3" points="7.34 19.17 7.34 20.7 37.67 3.07 37.67 1.54 7.34 19.17"/><g class="cls-51"><polygon id="Cube_face_-_top" data-name="Cube face - top" class="cls-3" points="54.24 21.79 39.78 13.44 25.32 21.79 39.78 30.14 54.24 21.79"/><polygon class="cls-5" points="41.72 21.29 45.95 18.84 50.18 21.29 45.95 23.73 41.72 21.29"/><polygon id="Cube_face_-_top-2" data-name="Cube face - top" class="cls-6" points="49.86 21.48 45.95 19.22 42.05 21.48 45.95 23.73 49.86 21.48"/><polygon class="cls-5" points="35.55 17.72 39.78 15.28 44.01 17.72 39.78 20.17 35.55 17.72"/><polygon id="Cube_face_-_top-3" data-name="Cube face - top" class="cls-6" points="43.68 17.91 39.78 15.66 35.87 17.91 39.78 20.17 43.68 17.91"/><polygon class="cls-5" points="35.49 24.88 39.72 22.44 43.95 24.88 39.72 27.33 35.49 24.88"/><polygon id="Cube_face_-_top-4" data-name="Cube face - top" class="cls-6" points="43.63 25.07 39.72 22.82 35.82 25.07 39.72 27.33 43.63 25.07"/><polygon class="cls-5" points="29.32 21.32 33.55 18.88 37.78 21.32 33.55 23.76 29.32 21.32"/><polygon id="Cube_face_-_top-5" data-name="Cube face - top" class="cls-6" points="37.45 21.51 33.55 19.25 29.64 21.51 33.55 23.76 37.45 21.51"/><polygon class="cls-52" points="42.1 4.86 39.77 3.52 37.43 4.86 39.77 6.21 42.1 4.86"/><g id="Axonometric_Cube" data-name="Axonometric Cube"><polygon id="Cube_face_-_top-6" data-name="Cube face - top" class="cls-52" points="41.8 4.41 39.77 3.24 37.74 4.41 39.77 5.58 41.8 4.41"/><polygon id="Cube_face_-_left" data-name="Cube face - left" class="cls-53" points="39.77 6.01 37.74 4.84 37.74 4.41 39.77 5.58 39.77 6.01"/><polygon id="Cube_face_-_right" data-name="Cube face - right" class="cls-54" points="41.8 4.84 39.77 6.01 39.77 5.58 41.8 4.41 41.8 4.84"/></g><polygon class="cls-52" points="46.19 7.23 43.86 5.88 41.53 7.23 43.86 8.57 46.19 7.23"/><g id="Axonometric_Cube-2" data-name="Axonometric Cube"><polygon id="Cube_face_-_top-7" data-name="Cube face - top" class="cls-52" points="45.89 6.78 43.86 5.6 41.83 6.78 43.86 7.95 45.89 6.78"/><polygon id="Cube_face_-_left-2" data-name="Cube face - left" class="cls-53" points="43.86 8.37 41.83 7.2 41.83 6.78 43.86 7.95 43.86 8.37"/><polygon id="Cube_face_-_right-2" data-name="Cube face - right" class="cls-54" points="45.89 7.2 43.86 8.37 43.86 7.95 45.89 6.78 45.89 7.2"/></g><polygon class="cls-52" points="50.29 9.59 47.96 8.25 45.63 9.59 47.96 10.94 50.29 9.59"/><g id="Axonometric_Cube-3" data-name="Axonometric Cube"><polygon id="Cube_face_-_top-8" data-name="Cube face - top" class="cls-52" points="49.99 9.14 47.96 7.97 45.93 9.14 47.96 10.31 49.99 9.14"/><polygon id="Cube_face_-_left-3" data-name="Cube face - left" class="cls-53" points="47.96 10.74 45.93 9.57 45.93 9.14 47.96 10.31 47.96 10.74"/><polygon id="Cube_face_-_right-3" data-name="Cube face - right" class="cls-54" points="49.99 9.57 47.96 10.74 47.96 10.31 49.99 9.14 49.99 9.57"/></g><polygon class="cls-52" points="54.39 11.96 52.05 10.61 49.72 11.96 52.05 13.3 54.39 11.96"/><g id="Axonometric_Cube-4" data-name="Axonometric Cube"><polygon id="Cube_face_-_top-9" data-name="Cube face - top" class="cls-52" points="54.09 11.51 52.05 10.33 50.03 11.51 52.05 12.68 54.09 11.51"/><polygon id="Cube_face_-_left-4" data-name="Cube face - left" class="cls-53" points="52.05 13.1 50.03 11.93 50.03 11.51 52.05 12.68 52.05 13.1"/><polygon id="Cube_face_-_right-4" data-name="Cube face - right" class="cls-54" points="54.09 11.93 52.05 13.1 52.05 12.68 54.09 11.51 54.09 11.93"/></g><polygon class="cls-52" points="58.48 14.32 56.15 12.98 53.82 14.32 56.15 15.67 58.48 14.32"/><g id="Axonometric_Cube-5" data-name="Axonometric Cube"><polygon id="Cube_face_-_top-10" data-name="Cube face - top" class="cls-52" points="58.18 13.87 56.15 12.7 54.12 13.87 56.15 15.04 58.18 13.87"/><polygon id="Cube_face_-_left-5" data-name="Cube face - left" class="cls-53" points="56.15 15.47 54.12 14.3 54.12 13.87 56.15 15.04 56.15 15.47"/><polygon id="Cube_face_-_right-5" data-name="Cube face - right" class="cls-54" points="58.18 14.3 56.15 15.47 56.15 15.04 58.18 13.87 58.18 14.3"/></g><polygon class="cls-52" points="62.58 16.69 60.25 15.34 57.92 16.69 60.25 18.04 62.58 16.69"/><g id="Axonometric_Cube-6" data-name="Axonometric Cube"><polygon id="Cube_face_-_top-11" data-name="Cube face - top" class="cls-52" points="62.28 16.24 60.25 15.06 58.22 16.24 60.25 17.41 62.28 16.24"/><polygon id="Cube_face_-_left-6" data-name="Cube face - left" class="cls-53" points="60.25 17.83 58.22 16.66 58.22 16.24 60.25 17.41 60.25 17.83"/><polygon id="Cube_face_-_right-6" data-name="Cube face - right" class="cls-54" points="62.28 16.66 60.25 17.83 60.25 17.41 62.28 16.24 62.28 16.66"/></g><polygon class="cls-52" points="66.68 19.05 64.34 17.71 62.01 19.05 64.34 20.4 66.68 19.05"/><g id="Axonometric_Cube-7" data-name="Axonometric Cube"><polygon id="Cube_face_-_top-12" data-name="Cube face - top" class="cls-52" points="66.37 18.6 64.34 17.43 62.31 18.6 64.34 19.77 66.37 18.6"/><polygon id="Cube_face_-_left-7" data-name="Cube face - left" class="cls-53" points="64.34 20.2 62.31 19.03 62.31 18.6 64.34 19.77 64.34 20.2"/><polygon id="Cube_face_-_right-7" data-name="Cube face - right" class="cls-54" points="66.37 19.03 64.34 20.2 64.34 19.77 66.37 18.6 66.37 19.03"/></g><polygon class="cls-52" points="70.77 21.42 68.44 20.07 66.11 21.42 68.44 22.77 70.77 21.42"/><g id="Axonometric_Cube-8" data-name="Axonometric Cube"><polygon id="Cube_face_-_top-13" data-name="Cube face - top" class="cls-52" points="70.47 20.97 68.44 19.79 66.41 20.97 68.44 22.14 70.47 20.97"/><polygon id="Cube_face_-_left-8" data-name="Cube face - left" class="cls-53" points="68.44 22.56 66.41 21.39 66.41 20.97 68.44 22.14 68.44 22.56"/><polygon id="Cube_face_-_right-8" data-name="Cube face - right" class="cls-54" points="70.47 21.39 68.44 22.56 68.44 22.14 70.47 20.97 70.47 21.39"/></g><polygon class="cls-52" points="38.03 7.21 35.69 5.87 33.36 7.21 35.69 8.56 38.03 7.21"/><g id="Axonometric_Cube-9" data-name="Axonometric Cube"><polygon id="Cube_face_-_top-14" data-name="Cube face - top" class="cls-52" points="37.72 6.76 35.69 5.59 33.66 6.76 35.69 7.93 37.72 6.76"/><polygon id="Cube_face_-_left-9" data-name="Cube face - left" class="cls-53" points="35.69 8.36 33.66 7.19 33.66 6.76 35.69 7.93 35.69 8.36"/><polygon id="Cube_face_-_right-9" data-name="Cube face - right" class="cls-54" points="37.72 7.19 35.69 8.36 35.69 7.93 37.72 6.76 37.72 7.19"/></g><polygon class="cls-52" points="42.12 9.58 39.79 8.23 37.46 9.58 39.79 10.93 42.12 9.58"/><g id="Axonometric_Cube-10" data-name="Axonometric Cube"><polygon id="Cube_face_-_top-15" data-name="Cube face - top" class="cls-52" points="41.82 9.13 39.79 7.96 37.76 9.13 39.79 10.3 41.82 9.13"/><polygon id="Cube_face_-_left-10" data-name="Cube face - left" class="cls-53" points="39.79 10.72 37.76 9.55 37.76 9.13 39.79 10.3 39.79 10.72"/><polygon id="Cube_face_-_right-10" data-name="Cube face - right" class="cls-54" points="41.82 9.55 39.79 10.72 39.79 10.3 41.82 9.13 41.82 9.55"/></g><polygon class="cls-52" points="46.22 11.95 43.89 10.6 41.55 11.95 43.89 13.29 46.22 11.95"/><g id="Axonometric_Cube-11" data-name="Axonometric Cube"><polygon id="Cube_face_-_top-16" data-name="Cube face - top" class="cls-52" points="45.92 11.49 43.89 10.32 41.86 11.49 43.89 12.66 45.92 11.49"/><polygon id="Cube_face_-_left-11" data-name="Cube face - left" class="cls-53" points="43.89 13.09 41.86 11.92 41.86 11.49 43.89 12.66 43.89 13.09"/><polygon id="Cube_face_-_right-11" data-name="Cube face - right" class="cls-54" points="45.92 11.92 43.89 13.09 43.89 12.66 45.92 11.49 45.92 11.92"/></g><polygon class="cls-52" points="50.31 14.31 47.98 12.96 45.65 14.31 47.98 15.66 50.31 14.31"/><g id="Axonometric_Cube-12" data-name="Axonometric Cube"><polygon id="Cube_face_-_top-17" data-name="Cube face - top" class="cls-52" points="50.01 13.86 47.98 12.69 45.95 13.86 47.98 15.03 50.01 13.86"/><polygon id="Cube_face_-_left-12" data-name="Cube face - left" class="cls-53" points="47.98 15.45 45.95 14.28 45.95 13.86 47.98 15.03 47.98 15.45"/><polygon id="Cube_face_-_right-12" data-name="Cube face - right" class="cls-54" points="50.01 14.28 47.98 15.45 47.98 15.03 50.01 13.86 50.01 14.28"/></g><polygon class="cls-52" points="54.41 16.68 52.08 15.33 49.75 16.68 52.08 18.02 54.41 16.68"/><g id="Axonometric_Cube-13" data-name="Axonometric Cube"><polygon id="Cube_face_-_top-18" data-name="Cube face - top" class="cls-52" points="54.11 16.22 52.08 15.05 50.05 16.22 52.08 17.39 54.11 16.22"/><polygon id="Cube_face_-_left-13" data-name="Cube face - left" class="cls-53" points="52.08 17.82 50.05 16.65 50.05 16.22 52.08 17.39 52.08 17.82"/><polygon id="Cube_face_-_right-13" data-name="Cube face - right" class="cls-54" points="54.11 16.65 52.08 17.82 52.08 17.39 54.11 16.22 54.11 16.65"/></g><polygon class="cls-52" points="58.51 19.04 56.18 17.69 53.84 19.04 56.18 20.39 58.51 19.04"/><g id="Axonometric_Cube-14" data-name="Axonometric Cube"><polygon id="Cube_face_-_top-19" data-name="Cube face - top" class="cls-52" points="58.21 18.59 56.18 17.41 54.15 18.59 56.18 19.76 58.21 18.59"/><polygon id="Cube_face_-_left-14" data-name="Cube face - left" class="cls-53" points="56.18 20.18 54.15 19.01 54.15 18.59 56.18 19.76 56.18 20.18"/><polygon id="Cube_face_-_right-14" data-name="Cube face - right" class="cls-54" points="58.21 19.01 56.18 20.18 56.18 19.76 58.21 18.59 58.21 19.01"/></g><polygon class="cls-52" points="62.6 21.41 60.27 20.06 57.94 21.41 60.27 22.75 62.6 21.41"/><g id="Axonometric_Cube-15" data-name="Axonometric Cube"><polygon id="Cube_face_-_top-20" data-name="Cube face - top" class="cls-52" points="62.3 20.95 60.27 19.78 58.24 20.95 60.27 22.12 62.3 20.95"/><polygon id="Cube_face_-_left-15" data-name="Cube face - left" class="cls-53" points="60.27 22.55 58.24 21.38 58.24 20.95 60.27 22.12 60.27 22.55"/><polygon id="Cube_face_-_right-15" data-name="Cube face - right" class="cls-54" points="62.3 21.38 60.27 22.55 60.27 22.12 62.3 20.95 62.3 21.38"/></g><polygon class="cls-52" points="66.7 23.77 64.37 22.42 62.04 23.77 64.37 25.12 66.7 23.77"/><g id="Axonometric_Cube-16" data-name="Axonometric Cube"><polygon id="Cube_face_-_top-21" data-name="Cube face - top" class="cls-52" points="66.4 23.32 64.37 22.14 62.34 23.32 64.37 24.49 66.4 23.32"/><polygon id="Cube_face_-_left-16" data-name="Cube face - left" class="cls-53" points="64.37 24.91 62.34 23.74 62.34 23.32 64.37 24.49 64.37 24.91"/><polygon id="Cube_face_-_right-16" data-name="Cube face - right" class="cls-54" points="66.4 23.74 64.37 24.91 64.37 24.49 66.4 23.32 66.4 23.74"/></g><polygon class="cls-52" points="33.95 9.57 31.62 8.22 29.29 9.57 31.62 10.91 33.95 9.57"/><g id="Axonometric_Cube-17" data-name="Axonometric Cube"><polygon id="Cube_face_-_top-22" data-name="Cube face - top" class="cls-52" points="33.65 9.11 31.62 7.94 29.59 9.11 31.62 10.28 33.65 9.11"/><polygon id="Cube_face_-_left-17" data-name="Cube face - left" class="cls-53" points="31.62 10.71 29.59 9.54 29.59 9.11 31.62 10.28 31.62 10.71"/><polygon id="Cube_face_-_right-17" data-name="Cube face - right" class="cls-54" points="33.65 9.54 31.62 10.71 31.62 10.28 33.65 9.11 33.65 9.54"/></g><polygon class="cls-52" points="38.05 11.93 35.72 10.59 33.39 11.93 35.72 13.28 38.05 11.93"/><g id="Axonometric_Cube-18" data-name="Axonometric Cube"><polygon id="Cube_face_-_top-23" data-name="Cube face - top" class="cls-52" points="37.75 11.48 35.72 10.31 33.69 11.48 35.72 12.65 37.75 11.48"/><polygon id="Cube_face_-_left-18" data-name="Cube face - left" class="cls-53" points="35.72 13.07 33.69 11.9 33.69 11.48 35.72 12.65 35.72 13.07"/><polygon id="Cube_face_-_right-18" data-name="Cube face - right" class="cls-54" points="37.75 11.9 35.72 13.07 35.72 12.65 37.75 11.48 37.75 11.9"/></g><polygon class="cls-52" points="58.53 23.76 56.2 22.41 53.87 23.76 56.2 25.1 58.53 23.76"/><g id="Axonometric_Cube-19" data-name="Axonometric Cube"><polygon id="Cube_face_-_top-24" data-name="Cube face - top" class="cls-52" points="58.23 23.3 56.2 22.13 54.17 23.3 56.2 24.48 58.23 23.3"/><polygon id="Cube_face_-_left-19" data-name="Cube face - left" class="cls-53" points="56.2 24.9 54.17 23.73 54.17 23.3 56.2 24.48 56.2 24.9"/><polygon id="Cube_face_-_right-19" data-name="Cube face - right" class="cls-54" points="58.23 23.73 56.2 24.9 56.2 24.48 58.23 23.3 58.23 23.73"/></g><polygon class="cls-52" points="62.63 26.12 60.3 24.77 57.97 26.12 60.3 27.47 62.63 26.12"/><g id="Axonometric_Cube-20" data-name="Axonometric Cube"><polygon id="Cube_face_-_top-25" data-name="Cube face - top" class="cls-52" points="62.33 25.67 60.3 24.5 58.27 25.67 60.3 26.84 62.33 25.67"/><polygon id="Cube_face_-_left-20" data-name="Cube face - left" class="cls-53" points="60.3 27.27 58.27 26.09 58.27 25.67 60.3 26.84 60.3 27.27"/><polygon id="Cube_face_-_right-20" data-name="Cube face - right" class="cls-54" points="62.33 26.09 60.3 27.27 60.3 26.84 62.33 25.67 62.33 26.09"/></g><polygon class="cls-52" points="29.88 11.92 27.55 10.57 25.22 11.92 27.55 13.26 29.88 11.92"/><g id="Axonometric_Cube-21" data-name="Axonometric Cube"><polygon id="Cube_face_-_top-26" data-name="Cube face - top" class="cls-52" points="29.58 11.46 27.55 10.29 25.52 11.46 27.55 12.63 29.58 11.46"/><polygon id="Cube_face_-_left-21" data-name="Cube face - left" class="cls-53" points="27.55 13.06 25.52 11.89 25.52 11.46 27.55 12.63 27.55 13.06"/><polygon id="Cube_face_-_right-21" data-name="Cube face - right" class="cls-54" points="29.58 11.89 27.55 13.06 27.55 12.63 29.58 11.46 29.58 11.89"/></g><polygon class="cls-52" points="33.98 14.28 31.65 12.94 29.32 14.28 31.65 15.63 33.98 14.28"/><g id="Axonometric_Cube-22" data-name="Axonometric Cube"><polygon id="Cube_face_-_top-27" data-name="Cube face - top" class="cls-52" points="33.68 13.83 31.65 12.66 29.62 13.83 31.65 15 33.68 13.83"/><polygon id="Cube_face_-_left-22" data-name="Cube face - left" class="cls-53" points="31.65 15.43 29.62 14.25 29.62 13.83 31.65 15 31.65 15.43"/><polygon id="Cube_face_-_right-22" data-name="Cube face - right" class="cls-54" points="33.68 14.25 31.65 15.43 31.65 15 33.68 13.83 33.68 14.25"/></g><polygon class="cls-52" points="54.46 26.11 52.13 24.76 49.8 26.11 52.13 27.45 54.46 26.11"/><g id="Axonometric_Cube-23" data-name="Axonometric Cube"><polygon id="Cube_face_-_top-28" data-name="Cube face - top" class="cls-52" points="54.16 25.65 52.13 24.48 50.1 25.65 52.13 26.83 54.16 25.65"/><polygon id="Cube_face_-_left-23" data-name="Cube face - left" class="cls-53" points="52.13 27.25 50.1 26.08 50.1 25.65 52.13 26.83 52.13 27.25"/><polygon id="Cube_face_-_right-23" data-name="Cube face - right" class="cls-54" points="54.16 26.08 52.13 27.25 52.13 26.83 54.16 25.65 54.16 26.08"/></g><polygon class="cls-52" points="58.56 28.47 56.23 27.13 53.89 28.47 56.23 29.82 58.56 28.47"/><g id="Axonometric_Cube-24" data-name="Axonometric Cube"><polygon id="Cube_face_-_top-29" data-name="Cube face - top" class="cls-52" points="58.25 28.02 56.23 26.85 54.2 28.02 56.23 29.19 58.25 28.02"/><polygon id="Cube_face_-_left-24" data-name="Cube face - left" class="cls-53" points="56.23 29.62 54.2 28.45 54.2 28.02 56.23 29.19 56.23 29.62"/><polygon id="Cube_face_-_right-24" data-name="Cube face - right" class="cls-54" points="58.25 28.45 56.23 29.62 56.23 29.19 58.25 28.02 58.25 28.45"/></g><polygon class="cls-52" points="25.81 14.27 23.48 12.92 21.15 14.27 23.48 15.61 25.81 14.27"/><g id="Axonometric_Cube-25" data-name="Axonometric Cube"><polygon id="Cube_face_-_top-30" data-name="Cube face - top" class="cls-52" points="25.51 13.81 23.48 12.64 21.45 13.81 23.48 14.99 25.51 13.81"/><polygon id="Cube_face_-_left-25" data-name="Cube face - left" class="cls-53" points="23.48 15.41 21.45 14.24 21.45 13.81 23.48 14.99 23.48 15.41"/><polygon id="Cube_face_-_right-25" data-name="Cube face - right" class="cls-54" points="25.51 14.24 23.48 15.41 23.48 14.99 25.51 13.81 25.51 14.24"/></g><polygon class="cls-52" points="29.91 16.63 27.57 15.29 25.24 16.63 27.57 17.98 29.91 16.63"/><g id="Axonometric_Cube-26" data-name="Axonometric Cube"><polygon id="Cube_face_-_top-31" data-name="Cube face - top" class="cls-52" points="29.6 16.18 27.57 15.01 25.55 16.18 27.57 17.35 29.6 16.18"/><polygon id="Cube_face_-_left-26" data-name="Cube face - left" class="cls-53" points="27.57 17.78 25.55 16.61 25.55 16.18 27.57 17.35 27.57 17.78"/><polygon id="Cube_face_-_right-26" data-name="Cube face - right" class="cls-54" points="29.6 16.61 27.57 17.78 27.57 17.35 29.6 16.18 29.6 16.61"/></g><polygon class="cls-52" points="50.39 28.46 48.06 27.11 45.73 28.46 48.06 29.8 50.39 28.46"/><g id="Axonometric_Cube-27" data-name="Axonometric Cube"><polygon id="Cube_face_-_top-32" data-name="Cube face - top" class="cls-52" points="50.09 28 48.06 26.83 46.03 28 48.06 29.18 50.09 28"/><polygon id="Cube_face_-_left-27" data-name="Cube face - left" class="cls-53" points="48.06 29.6 46.03 28.43 46.03 28 48.06 29.18 48.06 29.6"/><polygon id="Cube_face_-_right-27" data-name="Cube face - right" class="cls-54" points="50.09 28.43 48.06 29.6 48.06 29.18 50.09 28 50.09 28.43"/></g><polygon class="cls-52" points="54.48 30.82 52.15 29.48 49.82 30.82 52.15 32.17 54.48 30.82"/><g id="Axonometric_Cube-28" data-name="Axonometric Cube"><polygon id="Cube_face_-_top-33" data-name="Cube face - top" class="cls-52" points="54.18 30.37 52.15 29.2 50.12 30.37 52.15 31.54 54.18 30.37"/><polygon id="Cube_face_-_left-28" data-name="Cube face - left" class="cls-53" points="52.15 31.97 50.12 30.8 50.12 30.37 52.15 31.54 52.15 31.97"/><polygon id="Cube_face_-_right-28" data-name="Cube face - right" class="cls-54" points="54.18 30.8 52.15 31.97 52.15 31.54 54.18 30.37 54.18 30.8"/></g><polygon class="cls-52" points="21.74 16.62 19.41 15.27 17.07 16.62 19.41 17.96 21.74 16.62"/><g id="Axonometric_Cube-29" data-name="Axonometric Cube"><polygon id="Cube_face_-_top-34" data-name="Cube face - top" class="cls-52" points="21.43 16.17 19.41 14.99 17.38 16.17 19.41 17.34 21.43 16.17"/><polygon id="Cube_face_-_left-29" data-name="Cube face - left" class="cls-53" points="19.41 17.76 17.38 16.59 17.38 16.17 19.41 17.34 19.41 17.76"/><polygon id="Cube_face_-_right-29" data-name="Cube face - right" class="cls-54" points="21.43 16.59 19.41 17.76 19.41 17.34 21.43 16.17 21.43 16.59"/></g><polygon class="cls-52" points="25.83 18.98 23.5 17.64 21.17 18.98 23.5 20.33 25.83 18.98"/><g id="Axonometric_Cube-30" data-name="Axonometric Cube"><polygon id="Cube_face_-_top-35" data-name="Cube face - top" class="cls-52" points="25.53 18.53 23.5 17.36 21.47 18.53 23.5 19.7 25.53 18.53"/><polygon id="Cube_face_-_left-30" data-name="Cube face - left" class="cls-53" points="23.5 20.13 21.47 18.96 21.47 18.53 23.5 19.7 23.5 20.13"/><polygon id="Cube_face_-_right-30" data-name="Cube face - right" class="cls-54" points="25.53 18.96 23.5 20.13 23.5 19.7 25.53 18.53 25.53 18.96"/></g><polygon class="cls-52" points="46.32 30.81 43.98 29.46 41.65 30.81 43.98 32.16 46.32 30.81"/><g id="Axonometric_Cube-31" data-name="Axonometric Cube"><polygon id="Cube_face_-_top-36" data-name="Cube face - top" class="cls-52" points="46.01 30.36 43.98 29.18 41.95 30.36 43.98 31.53 46.01 30.36"/><polygon id="Cube_face_-_left-31" data-name="Cube face - left" class="cls-53" points="43.98 31.95 41.95 30.78 41.95 30.36 43.98 31.53 43.98 31.95"/><polygon id="Cube_face_-_right-31" data-name="Cube face - right" class="cls-54" points="46.01 30.78 43.98 31.95 43.98 31.53 46.01 30.36 46.01 30.78"/></g><polygon class="cls-52" points="50.41 33.17 48.08 31.83 45.75 33.17 48.08 34.52 50.41 33.17"/><g id="Axonometric_Cube-32" data-name="Axonometric Cube"><polygon id="Cube_face_-_top-37" data-name="Cube face - top" class="cls-52" points="50.11 32.72 48.08 31.55 46.05 32.72 48.08 33.89 50.11 32.72"/><polygon id="Cube_face_-_left-32" data-name="Cube face - left" class="cls-53" points="48.08 34.32 46.05 33.15 46.05 32.72 48.08 33.89 48.08 34.32"/><polygon id="Cube_face_-_right-32" data-name="Cube face - right" class="cls-54" points="50.11 33.15 48.08 34.32 48.08 33.89 50.11 32.72 50.11 33.15"/></g><polygon class="cls-52" points="17.67 18.97 15.33 17.62 13 18.97 15.33 20.32 17.67 18.97"/><g id="Axonometric_Cube-33" data-name="Axonometric Cube"><polygon id="Cube_face_-_top-38" data-name="Cube face - top" class="cls-52" points="17.36 18.52 15.33 17.34 13.3 18.52 15.33 19.69 17.36 18.52"/><polygon id="Cube_face_-_left-33" data-name="Cube face - left" class="cls-53" points="15.33 20.11 13.3 18.94 13.3 18.52 15.33 19.69 15.33 20.11"/><polygon id="Cube_face_-_right-33" data-name="Cube face - right" class="cls-54" points="17.36 18.94 15.33 20.11 15.33 19.69 17.36 18.52 17.36 18.94"/></g><polygon class="cls-52" points="21.76 21.34 19.43 19.99 17.1 21.34 19.43 22.68 21.76 21.34"/><g id="Axonometric_Cube-34" data-name="Axonometric Cube"><polygon id="Cube_face_-_top-39" data-name="Cube face - top" class="cls-52" points="21.46 20.88 19.43 19.71 17.4 20.88 19.43 22.05 21.46 20.88"/><polygon id="Cube_face_-_left-34" data-name="Cube face - left" class="cls-53" points="19.43 22.48 17.4 21.31 17.4 20.88 19.43 22.05 19.43 22.48"/><polygon id="Cube_face_-_right-34" data-name="Cube face - right" class="cls-54" points="21.46 21.31 19.43 22.48 19.43 22.05 21.46 20.88 21.46 21.31"/></g><polygon class="cls-52" points="25.86 23.7 23.53 22.35 21.2 23.7 23.53 25.05 25.86 23.7"/><g id="Axonometric_Cube-35" data-name="Axonometric Cube"><polygon id="Cube_face_-_top-40" data-name="Cube face - top" class="cls-52" points="25.56 23.25 23.53 22.07 21.5 23.25 23.53 24.42 25.56 23.25"/><polygon id="Cube_face_-_left-35" data-name="Cube face - left" class="cls-53" points="23.53 24.84 21.5 23.67 21.5 23.25 23.53 24.42 23.53 24.84"/><polygon id="Cube_face_-_right-35" data-name="Cube face - right" class="cls-54" points="25.56 23.67 23.53 24.84 23.53 24.42 25.56 23.25 25.56 23.67"/></g><polygon class="cls-52" points="29.95 26.07 27.62 24.72 25.29 26.07 27.62 27.41 29.95 26.07"/><g id="Axonometric_Cube-36" data-name="Axonometric Cube"><polygon id="Cube_face_-_top-41" data-name="Cube face - top" class="cls-52" points="29.65 25.61 27.62 24.44 25.59 25.61 27.62 26.78 29.65 25.61"/><polygon id="Cube_face_-_left-36" data-name="Cube face - left" class="cls-53" points="27.62 27.21 25.59 26.04 25.59 25.61 27.62 26.78 27.62 27.21"/><polygon id="Cube_face_-_right-36" data-name="Cube face - right" class="cls-54" points="29.65 26.04 27.62 27.21 27.62 26.78 29.65 25.61 29.65 26.04"/></g><polygon class="cls-52" points="34.05 28.43 31.72 27.08 29.39 28.43 31.72 29.78 34.05 28.43"/><g id="Axonometric_Cube-37" data-name="Axonometric Cube"><polygon id="Cube_face_-_top-42" data-name="Cube face - top" class="cls-52" points="33.75 27.98 31.72 26.8 29.69 27.98 31.72 29.15 33.75 27.98"/><polygon id="Cube_face_-_left-37" data-name="Cube face - left" class="cls-53" points="31.72 29.57 29.69 28.4 29.69 27.98 31.72 29.15 31.72 29.57"/><polygon id="Cube_face_-_right-37" data-name="Cube face - right" class="cls-54" points="33.75 28.4 31.72 29.57 31.72 29.15 33.75 27.98 33.75 28.4"/></g><polygon class="cls-52" points="38.15 30.8 35.82 29.45 33.48 30.8 35.82 32.14 38.15 30.8"/><g id="Axonometric_Cube-38" data-name="Axonometric Cube"><polygon id="Cube_face_-_top-43" data-name="Cube face - top" class="cls-52" points="37.85 30.34 35.82 29.17 33.79 30.34 35.82 31.51 37.85 30.34"/><polygon id="Cube_face_-_left-38" data-name="Cube face - left" class="cls-53" points="35.82 31.94 33.79 30.77 33.79 30.34 35.82 31.51 35.82 31.94"/><polygon id="Cube_face_-_right-38" data-name="Cube face - right" class="cls-54" points="37.85 30.77 35.82 31.94 35.82 31.51 37.85 30.34 37.85 30.77"/></g><polygon class="cls-52" points="42.24 33.16 39.91 31.81 37.58 33.16 39.91 34.51 42.24 33.16"/><g id="Axonometric_Cube-39" data-name="Axonometric Cube"><polygon id="Cube_face_-_top-44" data-name="Cube face - top" class="cls-52" points="41.94 32.71 39.91 31.54 37.88 32.71 39.91 33.88 41.94 32.71"/><polygon id="Cube_face_-_left-39" data-name="Cube face - left" class="cls-53" points="39.91 34.3 37.88 33.13 37.88 32.71 39.91 33.88 39.91 34.3"/><polygon id="Cube_face_-_right-39" data-name="Cube face - right" class="cls-54" points="41.94 33.13 39.91 34.3 39.91 33.88 41.94 32.71 41.94 33.13"/></g><polygon class="cls-52" points="46.34 35.52 44.01 34.18 41.68 35.52 44.01 36.87 46.34 35.52"/><g id="Axonometric_Cube-40" data-name="Axonometric Cube"><polygon id="Cube_face_-_top-45" data-name="Cube face - top" class="cls-52" points="46.04 35.07 44.01 33.9 41.98 35.07 44.01 36.24 46.04 35.07"/><polygon id="Cube_face_-_left-40" data-name="Cube face - left" class="cls-53" points="44.01 36.67 41.98 35.5 41.98 35.07 44.01 36.24 44.01 36.67"/><polygon id="Cube_face_-_right-40" data-name="Cube face - right" class="cls-54" points="46.04 35.5 44.01 36.67 44.01 36.24 46.04 35.07 46.04 35.5"/></g><polygon class="cls-52" points="13.59 21.32 11.26 19.98 8.93 21.32 11.26 22.67 13.59 21.32"/><g id="Axonometric_Cube-41" data-name="Axonometric Cube"><polygon id="Cube_face_-_top-46" data-name="Cube face - top" class="cls-52" points="13.29 20.87 11.26 19.7 9.23 20.87 11.26 22.04 13.29 20.87"/><polygon id="Cube_face_-_left-41" data-name="Cube face - left" class="cls-53" points="11.26 22.46 9.23 21.29 9.23 20.87 11.26 22.04 11.26 22.46"/><polygon id="Cube_face_-_right-41" data-name="Cube face - right" class="cls-54" points="13.29 21.29 11.26 22.46 11.26 22.04 13.29 20.87 13.29 21.29"/></g><polygon class="cls-52" points="17.69 23.69 15.36 22.34 13.03 23.69 15.36 25.03 17.69 23.69"/><g id="Axonometric_Cube-42" data-name="Axonometric Cube"><polygon id="Cube_face_-_top-47" data-name="Cube face - top" class="cls-52" points="17.39 23.23 15.36 22.06 13.33 23.23 15.36 24.4 17.39 23.23"/><polygon id="Cube_face_-_left-42" data-name="Cube face - left" class="cls-53" points="15.36 24.83 13.33 23.66 13.33 23.23 15.36 24.4 15.36 24.83"/><polygon id="Cube_face_-_right-42" data-name="Cube face - right" class="cls-54" points="17.39 23.66 15.36 24.83 15.36 24.4 17.39 23.23 17.39 23.66"/></g><polygon class="cls-52" points="21.79 26.05 19.45 24.7 17.12 26.05 19.45 27.4 21.79 26.05"/><g id="Axonometric_Cube-43" data-name="Axonometric Cube"><polygon id="Cube_face_-_top-48" data-name="Cube face - top" class="cls-52" points="21.48 25.6 19.45 24.43 17.43 25.6 19.45 26.77 21.48 25.6"/><polygon id="Cube_face_-_left-43" data-name="Cube face - left" class="cls-53" points="19.45 27.2 17.43 26.02 17.43 25.6 19.45 26.77 19.45 27.2"/><polygon id="Cube_face_-_right-43" data-name="Cube face - right" class="cls-54" points="21.48 26.02 19.45 27.2 19.45 26.77 21.48 25.6 21.48 26.02"/></g><polygon class="cls-52" points="25.88 28.42 23.55 27.07 21.22 28.42 23.55 29.76 25.88 28.42"/><g id="Axonometric_Cube-44" data-name="Axonometric Cube"><polygon id="Cube_face_-_top-49" data-name="Cube face - top" class="cls-52" points="25.58 27.96 23.55 26.79 21.52 27.96 23.55 29.13 25.58 27.96"/><polygon id="Cube_face_-_left-44" data-name="Cube face - left" class="cls-53" points="23.55 29.56 21.52 28.39 21.52 27.96 23.55 29.13 23.55 29.56"/><polygon id="Cube_face_-_right-44" data-name="Cube face - right" class="cls-54" points="25.58 28.39 23.55 29.56 23.55 29.13 25.58 27.96 25.58 28.39"/></g><polygon class="cls-52" points="29.98 30.78 27.65 29.43 25.32 30.78 27.65 32.13 29.98 30.78"/><g id="Axonometric_Cube-45" data-name="Axonometric Cube"><polygon id="Cube_face_-_top-50" data-name="Cube face - top" class="cls-52" points="29.68 30.33 27.65 29.16 25.62 30.33 27.65 31.5 29.68 30.33"/><polygon id="Cube_face_-_left-45" data-name="Cube face - left" class="cls-53" points="27.65 31.93 25.62 30.75 25.62 30.33 27.65 31.5 27.65 31.93"/><polygon id="Cube_face_-_right-45" data-name="Cube face - right" class="cls-54" points="29.68 30.75 27.65 31.93 27.65 31.5 29.68 30.33 29.68 30.75"/></g><polygon class="cls-52" points="34.08 33.15 31.74 31.8 29.41 33.15 31.74 34.49 34.08 33.15"/><g id="Axonometric_Cube-46" data-name="Axonometric Cube"><polygon id="Cube_face_-_top-51" data-name="Cube face - top" class="cls-52" points="33.77 32.69 31.74 31.52 29.71 32.69 31.74 33.87 33.77 32.69"/><polygon id="Cube_face_-_left-46" data-name="Cube face - left" class="cls-53" points="31.74 34.29 29.71 33.12 29.71 32.69 31.74 33.87 31.74 34.29"/><polygon id="Cube_face_-_right-46" data-name="Cube face - right" class="cls-54" points="33.77 33.12 31.74 34.29 31.74 33.87 33.77 32.69 33.77 33.12"/></g><polygon class="cls-52" points="38.17 35.51 35.84 34.16 33.51 35.51 35.84 36.86 38.17 35.51"/><g id="Axonometric_Cube-47" data-name="Axonometric Cube"><polygon id="Cube_face_-_top-52" data-name="Cube face - top" class="cls-52" points="37.87 35.06 35.84 33.89 33.81 35.06 35.84 36.23 37.87 35.06"/><polygon id="Cube_face_-_left-47" data-name="Cube face - left" class="cls-53" points="35.84 36.66 33.81 35.48 33.81 35.06 35.84 36.23 35.84 36.66"/><polygon id="Cube_face_-_right-47" data-name="Cube face - right" class="cls-54" points="37.87 35.48 35.84 36.66 35.84 36.23 37.87 35.06 37.87 35.48"/></g><polygon class="cls-52" points="42.27 37.88 39.94 36.53 37.6 37.88 39.94 39.22 42.27 37.88"/><g id="Axonometric_Cube-48" data-name="Axonometric Cube"><polygon id="Cube_face_-_top-53" data-name="Cube face - top" class="cls-52" points="41.97 37.42 39.94 36.25 37.91 37.42 39.94 38.59 41.97 37.42"/><polygon id="Cube_face_-_left-48" data-name="Cube face - left" class="cls-53" points="39.94 39.02 37.91 37.85 37.91 37.42 39.94 38.59 39.94 39.02"/><polygon id="Cube_face_-_right-48" data-name="Cube face - right" class="cls-54" points="41.97 37.85 39.94 39.02 39.94 38.59 41.97 37.42 41.97 37.85"/></g></g></g></svg>