<svg xmlns="http://www.w3.org/2000/svg" viewBox="0 0 43.65 39.98"><defs><style>.cls-1{fill:#005e7b;}</style></defs><title>rule-4</title><g id="icons"><path class="cls-1" d="M16.07,29.47a3.52,3.52,0,0,1-3.25-2.14,3.47,3.47,0,0,1,.71-3.79c2-2,3.48-3.73,4.76-5.31A39.38,39.38,0,0,1,13.6,9.69a.82.82,0,0,0-1.51,0,43.43,43.43,0,0,1-5.72,10A.78.78,0,0,0,7,21H9a48.34,48.34,0,0,1-5.61,6.65A.8.8,0,0,0,4,29H9.54c-2.2,3.13-4.87,5.84-9.26,9.58A.81.81,0,0,0,.8,40H8.71a3.47,3.47,0,0,1,1.07-3.67c2.91-2.48,5.16-4.55,7-6.48l-.26-.36Z"/><path class="cls-1" d="M43.3,38.21a80.23,80.23,0,0,1-9.08-8.73H30.78a2.5,2.5,0,0,1-2.5-2.5H38.64a1,1,0,0,0,.75-1.69,66.19,66.19,0,0,1-6.68-7.8H30.78a2.5,2.5,0,0,1-2.5-2.5h6.46a1,1,0,0,0,.83-1.58A54.66,54.66,0,0,1,28.28.64a1,1,0,0,0-1.88,0A54.85,54.85,0,0,1,19.14,13.4,1,1,0,0,0,20,15h3.62a53.59,53.59,0,0,1-8.27,10.3A1,1,0,0,0,16.07,27h6.42c-2.67,3.61-5.95,6.86-11.09,11.24A1,1,0,0,0,12.08,40H42.62A1,1,0,0,0,43.3,38.21Z"/></g></svg>