<svg xmlns="http://www.w3.org/2000/svg" viewBox="0 0 25.95 39.45"><defs><style>.cls-1{fill:#005e7b;}</style></defs><title>rule-2</title><g id="icons"><path class="cls-1" d="M17.86,32.49H8.1a1.63,1.63,0,0,0-1.63,1.63v.27A1.62,1.62,0,0,0,8.1,36H9.73v.44a3,3,0,0,0,3,3h.5a3,3,0,0,0,3-3V36h1.63a1.62,1.62,0,0,0,1.62-1.62v-.27A1.63,1.63,0,0,0,17.86,32.49Z"/><path class="cls-1" d="M11.46.09C6,.7.73,5.94.09,11.4a13,13,0,0,0,.44,5.19h0a3.66,3.66,0,0,0,3.08,2.1h0A5.23,5.23,0,0,0,6.2,17.9a4.75,4.75,0,0,1,.47-5.51C8.52,9.81,15.32,6.8,17,6.07a.6.6,0,0,1,.69.16C19,7.64,22,14.39,18.63,19.38a9.12,9.12,0,0,1-7.76,3.46.65.65,0,0,1-.36-1.12,16.12,16.12,0,0,0,5.12-8.81.49.49,0,0,0-.88-.37l-.56.8c-3.65,5.14-7.26,7.84-10.52,7.84H3.6a5.51,5.51,0,0,1-.71-.06c.25.3.5.6.76.88A8.26,8.26,0,0,1,6,27.78H6a2,2,0,0,0,2,2H18a2,2,0,0,0,2-2A8.23,8.23,0,0,1,22.25,22,13,13,0,0,0,11.46.09Z"/></g></svg>