<svg xmlns="http://www.w3.org/2000/svg" viewBox="0 0 36 37.47"><defs><style>.cls-1{fill:#005e7b;}</style></defs><title>rule-3</title><g id="icons"><path class="cls-1" d="M28.46,33.85a3.51,3.51,0,0,1-3.46-3l-.38-2.62a10.93,10.93,0,0,1-15-1.63l.66-.38a.5.5,0,0,0-.06-.9L3.53,22.63a.5.5,0,0,0-.68.39l-1,7.17a.5.5,0,0,0,.74.5l.94-.55a17.95,17.95,0,0,0,25.32,3.68C28.71,33.83,28.59,33.85,28.46,33.85Z"/><path class="cls-1" d="M22.5,4.58,16.81.11A.5.5,0,0,0,16,.5V1.6A17.89,17.89,0,0,0,.15,21.7a3.53,3.53,0,0,1,3.2-2.11h0a3.62,3.62,0,0,1,1.3.25l2.44,1A10,10,0,0,1,7,19.47,11,11,0,0,1,16,8.66v.78a.5.5,0,0,0,.81.4L22.5,5.37A.51.51,0,0,0,22.5,4.58Zm12,22.1A17.92,17.92,0,0,0,25,2.93a3.42,3.42,0,0,1,.68,2,3.47,3.47,0,0,1-1.34,2.75L22.28,9.35a10.92,10.92,0,0,1,6.07,13.79l-.66-.39a.51.51,0,0,0-.75.51l1,7.16a.5.5,0,0,0,.68.4l6.72-2.7a.5.5,0,0,0,.06-.89Z"/></g></svg>