<svg xmlns="http://www.w3.org/2000/svg" viewBox="0 0 39.76 38.78"><defs><style>.cls-1{fill:#005e7b;}</style></defs><title>rule-1</title><g id="icons"><path class="cls-1" d="M11.43,20.24A2.32,2.32,0,0,0,8,20.42a2.41,2.41,0,0,0,.25,3.19l2.54,2.53A1.28,1.28,0,0,1,9,28L6.51,25.49A5.21,5.21,0,0,1,5,22l0-6a2.5,2.5,0,0,0-2.76-2.49A2.6,2.6,0,0,0,0,16.14V22.3a6,6,0,0,0,1.42,3.88L7,32.82a.49.49,0,0,0,.38.18H17.68a.5.5,0,0,0,.5-.5v-3a6,6,0,0,0-1.75-4.25Zm26.09-6.73A2.5,2.5,0,0,0,34.76,16l0,6a5.21,5.21,0,0,1-1.53,3.5L30.78,28A1.28,1.28,0,0,1,29,26.14l2.54-2.53a2.41,2.41,0,0,0,.25-3.19,2.31,2.31,0,0,0-3.42-.18l-5,5a6,6,0,0,0-1.76,4.25v3a.5.5,0,0,0,.5.5H32.35a.48.48,0,0,0,.38-.18l5.62-6.64a6.05,6.05,0,0,0,1.41-3.88V16.14A2.6,2.6,0,0,0,37.52,13.51Z"/><path class="cls-1" d="M17.45,8.32h4.86a.49.49,0,0,0,.5-.51C22.49,2.93,20.83,0,19.88,0S17.27,2.93,17,7.81A.5.5,0,0,0,17.45,8.32Zm-6.94-.07H14a.49.49,0,0,0,.49-.47,23.67,23.67,0,0,1,1.17-6.4.5.5,0,0,0-.71-.6A10,10,0,0,0,10,7.67.5.5,0,0,0,10.51,8.25Zm14.81-.47a.49.49,0,0,0,.49.47h3.45a.51.51,0,0,0,.5-.58A10.09,10.09,0,0,0,24.87.78a.5.5,0,0,0-.71.6A24.07,24.07,0,0,1,25.32,7.78Zm-.45,10.44a10.09,10.09,0,0,0,4.89-6.89.51.51,0,0,0-.5-.58H25.81a.49.49,0,0,0-.49.47,24.07,24.07,0,0,1-1.16,6.4A.5.5,0,0,0,24.87,18.22Zm-2.56-7.54H17.45a.5.5,0,0,0-.5.51c.32,4.88,2,7.81,2.93,7.81s2.61-2.93,2.93-7.81A.49.49,0,0,0,22.31,10.68Zm9.77,25.1H21.81a.5.5,0,0,0-.5.5v2a.51.51,0,0,0,.5.5H32.08a.5.5,0,0,0,.5-.5v-2A.5.5,0,0,0,32.08,35.78ZM14.9,18.22a.5.5,0,0,0,.71-.6,23.67,23.67,0,0,1-1.17-6.4.49.49,0,0,0-.49-.47H10.51a.5.5,0,0,0-.5.58A10,10,0,0,0,14.9,18.22Zm3,17.56H7.68a.5.5,0,0,0-.5.5v2a.51.51,0,0,0,.5.5H18a.5.5,0,0,0,.5-.5v-2A.5.5,0,0,0,18,35.78Z"/></g></svg>